{
copyright = "Copyright \U00A9 2019 IBM Corp. with Reserved Font Name \"Plex\"\012This Font Software is licensed under the SIL Open Font License, Version 1.1.\012This license is copied below, and is also available with a FAQ at: http://scripts.sil.org/OFL.";
customParameters = (
{
name = licenseURL;
value = "http://scripts.sil.org/OFL";
},
{
name = vendorID;
value = "";
},
{
name = glyphOrder;
value = (
    ".notdef",
    uni0000,
    uni000D,
    space,
    a,
    b,
    c,
    d,
    e,
    f,
    g,
    "g.alt02",
    h,
    i,
    j,
    k,
    l,
    m,
    n,
    o,
    p,
    q,
    r,
    s,
    t,
    u,
    v,
    w,
    x,
    y,
    z,
    A,
    B,
    C,
    D,
    E,
    F,
    G,
    H,
    I,
    J,
    K,
    L,
    M,
    N,
    O,
    P,
    Q,
    R,
    S,
    T,
    U,
    V,
    W,
    X,
    Y,
    Z,
    zero,
    one,
    two,
    three,
    four,
    five,
    six,
    seven,
    eight,
    nine,
    ampersand,
    at,
    hyphen,
    uni00AD,
    endash,
    emdash,
    underscore,
    period,
    ellipsis,
    colon,
    comma,
    semicolon,
    quotesingle,
    quotedbl,
    quoteleft,
    quoteright,
    quotedblleft,
    quotedblright,
    quotesinglbase,
    quotedblbase,
    guilsinglleft,
    guilsinglright,
    guillemotleft,
    guillemotright,
    exclamdown,
    exclam,
    questiondown,
    question,
    parenleft,
    parenright,
    bracketleft,
    bracketright,
    braceleft,
    braceright,
    slash,
    backslash,
    fraction,
    percent,
    perthousand,
    bar,
    brokenbar,
    section,
    paragraph,
    copyright,
    registered,
    trademark,
    ordfeminine,
    ordmasculine,
    degree,
    asterisk,
    dagger,
    daggerdbl,
    numbersign,
    asciicircum,
    asciitilde,
    plus,
    minus,
    plusminus,
    multiply,
    divide,
    equal,
    approxequal,
    notequal,
    less,
    greater,
    lessequal,
    greaterequal,
    periodcentered,
    bullet,
    lozenge,
    logicalnot,

glyphs = (
{
glyphname = .notdef;
layers = (
{
layerId = "5E034FFB-2FEE-437B-B143-44B7444E4712";
name = "Regular Italic";
paths = (
{
closed = 1;
nodes = (
"32 0 LINE",
"32 780 LINE",
"440 780 LINE",
"440 0 LINE"
);
},
{
closed = 1;
nodes = (
"109 77 LINE",
"363 77 LINE",
"363 703 LINE",
"109 703 LINE"
);
}
);
width = 472;
}
);
},
{
glyphname = a;
layers = (
{
layerId = "5E034FFB-2FEE-437B-B143-44B7444E4712";
name = "Regular Italic";
paths = (
{
closed = 1;
nodes = (
"434 0 LINE SMOOTH",
"387 0 OFFCURVE",
"358 25 OFFCURVE",
"358 68 CURVE SMOOTH",
"358 79 OFFCURVE",
"359 89 OFFCURVE",
"361 97 CURVE",
"365 116 LINE",
"361 116 LINE",
"318 31 OFFCURVE",
"272 -12 OFFCURVE",
"192 -12 CURVE SMOOTH",
"96 -12 OFFCURVE",
"42 63 OFFCURVE",
"42 179 CURVE SMOOTH",
"42 270 OFFCURVE",
"65 359 OFFCURVE",
"109 424 CURVE SMOOTH",
"152 489 OFFCURVE",
"214 532 OFFCURVE",
"291 532 CURVE SMOOTH",
"359 532 OFFCURVE",
"413 494 OFFCURVE",
"424 433 CURVE",
"429 433 LINE",
"446 520 LINE",
"550 520 LINE",
"463 87 LINE",
"530 87 LINE",
"513 0 LINE"
);
},
{
closed = 1;
nodes = (
"275 77 OFFCURVE",
"306 98 OFFCURVE",
"333 127 CURVE SMOOTH",
"362 158 OFFCURVE",
"381 196 OFFCURVE",
"390 243 CURVE SMOOTH",
"411 348 LINE SMOOTH",
"415 371 OFFCURVE",
"408 395 OFFCURVE",
"391 413 CURVE SMOOTH",
"374 431 OFFCURVE",
"346 443 OFFCURVE",
"311 443 CURVE SMOOTH",
"234 443 OFFCURVE",
"188 395 OFFCURVE",
"169 303 CURVE SMOOTH",
"154 230 LINE SMOOTH",
"151 214 OFFCURVE",
"149 192 OFFCURVE",
"149 176 CURVE SMOOTH",
"149 117 OFFCURVE",
"176 77 OFFCURVE",
"232 77 CURVE SMOOTH"
);
}
);
width = 586;
}
);
leftKerningGroup = a;
rightKerningGroup = a;
unicode = 0061;
},
{
glyphname = b;
layers = (
{
layerId = "5E034FFB-2FEE-437B-B143-44B7444E4712";
name = "Regular Italic";
paths = (
{
closed = 1;
nodes = (
"175 740 LINE",
"279 740 LINE",
"212 404 LINE",
"216 404 LINE",
"259 489 OFFCURVE",
"305 532 OFFCURVE",
"385 532 CURVE SMOOTH",
"481 532 OFFCURVE",
"535 457 OFFCURVE",
"535 341 CURVE SMOOTH",
"535 250 OFFCURVE",
"512 161 OFFCURVE",
"469 96 CURVE SMOOTH",
"425 31 OFFCURVE",
"363 -12 OFFCURVE",
"286 -12 CURVE SMOOTH",
"218 -12 OFFCURVE",
"164 24 OFFCURVE",
"153 87 CURVE",
"148 87 LINE",
"131 0 LINE",
"27 0 LINE"
);
},
{
closed = 1;
nodes = (
"343 77 OFFCURVE",
"389 125 OFFCURVE",
"408 217 CURVE SMOOTH",
"423 290 LINE SMOOTH",
"426 306 OFFCURVE",
"428 327 OFFCURVE",
"428 344 CURVE SMOOTH",
"428 403 OFFCURVE",
"400 443 OFFCURVE",
"343 443 CURVE SMOOTH",
"302 443 OFFCURVE",
"271 421 OFFCURVE",
"244 393 CURVE SMOOTH",
"216 362 OFFCURVE",
"196 325 OFFCURVE",
"187 278 CURVE SMOOTH",
"168 183 LINE SMOOTH",
"156 123 OFFCURVE",
"190 77 OFFCURVE",
"267 77 CURVE SMOOTH"
);
}
);
width = 577;
}
);
leftKerningGroup = b;
rightKerningGroup = b;
unicode = 0062;
},
{
glyphname = c;
layers = (
{
layerId = "5E034FFB-2FEE-437B-B143-44B7444E4712";
name = "Regular Italic";
paths = (
{
closed = 1;
nodes = (
"121 -12 OFFCURVE",
"42 63 OFFCURVE",
"42 206 CURVE SMOOTH",
"42 297 OFFCURVE",
"68 378 OFFCURVE",
"115 437 CURVE SMOOTH",
"162 496 OFFCURVE",
"227 532 OFFCURVE",
"306 532 CURVE SMOOTH",
"402 532 OFFCURVE",
"467 481 OFFCURVE",
"484 405 CURVE",
"397 370 LINE",
"382 417 OFFCURVE",
"357 444 OFFCURVE",
"301 444 CURVE SMOOTH",
"229 444 OFFCURVE",
"183 397 OFFCURVE",
"167 313 CURVE SMOOTH",
"150 227 LINE SMOOTH",
"147 210 OFFCURVE",
"145 196 OFFCURVE",
"145 183 CURVE SMOOTH",
"145 119 OFFCURVE",
"178 76 OFFCURVE",
"247 76 CURVE SMOOTH",
"298 76 OFFCURVE",
"331 104 OFFCURVE",
"367 169 CURVE",
"447 131 LINE",
"403 38 OFFCURVE",
"332 -12 OFFCURVE",
"237 -12 CURVE SMOOTH"
);
}
);
width = 491;
}
);
leftKerningGroup = c;
rightKerningGroup = c;
unicode = 0063;
},
{
glyphname = d;
layers = (
{
layerId = "5E034FFB-2FEE-437B-B143-44B7444E4712";
name = "Regular Italic";
paths = (
{
closed = 1;
nodes = (
"434 0 LINE SMOOTH",
"387 0 OFFCURVE",
"358 25 OFFCURVE",
"358 68 CURVE SMOOTH",
"358 79 OFFCURVE",
"359 89 OFFCURVE",
"361 97 CURVE",
"365 116 LINE",
"361 116 LINE",
"318 31 OFFCURVE",
"272 -12 OFFCURVE",
"192 -12 CURVE SMOOTH",
"96 -12 OFFCURVE",
"42 63 OFFCURVE",
"42 179 CURVE SMOOTH",
"42 270 OFFCURVE",
"65 359 OFFCURVE",
"109 424 CURVE SMOOTH",
"152 489 OFFCURVE",
"214 532 OFFCURVE",
"291 532 CURVE SMOOTH",
"359 532 OFFCURVE",
"413 494 OFFCURVE",
"424 433 CURVE",
"429 433 LINE",
"490 740 LINE",
"594 740 LINE",
"463 87 LINE",
"530 87 LINE",
"513 0 LINE"
);
},
{
closed = 1;
nodes = (
"275 77 OFFCURVE",
"306 99 OFFCURVE",
"333 127 CURVE SMOOTH",
"362 158 OFFCURVE",
"381 197 OFFCURVE",
"390 242 CURVE SMOOTH",
"409 337 LINE SMOOTH",
"421 397 OFFCURVE",
"388 443 OFFCURVE",
"309 443 CURVE SMOOTH",
"234 443 OFFCURVE",
"188 395 OFFCURVE",
"169 303 CURVE SMOOTH",
"154 230 LINE SMOOTH",
"151 214 OFFCURVE",
"149 193 OFFCURVE",
"149 176 CURVE SMOOTH",
"149 117 OFFCURVE",
"177 77 OFFCURVE",
"234 77 CURVE SMOOTH"
);
}
);
width = 586;
}
);
leftKerningGroup = a;
rightKerningGroup = d;
unicode = 0064;
},
{
glyphname = e;
layers = (
{
layerId = "5E034FFB-2FEE-437B-B143-44B7444E4712";
name = "Regular Italic";
paths = (
{
closed = 1;
nodes = (
"113 -12 OFFCURVE",
"42 68 OFFCURVE",
"42 208 CURVE SMOOTH",
"42 293 OFFCURVE",
"69 374 OFFCURVE",
"117 434 CURVE SMOOTH",
"165 494 OFFCURVE",
"234 532 OFFCURVE",
"318 532 CURVE SMOOTH",
"359 532 OFFCURVE",
"404 522 OFFCURVE",
"437 499 CURVE SMOOTH",
"470 476 OFFCURVE",
"493 441 OFFCURVE",
"493 390 CURVE SMOOTH",
"493 335 OFFCURVE",
"465 292 OFFCURVE",
"410 263 CURVE SMOOTH",
"354 234 OFFCURVE",
"267 218 OFFCURVE",
"148 215 CURVE",
"146 202 OFFCURVE",
"145 191 OFFCURVE",
"145 182 CURVE SMOOTH",
"145 118 OFFCURVE",
"179 76 OFFCURVE",
"255 76 CURVE SMOOTH",
"312 76 OFFCURVE",
"357 101 OFFCURVE",
"400 154 CURVE",
"466 99 LINE",
"401 18 OFFCURVE",
"329 -12 OFFCURVE",
"248 -12 CURVE SMOOTH"
);
},
{
closed = 1;
nodes = (
"238 449 OFFCURVE",
"181 397 OFFCURVE",
"165 314 CURVE SMOOTH",
"160 288 LINE",
"255 292 OFFCURVE",
"313 301 OFFCURVE",
"347 317 CURVE SMOOTH",
"381 333 OFFCURVE",
"390 356 OFFCURVE",
"390 385 CURVE SMOOTH",
"390 410 OFFCURVE",
"380 427 OFFCURVE",
"365 437 CURVE SMOOTH",
"349 447 OFFCURVE",
"330 449 OFFCURVE",
"310 449 CURVE SMOOTH"
);
}
);
width = 512;
}
);
leftKerningGroup = c;
rightKerningGroup = e;
unicode = 0065;
},
{
glyphname = f;
layers = (
{
layerId = "5E034FFB-2FEE-437B-B143-44B7444E4712";
name = "Regular Italic";
paths = (
{
closed = 1;
nodes = (
"144 -71 LINE SMOOTH",
"128 -154 OFFCURVE",
"83 -200 OFFCURVE",
"-10 -200 CURVE SMOOTH",
"-80 -200 LINE",
"-63 -113 LINE",
"31 -113 LINE",
"141 433 LINE",
"63 433 LINE",
"80 520 LINE",
"159 520 LINE",
"177 611 LINE SMOOTH",
"193 694 OFFCURVE",
"238 740 OFFCURVE",
"331 740 CURVE SMOOTH",
"408 740 LINE",
"391 653 LINE",
"289 653 LINE",
"263 520 LINE",
"364 520 LINE",
"347 433 LINE",
"245 433 LINE"
);
}
);
width = 326;
}
);
leftKerningGroup = f;
rightKerningGroup = f;
unicode = 0066;
},
{
glyphname = g;
lastChange = "2018-11-07 04:57:28 +0000";
layers = (
{
layerId = "5E034FFB-2FEE-437B-B143-44B7444E4712";
name = "Regular Italic";
paths = (
{
closed = 1;
nodes = (
"272 -6 OFFCURVE",
"321 37 OFFCURVE",
"362 122 CURVE",
"366 122 LINE",
"344 12 LINE SMOOTH",
"326 -80 OFFCURVE",
"278 -125 OFFCURVE",
"201 -125 CURVE SMOOTH",
"143 -125 OFFCURVE",
"100 -100 OFFCURVE",
"73 -59 CURVE",
"3 -121 LINE",
"46 -180 OFFCURVE",
"111 -212 OFFCURVE",
"202 -212 CURVE SMOOTH",
"346 -212 OFFCURVE",
"419 -134 OFFCURVE",
"447 4 CURVE SMOOTH",
"550 520 LINE",
"446 520 LINE",
"429 433 LINE",
"424 433 LINE",
"413 494 OFFCURVE",
"358 532 OFFCURVE",
"291 532 CURVE SMOOTH",
"136 532 OFFCURVE",
"44 367 OFFCURVE",
"44 185 CURVE SMOOTH",
"44 70 OFFCURVE",
"98 -6 OFFCURVE",
"193 -6 CURVE SMOOTH"
);
},
{
closed = 1;
nodes = (
"179 83 OFFCURVE",
"151 124 OFFCURVE",
"151 182 CURVE SMOOTH",
"151 199 OFFCURVE",
"153 220 OFFCURVE",
"156 236 CURVE SMOOTH",
"170 303 LINE SMOOTH",
"189 394 OFFCURVE",
"236 443 OFFCURVE",
"310 443 CURVE SMOOTH",
"390 443 OFFCURVE",
"418 391 OFFCURVE",
"408 337 CURVE SMOOTH",
"391 248 LINE SMOOTH",
"382 202 OFFCURVE",
"362 163 OFFCURVE",
"334 133 CURVE SMOOTH",
"308 105 OFFCURVE",
"276 83 OFFCURVE",
"235 83 CURVE SMOOTH"
);
}
);
width = 566;
}
);
leftKerningGroup = g;
rightKerningGroup = g;
unicode = 0067;
},
{
glyphname = h;
layers = (
{
layerId = "5E034FFB-2FEE-437B-B143-44B7444E4712";
name = "Regular Italic";
paths = (
{
closed = 1;
nodes = (
"175 740 LINE",
"279 740 LINE",
"213 409 LINE",
"218 409 LINE",
"257 489 OFFCURVE",
"306 532 OFFCURVE",
"383 532 CURVE SMOOTH",
"470 532 OFFCURVE",
"513 480 OFFCURVE",
"513 392 CURVE SMOOTH",
"513 369 OFFCURVE",
"510 349 OFFCURVE",
"505 322 CURVE SMOOTH",
"458 87 LINE",
"521 87 LINE",
"504 0 LINE",
"425 0 LINE SMOOTH",
"381 0 OFFCURVE",
"353 23 OFFCURVE",
"353 66 CURVE SMOOTH",
"353 74 OFFCURVE",
"354 83 OFFCURVE",
"355 90 CURVE",
"400 315 LINE SMOOTH",
"404 335 OFFCURVE",
"406 353 OFFCURVE",
"406 370 CURVE SMOOTH",
"406 417 OFFCURVE",
"386 442 OFFCURVE",
"338 442 CURVE SMOOTH",
"269 442 OFFCURVE",
"230 385 OFFCURVE",
"209 343 CURVE SMOOTH",
"198 322 OFFCURVE",
"191 301 OFFCURVE",
"187 280 CURVE SMOOTH",
"131 0 LINE",
"27 0 LINE"
);
}
);
width = 573;
}
);
leftKerningGroup = b;
rightKerningGroup = h;
unicode = 0068;
},
{
glyphname = i;
layers = (
{
layerId = "5E034FFB-2FEE-437B-B143-44B7444E4712";
name = "Regular Italic";
paths = (
{
closed = 1;
nodes = (
"165 613 OFFCURVE",
"149 631 OFFCURVE",
"149 655 CURVE SMOOTH",
"149 668 OFFCURVE",
"154 708 OFFCURVE",
"175 729 CURVE",
"186 739 OFFCURVE",
"203 744 OFFCURVE",
"226 744 CURVE SMOOTH",
"265 744 OFFCURVE",
"281 726 OFFCURVE",
"281 702 CURVE SMOOTH",
"281 689 OFFCURVE",
"276 649 OFFCURVE",
"255 629 CURVE SMOOTH",
"244 618 OFFCURVE",
"227 613 OFFCURVE",
"204 613 CURVE SMOOTH"
);
},
{
closed = 1;
nodes = (
"121 0 LINE SMOOTH",
"70 0 OFFCURVE",
"43 29 OFFCURVE",
"43 70 CURVE SMOOTH",
"43 77 OFFCURVE",
"44 85 OFFCURVE",
"46 95 CURVE SMOOTH",
"131 520 LINE",
"235 520 LINE",
"148 87 LINE",
"215 87 LINE",
"198 0 LINE"
);
}
);
width = 271;
}
);
leftKerningGroup = i;
rightKerningGroup = i;
unicode = 0069;
},
{
glyphname = j;
layers = (
{
layerId = "5E034FFB-2FEE-437B-B143-44B7444E4712";
name = "Regular Italic";
paths = (
{
closed = 1;
nodes = (
"133 520 LINE",
"237 520 LINE",
"116 -83 LINE SMOOTH",
"100 -162 OFFCURVE",
"64 -200 OFFCURVE",
"-19 -200 CURVE SMOOTH",
"-91 -200 LINE",
"-74 -114 LINE",
"6 -114 LINE"
);
},
{
closed = 1;
nodes = (
"167 613 OFFCURVE",
"151 631 OFFCURVE",
"151 655 CURVE SMOOTH",
"151 668 OFFCURVE",
"156 708 OFFCURVE",
"177 729 CURVE",
"188 739 OFFCURVE",
"205 744 OFFCURVE",
"228 744 CURVE SMOOTH",
"267 744 OFFCURVE",
"283 726 OFFCURVE",
"283 702 CURVE SMOOTH",
"283 689 OFFCURVE",
"278 649 OFFCURVE",
"257 629 CURVE SMOOTH",
"246 618 OFFCURVE",
"229 613 OFFCURVE",
"206 613 CURVE SMOOTH"
);
}
);
width = 263;
}
);
leftKerningGroup = j;
rightKerningGroup = j;
unicode = 006A;
},
{
glyphname = k;
layers = (
{
layerId = "5E034FFB-2FEE-437B-B143-44B7444E4712";
name = "Regular Italic";
paths = (
{
closed = 1;
nodes = (
"175 740 LINE",
"279 740 LINE",
"189 289 LINE",
"195 289 LINE",
"278 377 LINE",
"431 520 LINE",
"554 520 LINE",
"331 310 LINE",
"422 87 LINE",
"485 87 LINE",
"468 0 LINE",
"411 0 LINE SMOOTH",
"364 0 OFFCURVE",
"337 20 OFFCURVE",
"320 65 CURVE SMOOTH",
"249 243 LINE",
"163 162 LINE",
"131 0 LINE",
"27 0 LINE"
);
}
);
width = 532;
}
);
leftKerningGroup = b;
rightKerningGroup = k;
unicode = 006B;
},
{
glyphname = l;
layers = (
{
layerId = "5E034FFB-2FEE-437B-B143-44B7444E4712";
name = "Regular Italic";
paths = (
{
closed = 1;
nodes = (
"120 0 LINE SMOOTH",
"69 0 OFFCURVE",
"42 29 OFFCURVE",
"42 70 CURVE SMOOTH",
"42 77 OFFCURVE",
"43 85 OFFCURVE",
"45 95 CURVE SMOOTH",
"174 740 LINE",
"278 740 LINE",
"147 87 LINE",
"219 87 LINE",
"202 0 LINE"
);
}
);
width = 270;
}
);
leftKerningGroup = l;
rightKerningGroup = d;
unicode = 006C;
},
{
glyphname = m;
layers = (
{
layerId = "5E034FFB-2FEE-437B-B143-44B7444E4712";
name = "Regular Italic";
paths = (
{
closed = 1;
nodes = (
"27 0 LINE",
"131 520 LINE",
"235 520 LINE",
"213 409 LINE",
"218 409 LINE",
"257 489 OFFCURVE",
"303 532 OFFCURVE",
"380 532 CURVE SMOOTH",
"456 532 OFFCURVE",
"496 486 OFFCURVE",
"501 409 CURVE",
"506 409 LINE",
"543 488 OFFCURVE",
"593 532 OFFCURVE",
"673 532 CURVE SMOOTH",
"757 532 OFFCURVE",
"799 481 OFFCURVE",
"799 394 CURVE SMOOTH",
"799 370 OFFCURVE",
"796 344 OFFCURVE",
"790 316 CURVE SMOOTH",
"744 87 LINE",
"807 87 LINE",
"790 0 LINE",
"711 0 LINE SMOOTH",
"666 0 OFFCURVE",
"638 22 OFFCURVE",
"638 65 CURVE SMOOTH",
"638 74 OFFCURVE",
"639 82 OFFCURVE",
"641 90 CURVE",
"686 316 LINE SMOOTH",
"690 336 OFFCURVE",
"693 355 OFFCURVE",
"693 371 CURVE SMOOTH",
"693 416 OFFCURVE",
"673 442 OFFCURVE",
"629 442 CURVE SMOOTH",
"568 442 OFFCURVE",
"527 385 OFFCURVE",
"507 342 CURVE SMOOTH",
"497 321 OFFCURVE",
"490 300 OFFCURVE",
"486 280 CURVE SMOOTH",
"430 0 LINE",
"326 0 LINE",
"389 315 LINE SMOOTH",
"393 335 OFFCURVE",
"396 355 OFFCURVE",
"396 372 CURVE SMOOTH",
"396 416 OFFCURVE",
"378 442 OFFCURVE",
"335 442 CURVE SMOOTH",
"300 442 OFFCURVE",
"271 425 OFFCURVE",
"248 398 CURVE SMOOTH",
"217 363 OFFCURVE",
"195 320 OFFCURVE",
"187 280 CURVE SMOOTH",
"131 0 LINE"
);
}
);
width = 859;
}
);
leftKerningGroup = m;
rightKerningGroup = h;
unicode = 006D;
},
{
glyphname = n;
layers = (
{
layerId = "5E034FFB-2FEE-437B-B143-44B7444E4712";
name = "Regular Italic";
paths = (
{
closed = 1;
nodes = (
"27 0 LINE",
"131 520 LINE",
"235 520 LINE",
"213 409 LINE",
"218 409 LINE",
"257 489 OFFCURVE",
"306 532 OFFCURVE",
"383 532 CURVE SMOOTH",
"470 532 OFFCURVE",
"513 480 OFFCURVE",
"513 392 CURVE SMOOTH",
"513 369 OFFCURVE",
"510 349 OFFCURVE",
"505 322 CURVE SMOOTH",
"458 87 LINE",
"521 87 LINE",
"504 0 LINE",
"425 0 LINE SMOOTH",
"381 0 OFFCURVE",
"353 23 OFFCURVE",
"353 66 CURVE SMOOTH",
"353 70 OFFCURVE",
"353 74 OFFCURVE",
"353 77 CURVE SMOOTH",
"353 80 OFFCURVE",
"354 84 OFFCURVE",
"355 90 CURVE SMOOTH",
"400 315 LINE SMOOTH",
"404 335 OFFCURVE",
"406 353 OFFCURVE",
"406 370 CURVE SMOOTH",
"406 417 OFFCURVE",
"386 442 OFFCURVE",
"338 442 CURVE SMOOTH",
"269 442 OFFCURVE",
"230 385 OFFCURVE",
"209 343 CURVE SMOOTH",
"198 322 OFFCURVE",
"191 301 OFFCURVE",
"187 280 CURVE SMOOTH",
"131 0 LINE"
);
}
);
width = 573;
}
);
leftKerningGroup = m;
rightKerningGroup = h;
unicode = 006E;
},
{
glyphname = o;
layers = (
{
layerId = "5E034FFB-2FEE-437B-B143-44B7444E4712";
name = "Regular Italic";
paths = (
{
closed = 1;
nodes = (
"121 -12 OFFCURVE",
"42 63 OFFCURVE",
"42 203 CURVE SMOOTH",
"42 292 OFFCURVE",
"70 375 OFFCURVE",
"118 435 CURVE SMOOTH",
"165 495 OFFCURVE",
"231 532 OFFCURVE",
"310 532 CURVE SMOOTH",
"427 532 OFFCURVE",
"506 457 OFFCURVE",
"506 317 CURVE SMOOTH",
"506 226 OFFCURVE",
"478 145 OFFCURVE",
"431 85 CURVE SMOOTH",
"383 25 OFFCURVE",
"317 -12 OFFCURVE",
"238 -12 CURVE SMOOTH"
);
},
{
closed = 1;
nodes = (
"311 76 OFFCURVE",
"363 125 OFFCURVE",
"382 217 CURVE SMOOTH",
"399 300 LINE",
"402 311 OFFCURVE",
"403 324 OFFCURVE",
"403 339 CURVE SMOOTH",
"403 403 OFFCURVE",
"369 444 OFFCURVE",
"302 444 CURVE SMOOTH",
"237 444 OFFCURVE",
"185 395 OFFCURVE",
"166 303 CURVE SMOOTH",
"149 220 LINE",
"146 208 OFFCURVE",
"145 196 OFFCURVE",
"145 181 CURVE SMOOTH",
"145 117 OFFCURVE",
"179 76 OFFCURVE",
"246 76 CURVE SMOOTH"
);
}
);
width = 548;
}
);
leftKerningGroup = c;
rightKerningGroup = o;
unicode = 006F;
},
{
glyphname = p;
layers = (
{
layerId = "5E034FFB-2FEE-437B-B143-44B7444E4712";
name = "Regular Italic";
paths = (
{
closed = 1;
nodes = (
"131 520 LINE",
"235 520 LINE",
"212 404 LINE",
"216 404 LINE",
"259 489 OFFCURVE",
"305 532 OFFCURVE",
"385 532 CURVE SMOOTH",
"481 532 OFFCURVE",
"535 457 OFFCURVE",
"535 341 CURVE SMOOTH",
"535 250 OFFCURVE",
"512 161 OFFCURVE",
"469 96 CURVE SMOOTH",
"425 31 OFFCURVE",
"363 -12 OFFCURVE",
"286 -12 CURVE SMOOTH",
"218 -12 OFFCURVE",
"164 24 OFFCURVE",
"153 87 CURVE",
"148 87 LINE",
"91 -200 LINE",
"-13 -200 LINE"
);
},
{
closed = 1;
nodes = (
"343 77 OFFCURVE",
"389 125 OFFCURVE",
"408 217 CURVE SMOOTH",
"423 290 LINE SMOOTH",
"426 306 OFFCURVE",
"428 327 OFFCURVE",
"428 344 CURVE SMOOTH",
"428 403 OFFCURVE",
"400 443 OFFCURVE",
"343 443 CURVE SMOOTH",
"302 443 OFFCURVE",
"269 422 OFFCURVE",
"244 393 CURVE SMOOTH",
"216 361 OFFCURVE",
"196 325 OFFCURVE",
"187 278 CURVE SMOOTH",
"168 183 LINE SMOOTH",
"156 123 OFFCURVE",
"190 77 OFFCURVE",
"267 77 CURVE SMOOTH"
);
}
);
width = 577;
}
);
leftKerningGroup = p;
rightKerningGroup = b;
unicode = 0070;
},
{
glyphname = q;
layers = (
{
layerId = "5E034FFB-2FEE-437B-B143-44B7444E4712";
name = "Regular Italic";
paths = (
{
closed = 1;
nodes = (
"365 116 LINE",
"361 116 LINE",
"318 31 OFFCURVE",
"272 -12 OFFCURVE",
"192 -12 CURVE SMOOTH",
"96 -12 OFFCURVE",
"42 63 OFFCURVE",
"42 179 CURVE SMOOTH",
"42 270 OFFCURVE",
"65 359 OFFCURVE",
"109 424 CURVE SMOOTH",
"152 489 OFFCURVE",
"214 532 OFFCURVE",
"291 532 CURVE SMOOTH",
"359 532 OFFCURVE",
"413 494 OFFCURVE",
"424 433 CURVE",
"429 433 LINE",
"446 520 LINE",
"550 520 LINE",
"406 -200 LINE",
"302 -200 LINE"
);
},
{
closed = 1;
nodes = (
"275 77 OFFCURVE",
"306 98 OFFCURVE",
"333 127 CURVE SMOOTH",
"361 158 OFFCURVE",
"381 195 OFFCURVE",
"390 242 CURVE SMOOTH",
"409 337 LINE SMOOTH",
"421 397 OFFCURVE",
"388 443 OFFCURVE",
"309 443 CURVE SMOOTH",
"234 443 OFFCURVE",
"188 395 OFFCURVE",
"169 303 CURVE SMOOTH",
"154 230 LINE SMOOTH",
"151 214 OFFCURVE",
"149 193 OFFCURVE",
"149 176 CURVE SMOOTH",
"149 117 OFFCURVE",
"177 77 OFFCURVE",
"234 77 CURVE SMOOTH"
);
}
);
width = 576;
}
);
leftKerningGroup = c;
rightKerningGroup = j;
unicode = 0071;
},
{
glyphname = r;
layers = (
{
layerId = "5E034FFB-2FEE-437B-B143-44B7444E4712";
name = "Regular Italic";
paths = (
{
closed = 1;
nodes = (
"27 0 LINE",
"131 520 LINE",
"235 520 LINE",
"213 409 LINE",
"219 409 LINE",
"231 436 OFFCURVE",
"249 464 OFFCURVE",
"274 485 CURVE SMOOTH",
"299 505 OFFCURVE",
"332 520 OFFCURVE",
"373 520 CURVE SMOOTH",
"402 520 LINE",
"381 417 LINE",
"346 417 LINE SMOOTH",
"254 417 OFFCURVE",
"205 370 OFFCURVE",
"190 294 CURVE SMOOTH",
"131 0 LINE"
);
}
);
width = 377;
}
);
leftKerningGroup = m;
rightKerningGroup = r;
unicode = 0072;
},
{
glyphname = s;
layers = (
{
layerId = "5E034FFB-2FEE-437B-B143-44B7444E4712";
name = "Regular Italic";
paths = (
{
closed = 1;
nodes = (
"127 -12 OFFCURVE",
"52 21 OFFCURVE",
"9 81 CURVE",
"77 143 LINE",
"110 99 OFFCURVE",
"152 74 OFFCURVE",
"212 74 CURVE SMOOTH",
"279 74 OFFCURVE",
"317 106 OFFCURVE",
"317 155 CURVE SMOOTH",
"317 183 OFFCURVE",
"304 205 OFFCURVE",
"253 214 CURVE SMOOTH",
"208 222 LINE SMOOTH",
"124 237 OFFCURVE",
"69 274 OFFCURVE",
"69 358 CURVE SMOOTH",
"69 403 OFFCURVE",
"86 447 OFFCURVE",
"119 479 CURVE SMOOTH",
"152 511 OFFCURVE",
"203 532 OFFCURVE",
"271 532 CURVE SMOOTH",
"348 532 OFFCURVE",
"408 506 OFFCURVE",
"451 453 CURVE",
"383 391 LINE",
"359 423 OFFCURVE",
"321 446 OFFCURVE",
"265 446 CURVE SMOOTH",
"201 446 OFFCURVE",
"170 415 OFFCURVE",
"170 371 CURVE SMOOTH",
"170 342 OFFCURVE",
"185 321 OFFCURVE",
"234 312 CURVE SMOOTH",
"279 305 LINE SMOOTH",
"366 290 OFFCURVE",
"418 251 OFFCURVE",
"418 167 CURVE SMOOTH",
"418 115 OFFCURVE",
"398 71 OFFCURVE",
"362 39 CURVE SMOOTH",
"326 7 OFFCURVE",
"274 -12 OFFCURVE",
"210 -12 CURVE SMOOTH"
);
}
);
width = 482;
}
);
leftKerningGroup = s;
rightKerningGroup = s;
unicode = 0073;
},
{
glyphname = t;
layers = (
{
layerId = "5E034FFB-2FEE-437B-B143-44B7444E4712";
name = "Regular Italic";
paths = (
{
closed = 1;
nodes = (
"158 0 LINE SMOOTH",
"94 0 OFFCURVE",
"65 30 OFFCURVE",
"65 79 CURVE SMOOTH",
"65 90 OFFCURVE",
"66 105 OFFCURVE",
"69 117 CURVE",
"133 433 LINE",
"56 433 LINE",
"73 520 LINE",
"112 520 LINE SMOOTH",
"151 520 OFFCURVE",
"160 535 OFFCURVE",
"167 571 CURVE SMOOTH",
"185 662 LINE",
"282 662 LINE",
"254 520 LINE",
"358 520 LINE",
"341 433 LINE",
"236 433 LINE",
"168 87 LINE",
"268 87 LINE",
"251 0 LINE"
);
}
);
width = 333;
}
);
leftKerningGroup = t;
rightKerningGroup = t;
unicode = 0074;
},
{
glyphname = u;
lastChange = "2018-11-07 04:57:02 +0000";
layers = (
{
layerId = "5E034FFB-2FEE-437B-B143-44B7444E4712";
name = "Regular Italic";
paths = (
{
closed = 1;
nodes = (
"229 520 LINE",
"166 204 LINE SMOOTH",
"162 185 OFFCURVE",
"160 166 OFFCURVE",
"160 151 CURVE SMOOTH",
"160 104 OFFCURVE",
"178 78 OFFCURVE",
"225 78 CURVE SMOOTH",
"292 78 OFFCURVE",
"332 138 OFFCURVE",
"353 180 CURVE SMOOTH",
"363 201 OFFCURVE",
"370 221 OFFCURVE",
"374 242 CURVE SMOOTH",
"430 520 LINE",
"534 520 LINE",
"447 87 LINE",
"514 87 LINE",
"497 0 LINE",
"417 0 LINE SMOOTH",
"370 0 OFFCURVE",
"343 26 OFFCURVE",
"343 69 CURVE SMOOTH",
"343 78 OFFCURVE",
"344 88 OFFCURVE",
"346 99 CURVE SMOOTH",
"348 111 LINE",
"343 111 LINE",
"304 31 OFFCURVE",
"257 -12 OFFCURVE",
"182 -12 CURVE SMOOTH",
"97 -12 OFFCURVE",
"53 40 OFFCURVE",
"53 128 CURVE SMOOTH",
"53 151 OFFCURVE",
"56 172 OFFCURVE",
"61 199 CURVE SMOOTH",
"125 520 LINE"
);
}
);
width = 570;
}
);
leftKerningGroup = u;
rightKerningGroup = a;
unicode = 0075;
},
{
glyphname = v;
layers = (
{
layerId = "5E034FFB-2FEE-437B-B143-44B7444E4712";
name = "Regular Italic";
paths = (
{
closed = 1;
nodes = (
"131 0 LINE",
"58 520 LINE",
"160 520 LINE",
"189 289 LINE",
"208 95 LINE",
"213 95 LINE",
"304 289 LINE",
"423 520 LINE",
"534 520 LINE",
"255 0 LINE"
);
}
);
width = 496;
}
);
leftKerningGroup = v;
rightKerningGroup = v;
unicode = 0076;
},
{
glyphname = w;
layers = (
{
layerId = "5E034FFB-2FEE-437B-B143-44B7444E4712";
name = "Regular Italic";
paths = (
{
closed = 1;
nodes = (
"67 520 LINE",
"169 520 LINE",
"177 295 LINE",
"182 109 LINE",
"187 109 LINE",
"260 271 LINE",
"375 520 LINE",
"474 520 LINE",
"492 290 LINE",
"504 109 LINE",
"509 109 LINE",
"579 276 LINE",
"685 520 LINE",
"787 520 LINE",
"550 0 LINE",
"434 0 LINE",
"413 235 LINE",
"403 385 LINE",
"398 385 LINE",
"335 244 LINE",
"220 0 LINE",
"100 0 LINE"
);
}
);
width = 762;
}
);
leftKerningGroup = w;
rightKerningGroup = w;
unicode = 0077;
},
{
glyphname = x;
layers = (
{
layerId = "5E034FFB-2FEE-437B-B143-44B7444E4712";
name = "Regular Italic";
paths = (
{
closed = 1;
nodes = (
"-38 0 LINE",
"194 270 LINE",
"74 520 LINE",
"186 520 LINE",
"266 332 LINE",
"271 332 LINE",
"423 520 LINE",
"539 520 LINE",
"313 257 LINE",
"440 0 LINE",
"327 0 LINE",
"241 194 LINE",
"236 194 LINE",
"78 0 LINE"
);
}
);
width = 504;
}
);
leftKerningGroup = x;
rightKerningGroup = x;
unicode = 0078;
},
{
glyphname = y;
layers = (
{
layerId = "5E034FFB-2FEE-437B-B143-44B7444E4712";
name = "Regular Italic";
paths = (
{
closed = 1;
nodes = (
"425 520 LINE",
"536 520 LINE",
"198 -103 LINE SMOOTH",
"179 -138 OFFCURVE",
"163 -161 OFFCURVE",
"141 -177 CURVE SMOOTH",
"119 -193 OFFCURVE",
"91 -200 OFFCURVE",
"55 -200 CURVE SMOOTH",
"-24 -200 LINE",
"-7 -114 LINE",
"88 -114 LINE",
"137 -22 LINE",
"58 520 LINE",
"160 520 LINE",
"191 289 LINE",
"210 98 LINE",
"215 98 LINE",
"306 289 LINE"
);
}
);
width = 495;
}
);
leftKerningGroup = y;
rightKerningGroup = y;
unicode = 0079;
},
{
glyphname = z;
layers = (
{
layerId = "5E034FFB-2FEE-437B-B143-44B7444E4712";
name = "Regular Italic";
paths = (
{
closed = 1;
nodes = (
"-8 0 LINE",
"9 86 LINE",
"335 434 LINE",
"79 434 LINE",
"96 520 LINE",
"477 520 LINE",
"460 434 LINE",
"133 86 LINE",
"404 86 LINE",
"387 0 LINE"
);
}
);
width = 466;
}
);
leftKerningGroup = z;
rightKerningGroup = z;
unicode = 007A;
},
{
glyphname = A;
layers = (
{
layerId = "5E034FFB-2FEE-437B-B143-44B7444E4712";
name = "Regular Italic";
paths = (
{
closed = 1;
nodes = (
"455 0 LINE",
"433 189 LINE",
"183 189 LINE",
"86 0 LINE",
"-30 0 LINE",
"337 698 LINE",
"477 698 LINE",
"565 0 LINE"
);
},
{
closed = 1;
nodes = (
"391 598 LINE",
"384 598 LINE",
"228 283 LINE",
"424 283 LINE"
);
}
);
width = 638;
}
);
leftKerningGroup = A;
rightKerningGroup = A;
unicode = 0041;
},
{
glyphname = B;
layers = (
{
layerId = "5E034FFB-2FEE-437B-B143-44B7444E4712";
name = "Regular Italic";
paths = (
{
closed = 1;
nodes = (
"172 698 LINE",
"446 698 LINE SMOOTH",
"551 698 OFFCURVE",
"616 645 OFFCURVE",
"616 552 CURVE SMOOTH",
"616 508 OFFCURVE",
"604 467 OFFCURVE",
"581 434 CURVE SMOOTH",
"557 401 OFFCURVE",
"522 377 OFFCURVE",
"477 365 CURVE",
"476 360 LINE",
"544 343 OFFCURVE",
"578 300 OFFCURVE",
"578 231 CURVE SMOOTH",
"578 166 OFFCURVE",
"555 107 OFFCURVE",
"515 66 CURVE SMOOTH",
"474 25 OFFCURVE",
"416 0 OFFCURVE",
"345 0 CURVE SMOOTH",
"32 0 LINE"
);
},
{
closed = 1;
nodes = (
"344 95 LINE SMOOTH",
"404 95 OFFCURVE",
"444 123 OFFCURVE",
"457 186 CURVE SMOOTH",
"460 203 OFFCURVE",
"463 216 OFFCURVE",
"464 225 CURVE SMOOTH",
"465 233 OFFCURVE",
"466 239 OFFCURVE",
"466 244 CURVE SMOOTH",
"466 285 OFFCURVE",
"439 311 OFFCURVE",
"384 311 CURVE SMOOTH",
"202 311 LINE",
"159 95 LINE"
);
},
{
closed = 1;
nodes = (
"377 401 LINE SMOOTH",
"440 401 OFFCURVE",
"481 425 OFFCURVE",
"493 485 CURVE SMOOTH",
"496 501 OFFCURVE",
"499 513 OFFCURVE",
"500 521 CURVE SMOOTH",
"501 529 OFFCURVE",
"501 535 OFFCURVE",
"501 540 CURVE SMOOTH",
"501 579 OFFCURVE",
"476 603 OFFCURVE",
"427 603 CURVE SMOOTH",
"261 603 LINE",
"220 401 LINE"
);
}
);
width = 637;
}
);
unicode = 0042;
},
{
glyphname = C;
layers = (
{
layerId = "5E034FFB-2FEE-437B-B143-44B7444E4712";
name = "Regular Italic";
paths = (
{
closed = 1;
nodes = (
"226 -12 OFFCURVE",
"167 12 OFFCURVE",
"124 60 CURVE SMOOTH",
"81 107 OFFCURVE",
"56 177 OFFCURVE",
"56 269 CURVE SMOOTH",
"56 390 OFFCURVE",
"92 501 OFFCURVE",
"153 581 CURVE SMOOTH",
"213 661 OFFCURVE",
"300 710 OFFCURVE",
"401 710 CURVE SMOOTH",
"520 710 OFFCURVE",
"597 655 OFFCURVE",
"630 546 CURVE",
"533 504 LINE",
"513 572 OFFCURVE",
"473 613 OFFCURVE",
"392 613 CURVE SMOOTH",
"291 613 OFFCURVE",
"217 537 OFFCURVE",
"193 418 CURVE SMOOTH",
"170 305 LINE SMOOTH",
"165 282 OFFCURVE",
"164 263 OFFCURVE",
"164 246 CURVE SMOOTH",
"164 146 OFFCURVE",
"214 85 OFFCURVE",
"305 85 CURVE SMOOTH",
"349 85 OFFCURVE",
"383 97 OFFCURVE",
"411 118 CURVE SMOOTH",
"439 138 OFFCURVE",
"461 168 OFFCURVE",
"481 204 CURVE",
"571 161 LINE",
"510 42 OFFCURVE",
"421 -12 OFFCURVE",
"297 -12 CURVE SMOOTH"
);
}
);
width = 616;
}
);
leftKerningGroup = C;
rightKerningGroup = C;
unicode = 0043;
},
{
glyphname = D;
layers = (
{
layerId = "5E034FFB-2FEE-437B-B143-44B7444E4712";
name = "Regular Italic";
paths = (
{
closed = 1;
nodes = (
"172 698 LINE",
"385 698 LINE SMOOTH",
"541 698 OFFCURVE",
"636 607 OFFCURVE",
"636 431 CURVE SMOOTH",
"636 316 OFFCURVE",
"604 209 OFFCURVE",
"544 130 CURVE SMOOTH",
"484 50 OFFCURVE",
"394 0 OFFCURVE",
"281 0 CURVE SMOOTH",
"32 0 LINE"
);
},
{
closed = 1;
nodes = (
"287 97 LINE SMOOTH",
"395 97 OFFCURVE",
"472 163 OFFCURVE",
"499 292 CURVE SMOOTH",
"519 392 LINE SMOOTH",
"523 415 OFFCURVE",
"525 438 OFFCURVE",
"525 454 CURVE SMOOTH",
"525 554 OFFCURVE",
"471 601 OFFCURVE",
"387 601 CURVE SMOOTH",
"261 601 LINE",
"160 97 LINE"
);
}
);
width = 665;
}
);
rightKerningGroup = D;
unicode = 0044;
},
{
glyphname = E;
layers = (
{
layerId = "5E034FFB-2FEE-437B-B143-44B7444E4712";
name = "Regular Italic";
paths = (
{
closed = 1;
nodes = (
"32 0 LINE",
"172 698 LINE",
"599 698 LINE",
"579 602 LINE",
"261 602 LINE",
"221 400 LINE",
"505 400 LINE",
"486 304 LINE",
"202 304 LINE",
"160 96 LINE",
"492 96 LINE",
"473 0 LINE"
);
}
);
width = 571;
}
);
rightKerningGroup = E;
unicode = 0045;
},
{
glyphname = F;
layers = (
{
layerId = "5E034FFB-2FEE-437B-B143-44B7444E4712";
name = "Regular Italic";
paths = (
{
closed = 1;
nodes = (
"32 0 LINE",
"172 698 LINE",
"588 698 LINE",
"568 602 LINE",
"261 602 LINE",
"221 400 LINE",
"498 400 LINE",
"479 304 LINE",
"202 304 LINE",
"140 0 LINE"
);
}
);
width = 548;
}
);
rightKerningGroup = F;
unicode = 0046;
},
{
glyphname = G;
layers = (
{
layerId = "5E034FFB-2FEE-437B-B143-44B7444E4712";
name = "Regular Italic";
paths = (
{
closed = 1;
nodes = (
"483 106 LINE",
"477 106 LINE",
"445 41 OFFCURVE",
"380 -12 OFFCURVE",
"281 -12 CURVE SMOOTH",
"214 -12 OFFCURVE",
"159 12 OFFCURVE",
"119 59 CURVE SMOOTH",
"79 106 OFFCURVE",
"56 175 OFFCURVE",
"56 267 CURVE SMOOTH",
"56 388 OFFCURVE",
"90 499 OFFCURVE",
"151 580 CURVE SMOOTH",
"212 660 OFFCURVE",
"302 710 OFFCURVE",
"413 710 CURVE SMOOTH",
"536 710 OFFCURVE",
"625 651 OFFCURVE",
"656 548 CURVE",
"562 502 LINE",
"539 573 OFFCURVE",
"488 613 OFFCURVE",
"404 613 CURVE SMOOTH",
"291 613 OFFCURVE",
"216 537 OFFCURVE",
"192 413 CURVE SMOOTH",
"171 306 LINE SMOOTH",
"167 286 OFFCURVE",
"165 267 OFFCURVE",
"165 248 CURVE SMOOTH",
"165 143 OFFCURVE",
"222 85 OFFCURVE",
"310 85 CURVE SMOOTH",
"402 85 OFFCURVE",
"479 139 OFFCURVE",
"498 231 CURVE SMOOTH",
"507 277 LINE",
"368 277 LINE",
"387 371 LINE",
"630 371 LINE",
"556 0 LINE",
"461 0 LINE"
);
}
);
width = 678;
}
);
leftKerningGroup = C;
rightKerningGroup = G;
unicode = 0047;
},
{
glyphname = H;
layers = (
{
layerId = "5E034FFB-2FEE-437B-B143-44B7444E4712";
name = "Regular Italic";
paths = (
{
closed = 1;
nodes = (
"508 304 LINE",
"202 304 LINE",
"140 0 LINE",
"32 0 LINE",
"172 698 LINE",
"280 698 LINE",
"221 400 LINE",
"527 400 LINE",
"586 698 LINE",
"694 698 LINE",
"554 0 LINE",
"446 0 LINE"
);
}
);
width = 691;
}
);
unicode = 0048;
},
{
glyphname = I;
lastChange = "2018-11-04 06:45:02 +0000";
layers = (
{
layerId = "5E034FFB-2FEE-437B-B143-44B7444E4712";
name = "Regular Italic";
paths = (
{
closed = 1;
nodes = (
"172 698 LINE",
"280 698 LINE",
"140 0 LINE",
"32 0 LINE"
);
}
);
width = 276;
}
);
leftKerningGroup = I;
rightKerningGroup = I;
unicode = 0049;
},
{
glyphname = J;
lastChange = "2018-11-04 05:52:52 +0000";
layers = (
{
layerId = "5E034FFB-2FEE-437B-B143-44B7444E4712";
name = "Regular Italic";
paths = (
{
closed = 1;
nodes = (
"309 199 LINE SMOOTH",
"293 120 OFFCURVE",
"253 85 OFFCURVE",
"192 85 CURVE SMOOTH",
"134 85 OFFCURVE",
"109 126 OFFCURVE",
"105 185 CURVE",
"4 165 LINE",
"10 59 OFFCURVE",
"77 -12 OFFCURVE",
"190 -12 CURVE SMOOTH",
"313 -12 OFFCURVE",
"390 62 OFFCURVE",
"415 186 CURVE SMOOTH",
"518 698 LINE",
"408 698 LINE"
);
}
);
width = 514;
}
);
leftKerningGroup = J;
rightKerningGroup = J;
unicode = 004A;
},
{
glyphname = K;
layers = (
{
layerId = "5E034FFB-2FEE-437B-B143-44B7444E4712";
name = "Regular Italic";
paths = (
{
closed = 1;
nodes = (
"303 324 LINE",
"182 208 LINE",
"140 0 LINE",
"32 0 LINE",
"172 698 LINE",
"281 698 LINE",
"211 351 LINE",
"217 351 LINE",
"332 473 LINE",
"555 698 LINE",
"689 698 LINE",
"387 396 LINE",
"569 0 LINE",
"450 0 LINE"
);
}
);
width = 633;
}
);
rightKerningGroup = K;
unicode = 004B;
},
{
glyphname = L;
lastChange = "2018-11-04 06:43:06 +0000";
layers = (
{
layerId = "5E034FFB-2FEE-437B-B143-44B7444E4712";
name = "Regular Italic";
paths = (
{
closed = 1;
nodes = (
"32 0 LINE",
"172 698 LINE",
"281 698 LINE",
"160 96 LINE",
"434 96 LINE",
"415 0 LINE"
);
}
);
width = 498;
}
);
rightKerningGroup = L;
unicode = 004C;
},
{
glyphname = M;
layers = (
{
layerId = "5E034FFB-2FEE-437B-B143-44B7444E4712";
name = "Regular Italic";
paths = (
{
closed = 1;
nodes = (
"657 533 LINE",
"652 533 LINE",
"565 408 LINE",
"375 144 LINE",
"286 415 LINE",
"248 533 LINE",
"243 533 LINE",
"137 0 LINE",
"32 0 LINE",
"172 698 LINE",
"297 698 LINE",
"408 339 LINE",
"411 339 LINE",
"661 698 LINE",
"795 698 LINE",
"655 0 LINE",
"550 0 LINE"
);
}
);
width = 792;
}
);
unicode = 004D;
},
{
glyphname = N;
layers = (
{
layerId = "5E034FFB-2FEE-437B-B143-44B7444E4712";
name = "Regular Italic";
paths = (
{
closed = 1;
nodes = (
"298 385 LINE",
"249 540 LINE",
"243 540 LINE",
"135 0 LINE",
"32 0 LINE",
"172 698 LINE",
"292 698 LINE",
"428 313 LINE",
"477 158 LINE",
"483 158 LINE",
"591 698 LINE",
"694 698 LINE",
"554 0 LINE",
"434 0 LINE"
);
}
);
width = 691;
}
);
unicode = 004E;
},
{
glyphname = O;
layers = (
{
layerId = "5E034FFB-2FEE-437B-B143-44B7444E4712";
name = "Regular Italic";
paths = (
{
closed = 1;
nodes = (
"235 -12 OFFCURVE",
"173 11 OFFCURVE",
"129 57 CURVE SMOOTH",
"84 103 OFFCURVE",
"56 172 OFFCURVE",
"56 265 CURVE SMOOTH",
"56 382 OFFCURVE",
"91 494 OFFCURVE",
"153 576 CURVE SMOOTH",
"215 658 OFFCURVE",
"304 710 OFFCURVE",
"412 710 CURVE SMOOTH",
"480 710 OFFCURVE",
"543 688 OFFCURVE",
"588 642 CURVE SMOOTH",
"632 596 OFFCURVE",
"660 526 OFFCURVE",
"660 433 CURVE SMOOTH",
"660 316 OFFCURVE",
"625 205 OFFCURVE",
"563 123 CURVE SMOOTH",
"501 41 OFFCURVE",
"411 -12 OFFCURVE",
"303 -12 CURVE SMOOTH"
);
},
{
closed = 1;
nodes = (
"425 85 OFFCURVE",
"496 159 OFFCURVE",
"523 290 CURVE SMOOTH",
"545 396 LINE SMOOTH",
"550 419 OFFCURVE",
"551 441 OFFCURVE",
"551 458 CURVE SMOOTH",
"551 555 OFFCURVE",
"499 613 OFFCURVE",
"404 613 CURVE SMOOTH",
"293 613 OFFCURVE",
"219 538 OFFCURVE",
"192 406 CURVE SMOOTH",
"171 302 LINE SMOOTH",
"166 278 OFFCURVE",
"165 257 OFFCURVE",
"165 240 CURVE SMOOTH",
"165 143 OFFCURVE",
"217 85 OFFCURVE",
"313 85 CURVE SMOOTH"
);
}
);
width = 687;
}
);
leftKerningGroup = C;
rightKerningGroup = O;
unicode = 004F;
},
{
glyphname = P;
layers = (
{
layerId = "5E034FFB-2FEE-437B-B143-44B7444E4712";
name = "Regular Italic";
paths = (
{
closed = 1;
nodes = (
"32 0 LINE",
"172 698 LINE",
"427 698 LINE SMOOTH",
"558 698 OFFCURVE",
"620 629 OFFCURVE",
"620 522 CURVE SMOOTH",
"620 453 OFFCURVE",
"595 392 OFFCURVE",
"551 349 CURVE SMOOTH",
"507 305 OFFCURVE",
"445 279 OFFCURVE",
"370 279 CURVE SMOOTH",
"196 279 LINE",
"140 0 LINE"
);
},
{
closed = 1;
nodes = (
"216 375 LINE",
"385 375 LINE SMOOTH",
"442 375 OFFCURVE",
"481 405 OFFCURVE",
"496 465 CURVE SMOOTH",
"504 501 OFFCURVE",
"508 520 OFFCURVE",
"508 533 CURVE SMOOTH",
"508 573 OFFCURVE",
"486 602 OFFCURVE",
"426 602 CURVE SMOOTH",
"261 602 LINE"
);
}
);
width = 609;
}
);
rightKerningGroup = P;
unicode = 0050;
},
{
glyphname = Q;
layers = (
{
layerId = "5E034FFB-2FEE-437B-B143-44B7444E4712";
name = "Regular Italic";
paths = (
{
closed = 1;
nodes = (
"414 -173 LINE",
"317 -173 LINE SMOOTH",
"252 -173 OFFCURVE",
"228 -144 OFFCURVE",
"228 -99 CURVE SMOOTH",
"228 -87 OFFCURVE",
"230 -75 OFFCURVE",
"233 -62 CURVE SMOOTH",
"244 -6 LINE",
"189 6 OFFCURVE",
"144 34 OFFCURVE",
"110 79 CURVE SMOOTH",
"76 123 OFFCURVE",
"56 185 OFFCURVE",
"56 265 CURVE SMOOTH",
"56 382 OFFCURVE",
"91 494 OFFCURVE",
"153 576 CURVE SMOOTH",
"215 658 OFFCURVE",
"304 710 OFFCURVE",
"412 710 CURVE SMOOTH",
"480 710 OFFCURVE",
"543 688 OFFCURVE",
"588 642 CURVE SMOOTH",
"632 596 OFFCURVE",
"660 526 OFFCURVE",
"660 433 CURVE SMOOTH",
"660 322 OFFCURVE",
"629 218 OFFCURVE",
"574 138 CURVE SMOOTH",
"518 58 OFFCURVE",
"438 2 OFFCURVE",
"341 -10 CURVE",
"327 -80 LINE",
"433 -80 LINE"
);
},
{
closed = 1;
nodes = (
"425 85 OFFCURVE",
"496 159 OFFCURVE",
"523 290 CURVE SMOOTH",
"545 396 LINE SMOOTH",
"550 419 OFFCURVE",
"551 441 OFFCURVE",
"551 458 CURVE SMOOTH",
"551 555 OFFCURVE",
"499 613 OFFCURVE",
"404 613 CURVE SMOOTH",
"293 613 OFFCURVE",
"219 538 OFFCURVE",
"192 406 CURVE SMOOTH",
"171 302 LINE SMOOTH",
"166 278 OFFCURVE",
"165 257 OFFCURVE",
"165 240 CURVE SMOOTH",
"165 143 OFFCURVE",
"217 85 OFFCURVE",
"313 85 CURVE SMOOTH"
);
}
);
width = 687;
}
);
leftKerningGroup = C;
rightKerningGroup = O;
unicode = 0051;
},
{
glyphname = R;
layers = (
{
layerId = "5E034FFB-2FEE-437B-B143-44B7444E4712";
name = "Regular Italic";
paths = (
{
closed = 1;
nodes = (
"140 0 LINE",
"32 0 LINE",
"172 698 LINE",
"431 698 LINE SMOOTH",
"559 698 OFFCURVE",
"620 629 OFFCURVE",
"620 525 CURVE SMOOTH",
"620 472 OFFCURVE",
"604 422 OFFCURVE",
"573 382 CURVE SMOOTH",
"542 341 OFFCURVE",
"498 309 OFFCURVE",
"442 296 CURVE",
"536 0 LINE",
"420 0 LINE",
"336 283 LINE",
"197 283 LINE"
);
},
{
closed = 1;
nodes = (
"385 375 LINE SMOOTH",
"442 375 OFFCURVE",
"481 405 OFFCURVE",
"496 465 CURVE SMOOTH",
"504 501 OFFCURVE",
"508 520 OFFCURVE",
"508 533 CURVE SMOOTH",
"508 573 OFFCURVE",
"486 602 OFFCURVE",
"426 602 CURVE SMOOTH",
"261 602 LINE",
"216 375 LINE"
);
}
);
width = 638;
}
);
rightKerningGroup = R;
unicode = 0052;
},
{
glyphname = S;
layers = (
{
layerId = "5E034FFB-2FEE-437B-B143-44B7444E4712";
name = "Regular Italic";
paths = (
{
closed = 1;
nodes = (
"143 -12 OFFCURVE",
"51 24 OFFCURVE",
"4 113 CURVE",
"87 176 LINE",
"126 112 OFFCURVE",
"179 85 OFFCURVE",
"252 85 CURVE SMOOTH",
"356 85 OFFCURVE",
"412 141 OFFCURVE",
"412 213 CURVE SMOOTH",
"412 265 OFFCURVE",
"380 294 OFFCURVE",
"317 307 CURVE SMOOTH",
"259 318 LINE SMOOTH",
"159 339 OFFCURVE",
"100 396 OFFCURVE",
"100 496 CURVE SMOOTH",
"100 556 OFFCURVE",
"124 609 OFFCURVE",
"168 648 CURVE SMOOTH",
"211 687 OFFCURVE",
"274 710 OFFCURVE",
"353 710 CURVE SMOOTH",
"460 710 OFFCURVE",
"537 671 OFFCURVE",
"584 607 CURVE",
"506 538 LINE",
"470 587 OFFCURVE",
"424 613 OFFCURVE",
"348 613 CURVE SMOOTH",
"263 613 OFFCURVE",
"209 573 OFFCURVE",
"209 505 CURVE SMOOTH",
"209 453 OFFCURVE",
"239 426 OFFCURVE",
"302 413 CURVE SMOOTH",
"359 402 LINE SMOOTH",
"462 381 OFFCURVE",
"523 323 OFFCURVE",
"523 222 CURVE SMOOTH",
"523 161 OFFCURVE",
"499 102 OFFCURVE",
"452 59 CURVE SMOOTH",
"405 16 OFFCURVE",
"338 -12 OFFCURVE",
"251 -12 CURVE SMOOTH"
);
}
);
width = 580;
}
);
leftKerningGroup = S;
rightKerningGroup = S;
unicode = 0053;
},
{
glyphname = T;
layers = (
{
layerId = "5E034FFB-2FEE-437B-B143-44B7444E4712";
name = "Regular Italic";
paths = (
{
closed = 1;
nodes = (
"403 602 LINE",
"282 0 LINE",
"174 0 LINE",
"294 602 LINE",
"94 602 LINE",
"113 698 LINE",
"622 698 LINE",
"603 602 LINE"
);
}
);
width = 561;
}
);
leftKerningGroup = T;
rightKerningGroup = T;
unicode = 0054;
},
{
glyphname = U;
layers = (
{
layerId = "5E034FFB-2FEE-437B-B143-44B7444E4712";
name = "Regular Italic";
paths = (
{
closed = 1;
nodes = (
"276 698 LINE",
"192 275 LINE SMOOTH",
"187 250 OFFCURVE",
"183 228 OFFCURVE",
"183 207 CURVE SMOOTH",
"183 131 OFFCURVE",
"225 88 OFFCURVE",
"300 88 CURVE SMOOTH",
"397 88 OFFCURVE",
"452 142 OFFCURVE",
"479 278 CURVE SMOOTH",
"563 698 LINE",
"671 698 LINE",
"587 277 LINE SMOOTH",
"566 173 OFFCURVE",
"535 102 OFFCURVE",
"488 55 CURVE SMOOTH",
"440 8 OFFCURVE",
"376 -12 OFFCURVE",
"292 -12 CURVE SMOOTH",
"155 -12 OFFCURVE",
"78 63 OFFCURVE",
"78 200 CURVE SMOOTH",
"78 229 OFFCURVE",
"80 259 OFFCURVE",
"88 298 CURVE SMOOTH",
"168 698 LINE"
);
}
);
width = 665;
}
);
leftKerningGroup = U;
rightKerningGroup = U;
unicode = 0055;
},
{
glyphname = V;
layers = (
{
layerId = "5E034FFB-2FEE-437B-B143-44B7444E4712";
name = "Regular Italic";
paths = (
{
closed = 1;
nodes = (
"188 0 LINE",
"106 698 LINE",
"215 698 LINE",
"247 383 LINE",
"270 114 LINE",
"275 114 LINE",
"399 372 LINE",
"565 698 LINE",
"680 698 LINE",
"316 0 LINE"
);
}
);
width = 609;
}
);
leftKerningGroup = V;
rightKerningGroup = V;
unicode = 0056;
},
{
glyphname = W;
layers = (
{
layerId = "5E034FFB-2FEE-437B-B143-44B7444E4712";
name = "Regular Italic";
paths = (
{
closed = 1;
nodes = (
"131 0 LINE",
"109 698 LINE",
"216 698 LINE",
"219 376 LINE",
"218 119 LINE",
"225 119 LINE",
"345 410 LINE",
"471 698 LINE",
"594 698 LINE",
"605 409 LINE",
"610 116 LINE",
"617 116 LINE",
"715 364 LINE",
"851 698 LINE",
"961 698 LINE",
"658 0 LINE",
"533 0 LINE",
"519 335 LINE",
"513 576 LINE",
"507 576 LINE",
"406 341 LINE",
"258 0 LINE"
);
}
);
width = 896;
}
);
leftKerningGroup = W;
rightKerningGroup = W;
unicode = 0057;
},
{
glyphname = X;
layers = (
{
layerId = "5E034FFB-2FEE-437B-B143-44B7444E4712";
name = "Regular Italic";
paths = (
{
closed = 1;
nodes = (
"536 0 LINE",
"420 0 LINE",
"309 268 LINE",
"303 268 LINE",
"95 0 LINE",
"-31 0 LINE",
"258 363 LINE",
"114 698 LINE",
"229 698 LINE",
"338 435 LINE",
"344 435 LINE",
"551 698 LINE",
"676 698 LINE",
"386 345 LINE"
);
}
);
width = 615;
}
);
leftKerningGroup = X;
rightKerningGroup = X;
unicode = 0058;
},
{
glyphname = Y;
layers = (
{
layerId = "5E034FFB-2FEE-437B-B143-44B7444E4712";
name = "Regular Italic";
paths = (
{
closed = 1;
nodes = (
"191 0 LINE",
"246 272 LINE",
"99 698 LINE",
"209 698 LINE",
"316 377 LINE",
"321 377 LINE",
"550 698 LINE",
"672 698 LINE",
"353 267 LINE",
"299 0 LINE"
);
}
);
width = 597;
}
);
leftKerningGroup = Y;
rightKerningGroup = Y;
unicode = 0059;
},
{
glyphname = Z;
layers = (
{
layerId = "5E034FFB-2FEE-437B-B143-44B7444E4712";
name = "Regular Italic";
paths = (
{
closed = 1;
nodes = (
"478 0 LINE",
"-13 0 LINE",
"7 99 LINE",
"463 602 LINE",
"119 602 LINE",
"138 698 LINE",
"611 698 LINE",
"591 599 LINE",
"135 96 LINE",
"497 96 LINE"
);
}
);
width = 566;
}
);
leftKerningGroup = Z;
rightKerningGroup = Z;
unicode = 005A;
},
{
glyphname = zero;
layers = (
{
layerId = "5E034FFB-2FEE-437B-B143-44B7444E4712";
name = "Regular Italic";
paths = (
{
closed = 1;
nodes = (
"185 -12 OFFCURVE",
"135 17 OFFCURVE",
"104 62 CURVE SMOOTH",
"72 107 OFFCURVE",
"59 168 OFFCURVE",
"59 235 CURVE SMOOTH",
"59 347 OFFCURVE",
"85 465 OFFCURVE",
"137 557 CURVE SMOOTH",
"188 648 OFFCURVE",
"266 710 OFFCURVE",
"370 710 CURVE SMOOTH",
"443 710 OFFCURVE",
"493 681 OFFCURVE",
"525 636 CURVE SMOOTH",
"556 591 OFFCURVE",
"569 528 OFFCURVE",
"569 463 CURVE SMOOTH",
"569 351 OFFCURVE",
"543 233 OFFCURVE",
"491 142 CURVE SMOOTH",
"439 50 OFFCURVE",
"362 -12 OFFCURVE",
"258 -12 CURVE SMOOTH"
);
},
{
closed = 1;
nodes = (
"313 80 OFFCURVE",
"347 101 OFFCURVE",
"374 138 CURVE SMOOTH",
"401 174 OFFCURVE",
"419 227 OFFCURVE",
"431 288 CURVE SMOOTH",
"454 401 LINE",
"461 430 OFFCURVE",
"462 457 OFFCURVE",
"462 484 CURVE SMOOTH",
"462 567 OFFCURVE",
"430 618 OFFCURVE",
"358 618 CURVE SMOOTH",
"314 618 OFFCURVE",
"280 597 OFFCURVE",
"254 561 CURVE SMOOTH",
"228 524 OFFCURVE",
"209 471 OFFCURVE",
"197 410 CURVE SMOOTH",
"174 297 LINE",
"167 268 OFFCURVE",
"166 241 OFFCURVE",
"166 214 CURVE SMOOTH",
"166 131 OFFCURVE",
"197 80 OFFCURVE",
"269 80 CURVE SMOOTH"
);
}
);
width = 600;
}
);
unicode = 0030;
},
{
glyphname = one;
lastChange = "2018-11-05 15:55:03 +0000";
layers = (
{
layerId = "5E034FFB-2FEE-437B-B143-44B7444E4712";
name = "Regular Italic";
paths = (
{
closed = 1;
nodes = (
"135 612 LINE",
"113 502 LINE",
"281 592 LINE",
"161 0 LINE",
"268 0 LINE",
"408 698 LINE",
"290 698 LINE"
);
}
);
width = 450;
}
);
unicode = 0031;
},
{
glyphname = two;
layers = (
{
layerId = "5E034FFB-2FEE-437B-B143-44B7444E4712";
name = "Regular Italic";
paths = (
{
closed = 1;
nodes = (
"478 0 LINE",
"25 0 LINE",
"47 109 LINE",
"302 307 LINE SMOOTH",
"389 374 OFFCURVE",
"427 432 OFFCURVE",
"438 483 CURVE",
"441 494 OFFCURVE",
"442 510 OFFCURVE",
"442 522 CURVE SMOOTH",
"442 543 OFFCURVE",
"435 567 OFFCURVE",
"420 585 CURVE SMOOTH",
"405 603 OFFCURVE",
"382 614 OFFCURVE",
"349 614 CURVE SMOOTH",
"278 614 OFFCURVE",
"236 570 OFFCURVE",
"208 502 CURVE",
"115 541 LINE",
"138 590 OFFCURVE",
"168 634 OFFCURVE",
"208 663 CURVE SMOOTH",
"247 692 OFFCURVE",
"295 710 OFFCURVE",
"358 710 CURVE SMOOTH",
"419 710 OFFCURVE",
"470 691 OFFCURVE",
"505 659 CURVE SMOOTH",
"540 626 OFFCURVE",
"559 580 OFFCURVE",
"559 528 CURVE SMOOTH",
"559 468 OFFCURVE",
"539 419 OFFCURVE",
"504 373 CURVE SMOOTH",
"468 327 OFFCURVE",
"418 283 OFFCURVE",
"355 236 CURVE SMOOTH",
"166 94 LINE",
"497 94 LINE"
);
}
);
width = 600;
}
);
unicode = 0032;
},
{
glyphname = three;
layers = (
{
layerId = "5E034FFB-2FEE-437B-B143-44B7444E4712";
name = "Regular Italic";
paths = (
{
closed = 1;
nodes = (
"299 410 LINE SMOOTH",
"376 410 OFFCURVE",
"420 443 OFFCURVE",
"433 509 CURVE SMOOTH",
"435 519 OFFCURVE",
"436 528 OFFCURVE",
"436 535 CURVE SMOOTH",
"436 588 OFFCURVE",
"401 617 OFFCURVE",
"341 617 CURVE SMOOTH",
"281 617 OFFCURVE",
"234 593 OFFCURVE",
"194 532 CURVE",
"128 599 LINE",
"180 663 OFFCURVE",
"247 710 OFFCURVE",
"358 710 CURVE SMOOTH",
"415 710 OFFCURVE",
"464 694 OFFCURVE",
"499 666 CURVE SMOOTH",
"534 638 OFFCURVE",
"553 598 OFFCURVE",
"553 551 CURVE SMOOTH",
"553 503 OFFCURVE",
"536 462 OFFCURVE",
"508 431 CURVE SMOOTH",
"479 399 OFFCURVE",
"438 377 OFFCURVE",
"393 368 CURVE",
"392 363 LINE",
"460 351 OFFCURVE",
"506 298 OFFCURVE",
"506 218 CURVE SMOOTH",
"506 151 OFFCURVE",
"482 94 OFFCURVE",
"437 53 CURVE SMOOTH",
"392 12 OFFCURVE",
"326 -12 OFFCURVE",
"245 -12 CURVE SMOOTH",
"184 -12 OFFCURVE",
"136 3 OFFCURVE",
"101 27 CURVE SMOOTH",
"65 50 OFFCURVE",
"41 82 OFFCURVE",
"28 115 CURVE",
"111 173 LINE",
"132 117 OFFCURVE",
"170 81 OFFCURVE",
"253 81 CURVE SMOOTH",
"337 81 OFFCURVE",
"376 120 OFFCURVE",
"391 193 CURVE",
"394 204 OFFCURVE",
"395 214 OFFCURVE",
"395 225 CURVE SMOOTH",
"395 281 OFFCURVE",
"357 316 OFFCURVE",
"285 316 CURVE SMOOTH",
"212 316 LINE",
"231 410 LINE"
);
}
);
width = 600;
}
);
unicode = 0033;
},
{
glyphname = four;
layers = (
{
layerId = "5E034FFB-2FEE-437B-B143-44B7444E4712";
name = "Regular Italic";
paths = (
{
closed = 1;
nodes = (
"307 0 LINE",
"334 136 LINE",
"23 136 LINE",
"43 235 LINE",
"409 698 LINE",
"549 698 LINE",
"454 224 LINE",
"546 224 LINE",
"528 136 LINE",
"436 136 LINE",
"409 0 LINE"
);
},
{
closed = 1;
nodes = (
"135 224 LINE",
"352 224 LINE",
"423 579 LINE",
"416 579 LINE"
);
}
);
width = 600;
}
);
unicode = 0034;
},
{
glyphname = five;
layers = (
{
layerId = "5E034FFB-2FEE-437B-B143-44B7444E4712";
name = "Regular Italic";
paths = (
{
closed = 1;
nodes = (
"560 602 LINE",
"261 602 LINE",
"198 349 LINE",
"206 349 LINE",
"242 413 OFFCURVE",
"281 444 OFFCURVE",
"358 444 CURVE SMOOTH",
"409 444 OFFCURVE",
"452 427 OFFCURVE",
"483 396 CURVE SMOOTH",
"514 364 OFFCURVE",
"532 318 OFFCURVE",
"532 259 CURVE SMOOTH",
"532 187 OFFCURVE",
"507 118 OFFCURVE",
"461 69 CURVE SMOOTH",
"415 20 OFFCURVE",
"345 -12 OFFCURVE",
"260 -12 CURVE SMOOTH",
"196 -12 OFFCURVE",
"149 3 OFFCURVE",
"114 27 CURVE SMOOTH",
"78 51 OFFCURVE",
"54 83 OFFCURVE",
"41 116 CURVE",
"129 174 LINE",
"149 118 OFFCURVE",
"188 82 OFFCURVE",
"268 82 CURVE SMOOTH",
"348 82 OFFCURVE",
"396 127 OFFCURVE",
"412 210 CURVE SMOOTH",
"415 225 OFFCURVE",
"418 240 OFFCURVE",
"418 255 CURVE SMOOTH",
"418 315 OFFCURVE",
"384 352 OFFCURVE",
"313 352 CURVE SMOOTH",
"257 352 OFFCURVE",
"218 325 OFFCURVE",
"187 292 CURVE",
"100 305 LINE",
"198 698 LINE",
"579 698 LINE"
);
}
);
width = 600;
}
);
unicode = 0035;
},
{
glyphname = six;
layers = (
{
layerId = "5E034FFB-2FEE-437B-B143-44B7444E4712";
name = "Regular Italic";
paths = (
{
closed = 1;
nodes = (
"133 -12 OFFCURVE",
"59 71 OFFCURVE",
"59 211 CURVE SMOOTH",
"59 311 OFFCURVE",
"99 410 OFFCURVE",
"160 495 CURVE SMOOTH",
"221 580 OFFCURVE",
"302 651 OFFCURVE",
"386 698 CURVE",
"539 698 LINE",
"364 590 OFFCURVE",
"236 480 OFFCURVE",
"191 341 CURVE",
"197 339 LINE",
"237 403 OFFCURVE",
"283 442 OFFCURVE",
"356 442 CURVE SMOOTH",
"409 442 OFFCURVE",
"452 423 OFFCURVE",
"483 390 CURVE SMOOTH",
"514 357 OFFCURVE",
"531 308 OFFCURVE",
"531 251 CURVE SMOOTH",
"531 178 OFFCURVE",
"505 112 OFFCURVE",
"459 65 CURVE SMOOTH",
"413 17 OFFCURVE",
"346 -12 OFFCURVE",
"266 -12 CURVE SMOOTH"
);
},
{
closed = 1;
nodes = (
"352 79 OFFCURVE",
"400 128 OFFCURVE",
"416 204 CURVE",
"419 216 OFFCURVE",
"420 230 OFFCURVE",
"420 243 CURVE SMOOTH",
"420 312 OFFCURVE",
"383 352 OFFCURVE",
"312 352 CURVE SMOOTH",
"232 352 OFFCURVE",
"185 303 OFFCURVE",
"169 227 CURVE",
"166 215 OFFCURVE",
"165 201 OFFCURVE",
"165 188 CURVE SMOOTH",
"165 119 OFFCURVE",
"202 79 OFFCURVE",
"273 79 CURVE SMOOTH"
);
}
);
width = 600;
}
);
unicode = 0036;
},
{
glyphname = seven;
lastChange = "2018-11-05 15:54:50 +0000";
layers = (
{
layerId = "5E034FFB-2FEE-437B-B143-44B7444E4712";
name = "Regular Italic";
paths = (
{
closed = 1;
nodes = (
"137 606 LINE",
"485 606 LINE",
"121 0 LINE",
"236 0 LINE",
"593 599 LINE",
"613 698 LINE",
"155 698 LINE"
);
}
);
width = 600;
}
);
unicode = 0037;
},
{
glyphname = eight;
layers = (
{
layerId = "5E034FFB-2FEE-437B-B143-44B7444E4712";
name = "Regular Italic";
paths = (
{
closed = 1;
nodes = (
"190 -12 OFFCURVE",
"136 7 OFFCURVE",
"100 39 CURVE SMOOTH",
"63 71 OFFCURVE",
"44 116 OFFCURVE",
"44 168 CURVE SMOOTH",
"44 216 OFFCURVE",
"60 260 OFFCURVE",
"89 295 CURVE SMOOTH",
"118 330 OFFCURVE",
"161 355 OFFCURVE",
"216 364 CURVE",
"218 371 LINE",
"159 394 OFFCURVE",
"130 438 OFFCURVE",
"130 505 CURVE SMOOTH",
"130 561 OFFCURVE",
"153 612 OFFCURVE",
"195 649 CURVE SMOOTH",
"237 686 OFFCURVE",
"297 710 OFFCURVE",
"374 710 CURVE SMOOTH",
"501 710 OFFCURVE",
"569 646 OFFCURVE",
"569 551 CURVE SMOOTH",
"569 510 OFFCURVE",
"555 471 OFFCURVE",
"530 439 CURVE SMOOTH",
"505 407 OFFCURVE",
"467 381 OFFCURVE",
"422 368 CURVE",
"421 360 LINE",
"488 343 OFFCURVE",
"526 292 OFFCURVE",
"526 217 CURVE SMOOTH",
"526 153 OFFCURVE",
"501 95 OFFCURVE",
"456 55 CURVE SMOOTH",
"411 14 OFFCURVE",
"345 -12 OFFCURVE",
"261 -12 CURVE SMOOTH"
);
},
{
closed = 1;
nodes = (
"345 77 OFFCURVE",
"396 115 OFFCURVE",
"411 187 CURVE SMOOTH",
"414 202 OFFCURVE",
"415 210 OFFCURVE",
"415 226 CURVE SMOOTH",
"415 285 OFFCURVE",
"375 320 OFFCURVE",
"302 320 CURVE SMOOTH",
"225 320 OFFCURVE",
"174 280 OFFCURVE",
"159 209 CURVE SMOOTH",
"156 194 OFFCURVE",
"155 185 OFFCURVE",
"155 170 CURVE SMOOTH",
"155 110 OFFCURVE",
"195 77 OFFCURVE",
"268 77 CURVE SMOOTH"
);
},
{
closed = 1;
nodes = (
"402 404 OFFCURVE",
"443 440 OFFCURVE",
"458 503 CURVE SMOOTH",
"461 515 OFFCURVE",
"462 526 OFFCURVE",
"462 537 CURVE SMOOTH",
"462 589 OFFCURVE",
"427 621 OFFCURVE",
"360 621 CURVE SMOOTH",
"288 621 OFFCURVE",
"248 586 OFFCURVE",
"233 523 CURVE SMOOTH",
"230 511 OFFCURVE",
"229 500 OFFCURVE",
"229 489 CURVE SMOOTH",
"229 437 OFFCURVE",
"264 404 OFFCURVE",
"331 404 CURVE SMOOTH"
);
}
);
width = 600;
}
);
unicode = 0038;
},
{
glyphname = nine;
layers = (
{
layerId = "5E034FFB-2FEE-437B-B143-44B7444E4712";
name = "Regular Italic";
paths = (
{
closed = 1;
nodes = (
"573 387 OFFCURVE",
"533 288 OFFCURVE",
"472 203 CURVE SMOOTH",
"411 118 OFFCURVE",
"330 47 OFFCURVE",
"246 0 CURVE",
"93 0 LINE",
"181 53 OFFCURVE",
"256 108 OFFCURVE",
"316 167 CURVE SMOOTH",
"375 226 OFFCURVE",
"418 288 OFFCURVE",
"441 357 CURVE",
"435 359 LINE",
"395 295 OFFCURVE",
"349 256 OFFCURVE",
"277 256 CURVE SMOOTH",
"169 256 OFFCURVE",
"101 330 OFFCURVE",
"101 447 CURVE SMOOTH",
"101 520 OFFCURVE",
"127 586 OFFCURVE",
"174 634 CURVE SMOOTH",
"221 681 OFFCURVE",
"286 710 OFFCURVE",
"366 710 CURVE SMOOTH",
"499 710 OFFCURVE",
"573 627 OFFCURVE",
"573 487 CURVE SMOOTH"
);
},
{
closed = 1;
nodes = (
"400 346 OFFCURVE",
"447 395 OFFCURVE",
"463 471 CURVE",
"466 483 OFFCURVE",
"467 497 OFFCURVE",
"467 510 CURVE SMOOTH",
"467 579 OFFCURVE",
"430 619 OFFCURVE",
"359 619 CURVE SMOOTH",
"280 619 OFFCURVE",
"231 570 OFFCURVE",
"216 494 CURVE",
"213 482 OFFCURVE",
"212 468 OFFCURVE",
"212 455 CURVE SMOOTH",
"212 386 OFFCURVE",
"249 346 OFFCURVE",
"320 346 CURVE SMOOTH"
);
}
);
width = 600;
}
);
unicode = 0039;
},
{
glyphname = ampersand;
layers = (
{
layerId = "5E034FFB-2FEE-437B-B143-44B7444E4712";
name = "Regular Italic";
paths = (
{
closed = 1;
nodes = (
"434 73 LINE",
"379 22 OFFCURVE",
"311 -12 OFFCURVE",
"223 -12 CURVE SMOOTH",
"99 -12 OFFCURVE",
"34 57 OFFCURVE",
"34 154 CURVE SMOOTH",
"34 213 OFFCURVE",
"56 256 OFFCURVE",
"89 292 CURVE SMOOTH",
"121 328 OFFCURVE",
"167 355 OFFCURVE",
"215 379 CURVE",
"190 415 OFFCURVE",
"165 459 OFFCURVE",
"165 514 CURVE SMOOTH",
"165 567 OFFCURVE",
"186 616 OFFCURVE",
"223 652 CURVE SMOOTH",
"259 688 OFFCURVE",
"311 710 OFFCURVE",
"374 710 CURVE SMOOTH",
"418 710 OFFCURVE",
"458 699 OFFCURVE",
"487 676 CURVE SMOOTH",
"516 652 OFFCURVE",
"535 618 OFFCURVE",
"535 571 CURVE SMOOTH",
"535 520 OFFCURVE",
"512 481 OFFCURVE",
"477 447 CURVE SMOOTH",
"442 413 OFFCURVE",
"396 386 OFFCURVE",
"349 362 CURVE",
"451 219 LINE",
"476 266 OFFCURVE",
"495 319 OFFCURVE",
"507 375 CURVE",
"657 375 LINE",
"639 285 LINE",
"566 285 LINE",
"550 236 OFFCURVE",
"529 187 OFFCURVE",
"502 147 CURVE",
"607 0 LINE",
"486 0 LINE"
);
},
{
closed = 1;
nodes = (
"314 625 OFFCURVE",
"281 593 OFFCURVE",
"270 548 CURVE SMOOTH",
"268 539 OFFCURVE",
"267 529 OFFCURVE",
"267 519 CURVE SMOOTH",
"267 490 OFFCURVE",
"277 464 OFFCURVE",
"305 423 CURVE",
"378 459 OFFCURVE",
"431 495 OFFCURVE",
"431 558 CURVE SMOOTH",
"431 601 OFFCURVE",
"402 625 OFFCURVE",
"361 625 CURVE SMOOTH"
);
},
{
closed = 1;
nodes = (
"304 78 OFFCURVE",
"350 100 OFFCURVE",
"389 136 CURVE",
"258 318 LINE",
"199 289 OFFCURVE",
"158 260 OFFCURVE",
"143 200 CURVE SMOOTH",
"141 191 OFFCURVE",
"140 181 OFFCURVE",
"140 171 CURVE SMOOTH",
"140 111 OFFCURVE",
"178 78 OFFCURVE",
"247 78 CURVE SMOOTH"
);
}
);
width = 685;
}
);
leftKerningGroup = ampersand;
rightKerningGroup = ampersand;
unicode = 0026;
},
{
glyphname = at;
layers = (
{
layerId = "5E034FFB-2FEE-437B-B143-44B7444E4712";
name = "Regular Italic";
paths = (
{
closed = 1;
nodes = (
"370 -121 LINE SMOOTH",
"273 -121 OFFCURVE",
"195 -90 OFFCURVE",
"143 -34 CURVE SMOOTH",
"90 22 OFFCURVE",
"62 102 OFFCURVE",
"62 201 CURVE SMOOTH",
"62 232 OFFCURVE",
"65 268 OFFCURVE",
"73 311 CURVE SMOOTH",
"97 427 OFFCURVE",
"151 525 OFFCURVE",
"228 596 CURVE SMOOTH",
"304 667 OFFCURVE",
"403 708 OFFCURVE",
"518 708 CURVE SMOOTH",
"610 708 OFFCURVE",
"688 678 OFFCURVE",
"744 626 CURVE SMOOTH",
"800 573 OFFCURVE",
"832 495 OFFCURVE",
"832 402 CURVE SMOOTH",
"832 379 OFFCURVE",
"830 350 OFFCURVE",
"823 317 CURVE SMOOTH",
"808 249 OFFCURVE",
"784 188 OFFCURVE",
"748 145 CURVE SMOOTH",
"712 101 OFFCURVE",
"666 74 OFFCURVE",
"609 74 CURVE SMOOTH",
"544 74 OFFCURVE",
"510 105 OFFCURVE",
"510 161 CURVE SMOOTH",
"510 173 LINE",
"506 173 LINE",
"486 118 OFFCURVE",
"438 74 OFFCURVE",
"377 74 CURVE SMOOTH",
"301 74 OFFCURVE",
"247 126 OFFCURVE",
"247 230 CURVE SMOOTH",
"247 249 OFFCURVE",
"248 272 OFFCURVE",
"255 301 CURVE",
"282 434 OFFCURVE",
"352 504 OFFCURVE",
"444 504 CURVE SMOOTH",
"504 504 OFFCURVE",
"536 476 OFFCURVE",
"548 425 CURVE",
"552 425 LINE",
"566 495 LINE",
"653 495 LINE",
"596 211 LINE",
"593 200 OFFCURVE",
"592 189 OFFCURVE",
"592 178 CURVE SMOOTH",
"592 155 OFFCURVE",
"603 144 OFFCURVE",
"626 144 CURVE SMOOTH",
"679 144 OFFCURVE",
"720 203 OFFCURVE",
"743 310 CURVE SMOOTH",
"752 353 LINE SMOOTH",
"755 368 OFFCURVE",
"756 380 OFFCURVE",
"756 411 CURVE SMOOTH",
"756 480 OFFCURVE",
"732 537 OFFCURVE",
"689 577 CURVE SMOOTH",
"646 616 OFFCURVE",
"585 638 OFFCURVE",
"510 638 CURVE SMOOTH",
"422 638 OFFCURVE",
"342 607 OFFCURVE",
"281 552 CURVE SMOOTH",
"220 497 OFFCURVE",
"176 419 OFFCURVE",
"157 326 CURVE SMOOTH",
"147 275 LINE SMOOTH",
"142 246 OFFCURVE",
"139 222 OFFCURVE",
"139 201 CURVE SMOOTH",
"139 124 OFFCURVE",
"161 61 OFFCURVE",
"202 18 CURVE SMOOTH",
"242 -26 OFFCURVE",
"303 -50 OFFCURVE",
"379 -50 CURVE SMOOTH",
"591 -50 LINE",
"577 -121 LINE"
);
},
{
closed = 1;
nodes = (
"437 149 OFFCURVE",
"460 161 OFFCURVE",
"479 178 CURVE SMOOTH",
"498 195 OFFCURVE",
"511 220 OFFCURVE",
"516 244 CURVE SMOOTH",
"538 354 LINE SMOOTH",
"545 391 OFFCURVE",
"514 428 OFFCURVE",
"459 428 CURVE SMOOTH",
"403 428 OFFCURVE",
"366 389 OFFCURVE",
"355 333 CURVE SMOOTH",
"338 249 LINE SMOOTH",
"336 239 OFFCURVE",
"335 231 OFFCURVE",
"335 224 CURVE SMOOTH",
"335 177 OFFCURVE",
"362 149 OFFCURVE",
"409 149 CURVE SMOOTH"
);
}
);
width = 875;
}
);
leftKerningGroup = at;
rightKerningGroup = at;
unicode = 0040;
},
{
glyphname = hyphen;
layers = (
{
layerId = "5E034FFB-2FEE-437B-B143-44B7444E4712";
name = "Regular Italic";
paths = (
{
closed = 1;
nodes = (
"59 252 LINE",
"80 357 LINE",
"350 357 LINE",
"329 252 LINE"
);
}
);
width = 391;
}
);
leftKerningGroup = hyphen;
rightKerningGroup = hyphen;
unicode = 002D;
},
{
glyphname = uni00AD;
layers = (
{
layerId = "5E034FFB-2FEE-437B-B143-44B7444E4712";
name = "Regular Italic";
paths = (
{
closed = 1;
nodes = (
"59 252 LINE",
"80 357 LINE",
"350 357 LINE",
"329 252 LINE"
);
}
);
width = 391;
}
);
leftKerningGroup = hyphen;
rightKerningGroup = hyphen;
unicode = 00AD;
},
{
glyphname = endash;
layers = (
{
layerId = "5E034FFB-2FEE-437B-B143-44B7444E4712";
name = "Regular Italic";
paths = (
{
closed = 1;
nodes = (
"35 259 LINE",
"53 349 LINE",
"555 349 LINE",
"537 259 LINE"
);
}
);
width = 573;
}
);
leftKerningGroup = hyphen;
rightKerningGroup = hyphen;
unicode = 2013;
},
{
glyphname = emdash;
layers = (
{
layerId = "5E034FFB-2FEE-437B-B143-44B7444E4712";
name = "Regular Italic";
paths = (
{
closed = 1;
nodes = (
"35 259 LINE",
"53 349 LINE",
"741 349 LINE",
"723 259 LINE"
);
}
);
width = 759;
}
);
leftKerningGroup = hyphen;
rightKerningGroup = hyphen;
unicode = 2014;
},
{
glyphname = underscore;
layers = (
{
layerId = "5E034FFB-2FEE-437B-B143-44B7444E4712";
name = "Regular Italic";
paths = (
{
closed = 1;
nodes = (
"-57 -173 LINE",
"-39 -85 LINE",
"450 -85 LINE",
"432 -173 LINE"
);
}
);
width = 548;
}
);
leftKerningGroup = underscore;
rightKerningGroup = underscore;
unicode = 005F;
},
{
glyphname = period;
layers = (
{
layerId = "5E034FFB-2FEE-437B-B143-44B7444E4712";
name = "Regular Italic";
paths = (
{
closed = 1;
nodes = (
"50 -12 OFFCURVE",
"31 9 OFFCURVE",
"31 37 CURVE SMOOTH",
"31 48 OFFCURVE",
"33 65 OFFCURVE",
"36 76 CURVE",
"43 111 OFFCURVE",
"66 139 OFFCURVE",
"115 139 CURVE SMOOTH",
"158 139 OFFCURVE",
"177 118 OFFCURVE",
"177 90 CURVE SMOOTH",
"177 81 OFFCURVE",
"175 63 OFFCURVE",
"172 51 CURVE",
"165 16 OFFCURVE",
"144 -12 OFFCURVE",
"93 -12 CURVE SMOOTH"
);
}
);
width = 288;
}
);
leftKerningGroup = period;
rightKerningGroup = period;
unicode = 002E;
},
{
glyphname = ellipsis;
layers = (
{
layerId = "5E034FFB-2FEE-437B-B143-44B7444E4712";
name = "Regular Italic";
paths = (
{
closed = 1;
nodes = (
"50 -12 OFFCURVE",
"31 9 OFFCURVE",
"31 37 CURVE SMOOTH",
"31 48 OFFCURVE",
"33 65 OFFCURVE",
"36 76 CURVE",
"43 111 OFFCURVE",
"66 139 OFFCURVE",
"115 139 CURVE SMOOTH",
"158 139 OFFCURVE",
"177 118 OFFCURVE",
"177 90 CURVE SMOOTH",
"177 81 OFFCURVE",
"175 63 OFFCURVE",
"172 51 CURVE",
"165 16 OFFCURVE",
"144 -12 OFFCURVE",
"93 -12 CURVE SMOOTH"
);
},
{
closed = 1;
nodes = (
"324 -12 OFFCURVE",
"305 9 OFFCURVE",
"305 37 CURVE SMOOTH",
"305 48 OFFCURVE",
"307 65 OFFCURVE",
"310 76 CURVE",
"317 111 OFFCURVE",
"340 139 OFFCURVE",
"389 139 CURVE SMOOTH",
"432 139 OFFCURVE",
"451 118 OFFCURVE",
"451 90 CURVE SMOOTH",
"451 81 OFFCURVE",
"449 63 OFFCURVE",
"446 51 CURVE",
"439 16 OFFCURVE",
"418 -12 OFFCURVE",
"367 -12 CURVE SMOOTH"
);
},
{
closed = 1;
nodes = (
"598 -12 OFFCURVE",
"579 9 OFFCURVE",
"579 37 CURVE SMOOTH",
"579 48 OFFCURVE",
"581 65 OFFCURVE",
"584 76 CURVE",
"591 111 OFFCURVE",
"614 139 OFFCURVE",
"663 139 CURVE SMOOTH",
"706 139 OFFCURVE",
"725 118 OFFCURVE",
"725 90 CURVE SMOOTH",
"725 81 OFFCURVE",
"723 63 OFFCURVE",
"720 51 CURVE",
"713 16 OFFCURVE",
"692 -12 OFFCURVE",
"641 -12 CURVE SMOOTH"
);
}
);
width = 836;
}
);
leftKerningGroup = period;
rightKerningGroup = period;
unicode = 2026;
},
{
glyphname = colon;
layers = (
{
layerId = "5E034FFB-2FEE-437B-B143-44B7444E4712";
name = "Regular Italic";
paths = (
{
closed = 1;
nodes = (
"60 -12 OFFCURVE",
"41 9 OFFCURVE",
"41 37 CURVE SMOOTH",
"41 48 OFFCURVE",
"43 65 OFFCURVE",
"46 76 CURVE",
"53 111 OFFCURVE",
"76 139 OFFCURVE",
"125 139 CURVE SMOOTH",
"168 139 OFFCURVE",
"187 118 OFFCURVE",
"187 90 CURVE SMOOTH",
"187 81 OFFCURVE",
"185 63 OFFCURVE",
"182 51 CURVE",
"175 16 OFFCURVE",
"154 -12 OFFCURVE",
"103 -12 CURVE SMOOTH"
);
},
{
closed = 1;
nodes = (
"138 378 OFFCURVE",
"119 399 OFFCURVE",
"119 427 CURVE SMOOTH",
"119 438 OFFCURVE",
"121 455 OFFCURVE",
"124 466 CURVE",
"131 501 OFFCURVE",
"154 529 OFFCURVE",
"203 529 CURVE SMOOTH",
"246 529 OFFCURVE",
"265 508 OFFCURVE",
"265 480 CURVE SMOOTH",
"265 471 OFFCURVE",
"263 453 OFFCURVE",
"260 441 CURVE",
"253 406 OFFCURVE",
"232 378 OFFCURVE",
"181 378 CURVE SMOOTH"
);
}
);
width = 307;
}
);
leftKerningGroup = colon;
unicode = 003A;
},
{
glyphname = comma;
layers = (
{
layerId = "5E034FFB-2FEE-437B-B143-44B7444E4712";
name = "Regular Italic";
paths = (
{
closed = 1;
nodes = (
"158 139 OFFCURVE",
"177 117 OFFCURVE",
"177 88 CURVE SMOOTH",
"177 79 OFFCURVE",
"175 63 OFFCURVE",
"172 52 CURVE SMOOTH",
"157 -11 OFFCURVE",
"118 -87 OFFCURVE",
"46 -138 CURVE",
"-37 -138 LINE",
"15 -95 OFFCURVE",
"49 -55 OFFCURVE",
"73 -7 CURVE",
"46 -1 OFFCURVE",
"32 14 OFFCURVE",
"32 39 CURVE SMOOTH",
"32 48 OFFCURVE",
"34 64 OFFCURVE",
"37 76 CURVE SMOOTH",
"45 112 OFFCURVE",
"66 139 OFFCURVE",
"115 139 CURVE SMOOTH"
);
}
);
width = 288;
}
);
leftKerningGroup = period;
rightKerningGroup = period;
unicode = 002C;
},
{
glyphname = semicolon;
layers = (
{
layerId = "5E034FFB-2FEE-437B-B143-44B7444E4712";
name = "Regular Italic";
paths = (
{
closed = 1;
nodes = (
"168 139 OFFCURVE",
"187 117 OFFCURVE",
"187 88 CURVE SMOOTH",
"187 79 OFFCURVE",
"185 63 OFFCURVE",
"182 52 CURVE SMOOTH",
"167 -11 OFFCURVE",
"128 -87 OFFCURVE",
"56 -138 CURVE",
"-27 -138 LINE",
"25 -95 OFFCURVE",
"59 -55 OFFCURVE",
"83 -7 CURVE",
"56 -1 OFFCURVE",
"42 14 OFFCURVE",
"42 39 CURVE SMOOTH",
"42 48 OFFCURVE",
"44 64 OFFCURVE",
"47 76 CURVE SMOOTH",
"55 112 OFFCURVE",
"76 139 OFFCURVE",
"125 139 CURVE SMOOTH"
);
},
{
closed = 1;
nodes = (
"138 378 OFFCURVE",
"119 399 OFFCURVE",
"119 427 CURVE SMOOTH",
"119 438 OFFCURVE",
"121 455 OFFCURVE",
"124 466 CURVE",
"131 501 OFFCURVE",
"154 529 OFFCURVE",
"203 529 CURVE SMOOTH",
"246 529 OFFCURVE",
"265 508 OFFCURVE",
"265 480 CURVE SMOOTH",
"265 471 OFFCURVE",
"263 453 OFFCURVE",
"260 441 CURVE",
"253 406 OFFCURVE",
"232 378 OFFCURVE",
"181 378 CURVE SMOOTH"
);
}
);
width = 307;
}
);
leftKerningGroup = colon;
unicode = 003B;
},
{
glyphname = quotesingle;
layers = (
{
layerId = "5E034FFB-2FEE-437B-B143-44B7444E4712";
name = "Regular Italic";
paths = (
{
closed = 1;
nodes = (
"110 440 LINE",
"170 740 LINE",
"267 740 LINE",
"207 440 LINE"
);
}
);
width = 246;
}
);
leftKerningGroup = quotesingle;
rightKerningGroup = quotesingle;
unicode = 0027;
},
{
glyphname = quotedbl;
layers = (
{
layerId = "5E034FFB-2FEE-437B-B143-44B7444E4712";
name = "Regular Italic";
paths = (
{
closed = 1;
nodes = (
"110 440 LINE",
"170 740 LINE",
"267 740 LINE",
"207 440 LINE"
);
},
{
closed = 1;
nodes = (
"307 440 LINE",
"367 740 LINE",
"464 740 LINE",
"404 440 LINE"
);
}
);
width = 443;
}
);
leftKerningGroup = quotesingle;
rightKerningGroup = quotesingle;
unicode = 0022;
},
{
glyphname = quoteleft;
layers = (
{
layerId = "5E034FFB-2FEE-437B-B143-44B7444E4712";
name = "Regular Italic";
paths = (
{
closed = 1;
nodes = (
"137 469 OFFCURVE",
"118 491 OFFCURVE",
"118 520 CURVE SMOOTH",
"118 529 OFFCURVE",
"120 545 OFFCURVE",
"123 556 CURVE SMOOTH",
"138 619 OFFCURVE",
"177 695 OFFCURVE",
"249 746 CURVE",
"332 746 LINE",
"280 703 OFFCURVE",
"246 663 OFFCURVE",
"222 615 CURVE",
"249 609 OFFCURVE",
"263 594 OFFCURVE",
"263 569 CURVE SMOOTH",
"263 560 OFFCURVE",
"261 544 OFFCURVE",
"258 532 CURVE SMOOTH",
"250 496 OFFCURVE",
"229 469 OFFCURVE",
"180 469 CURVE SMOOTH"
);
}
);
width = 279;
}
);
leftKerningGroup = quoteleft;
rightKerningGroup = quoteleft;
unicode = 2018;
},
{
glyphname = quoteright;
layers = (
{
layerId = "5E034FFB-2FEE-437B-B143-44B7444E4712";
name = "Regular Italic";
paths = (
{
closed = 1;
nodes = (
"278 750 OFFCURVE",
"297 728 OFFCURVE",
"297 699 CURVE SMOOTH",
"297 690 OFFCURVE",
"295 674 OFFCURVE",
"292 663 CURVE SMOOTH",
"277 600 OFFCURVE",
"238 524 OFFCURVE",
"166 473 CURVE",
"83 473 LINE",
"135 516 OFFCURVE",
"169 556 OFFCURVE",
"193 604 CURVE",
"166 610 OFFCURVE",
"152 625 OFFCURVE",
"152 650 CURVE SMOOTH",
"152 659 OFFCURVE",
"154 675 OFFCURVE",
"157 687 CURVE SMOOTH",
"165 723 OFFCURVE",
"186 750 OFFCURVE",
"235 750 CURVE SMOOTH"
);
}
);
width = 279;
}
);
leftKerningGroup = quoteright;
rightKerningGroup = quoteright;
unicode = 2019;
},
{
glyphname = quotedblleft;
layers = (
{
layerId = "5E034FFB-2FEE-437B-B143-44B7444E4712";
name = "Regular Italic";
paths = (
{
closed = 1;
nodes = (
"137 469 OFFCURVE",
"118 491 OFFCURVE",
"118 520 CURVE SMOOTH",
"118 529 OFFCURVE",
"120 545 OFFCURVE",
"123 556 CURVE SMOOTH",
"138 619 OFFCURVE",
"177 695 OFFCURVE",
"249 746 CURVE",
"332 746 LINE",
"280 703 OFFCURVE",
"246 663 OFFCURVE",
"222 615 CURVE",
"249 609 OFFCURVE",
"263 594 OFFCURVE",
"263 569 CURVE SMOOTH",
"263 560 OFFCURVE",
"261 544 OFFCURVE",
"258 532 CURVE SMOOTH",
"250 496 OFFCURVE",
"229 469 OFFCURVE",
"180 469 CURVE SMOOTH"
);
},
{
closed = 1;
nodes = (
"350 469 OFFCURVE",
"331 491 OFFCURVE",
"331 520 CURVE SMOOTH",
"331 529 OFFCURVE",
"333 545 OFFCURVE",
"336 556 CURVE SMOOTH",
"351 619 OFFCURVE",
"390 695 OFFCURVE",
"462 746 CURVE",
"545 746 LINE",
"493 703 OFFCURVE",
"459 663 OFFCURVE",
"435 615 CURVE",
"462 609 OFFCURVE",
"476 594 OFFCURVE",
"476 569 CURVE SMOOTH",
"476 560 OFFCURVE",
"474 544 OFFCURVE",
"471 532 CURVE SMOOTH",
"463 496 OFFCURVE",
"442 469 OFFCURVE",
"393 469 CURVE SMOOTH"
);
}
);
width = 492;
}
);
leftKerningGroup = quoteleft;
rightKerningGroup = quoteleft;
unicode = 201C;
},
{
glyphname = quotedblright;
layers = (
{
layerId = "5E034FFB-2FEE-437B-B143-44B7444E4712";
name = "Regular Italic";
paths = (
{
closed = 1;
nodes = (
"278 750 OFFCURVE",
"297 728 OFFCURVE",
"297 699 CURVE SMOOTH",
"297 690 OFFCURVE",
"295 674 OFFCURVE",
"292 663 CURVE SMOOTH",
"277 600 OFFCURVE",
"238 524 OFFCURVE",
"166 473 CURVE",
"83 473 LINE",
"135 516 OFFCURVE",
"169 556 OFFCURVE",
"193 604 CURVE",
"166 610 OFFCURVE",
"152 625 OFFCURVE",
"152 650 CURVE SMOOTH",
"152 659 OFFCURVE",
"154 675 OFFCURVE",
"157 687 CURVE SMOOTH",
"165 723 OFFCURVE",
"186 750 OFFCURVE",
"235 750 CURVE SMOOTH"
);
},
{
closed = 1;
nodes = (
"491 750 OFFCURVE",
"510 728 OFFCURVE",
"510 699 CURVE SMOOTH",
"510 690 OFFCURVE",
"508 674 OFFCURVE",
"505 663 CURVE SMOOTH",
"490 600 OFFCURVE",
"451 524 OFFCURVE",
"379 473 CURVE",
"296 473 LINE",
"348 516 OFFCURVE",
"382 556 OFFCURVE",
"406 604 CURVE",
"379 610 OFFCURVE",
"365 625 OFFCURVE",
"365 650 CURVE SMOOTH",
"365 659 OFFCURVE",
"367 675 OFFCURVE",
"370 687 CURVE SMOOTH",
"378 723 OFFCURVE",
"399 750 OFFCURVE",
"448 750 CURVE SMOOTH"
);
}
);
width = 492;
}
);
leftKerningGroup = quoteright;
rightKerningGroup = quoteright;
unicode = 201D;
},
{
glyphname = quotesinglbase;
layers = (
{
layerId = "5E034FFB-2FEE-437B-B143-44B7444E4712";
name = "Regular Italic";
paths = (
{
closed = 1;
nodes = (
"155 155 OFFCURVE",
"174 133 OFFCURVE",
"174 104 CURVE SMOOTH",
"174 95 OFFCURVE",
"172 79 OFFCURVE",
"169 68 CURVE SMOOTH",
"154 5 OFFCURVE",
"115 -71 OFFCURVE",
"43 -122 CURVE",
"-40 -122 LINE",
"12 -79 OFFCURVE",
"46 -39 OFFCURVE",
"70 9 CURVE",
"43 15 OFFCURVE",
"29 30 OFFCURVE",
"29 55 CURVE SMOOTH",
"29 64 OFFCURVE",
"31 80 OFFCURVE",
"34 92 CURVE SMOOTH",
"42 128 OFFCURVE",
"63 155 OFFCURVE",
"112 155 CURVE SMOOTH"
);
}
);
width = 280;
}
);
leftKerningGroup = period;
rightKerningGroup = period;
unicode = 201A;
},
{
glyphname = quotedblbase;
layers = (
{
layerId = "5E034FFB-2FEE-437B-B143-44B7444E4712";
name = "Regular Italic";
paths = (
{
closed = 1;
nodes = (
"155 155 OFFCURVE",
"174 133 OFFCURVE",
"174 104 CURVE SMOOTH",
"174 95 OFFCURVE",
"172 79 OFFCURVE",
"169 68 CURVE SMOOTH",
"154 5 OFFCURVE",
"115 -71 OFFCURVE",
"43 -122 CURVE",
"-40 -122 LINE",
"12 -79 OFFCURVE",
"46 -39 OFFCURVE",
"70 9 CURVE",
"43 15 OFFCURVE",
"29 30 OFFCURVE",
"29 55 CURVE SMOOTH",
"29 64 OFFCURVE",
"31 80 OFFCURVE",
"34 92 CURVE SMOOTH",
"42 128 OFFCURVE",
"63 155 OFFCURVE",
"112 155 CURVE SMOOTH"
);
},
{
closed = 1;
nodes = (
"363 155 OFFCURVE",
"382 133 OFFCURVE",
"382 104 CURVE SMOOTH",
"382 95 OFFCURVE",
"380 79 OFFCURVE",
"377 68 CURVE SMOOTH",
"362 5 OFFCURVE",
"323 -71 OFFCURVE",
"251 -122 CURVE",
"168 -122 LINE",
"220 -79 OFFCURVE",
"254 -39 OFFCURVE",
"278 9 CURVE",
"251 15 OFFCURVE",
"237 30 OFFCURVE",
"237 55 CURVE SMOOTH",
"237 64 OFFCURVE",
"239 80 OFFCURVE",
"242 92 CURVE SMOOTH",
"250 128 OFFCURVE",
"271 155 OFFCURVE",
"320 155 CURVE SMOOTH"
);
}
);
width = 488;
}
);
leftKerningGroup = period;
rightKerningGroup = period;
unicode = 201E;
},
{
glyphname = guilsinglleft;
layers = (
{
layerId = "5E034FFB-2FEE-437B-B143-44B7444E4712";
name = "Regular Italic";
paths = (
{
closed = 1;
nodes = (
"187 67 LINE",
"33 234 LINE",
"52 331 LINE",
"263 492 LINE",
"289 419 LINE",
"130 274 LINE",
"230 132 LINE"
);
}
);
width = 304;
}
);
leftKerningGroup = guilsinglleft;
rightKerningGroup = guilsinglleft;
unicode = 2039;
},
{
glyphname = guilsinglright;
layers = (
{
layerId = "5E034FFB-2FEE-437B-B143-44B7444E4712";
name = "Regular Italic";
paths = (
{
closed = 1;
nodes = (
"19 140 LINE",
"177 284 LINE",
"77 426 LINE",
"120 492 LINE",
"275 325 LINE",
"255 228 LINE",
"44 67 LINE"
);
}
);
width = 304;
}
);
leftKerningGroup = guilsinglright;
rightKerningGroup = guilsinglright;
unicode = 203A;
},
{
glyphname = guillemotleft;
layers = (
{
layerId = "5E034FFB-2FEE-437B-B143-44B7444E4712";
name = "Regular Italic";
paths = (
{
closed = 1;
nodes = (
"187 67 LINE",
"33 234 LINE",
"52 331 LINE",
"263 492 LINE",
"289 419 LINE",
"130 274 LINE",
"230 132 LINE"
);
},
{
closed = 1;
nodes = (
"409 67 LINE",
"255 234 LINE",
"274 331 LINE",
"485 492 LINE",
"511 419 LINE",
"352 274 LINE",
"452 132 LINE"
);
}
);
width = 526;
}
);
leftKerningGroup = guilsinglleft;
rightKerningGroup = guilsinglleft;
unicode = 00AB;
},
{
glyphname = guillemotright;
layers = (
{
layerId = "5E034FFB-2FEE-437B-B143-44B7444E4712";
name = "Regular Italic";
paths = (
{
closed = 1;
nodes = (
"241 140 LINE",
"399 284 LINE",
"299 426 LINE",
"342 492 LINE",
"497 325 LINE",
"477 228 LINE",
"266 67 LINE"
);
},
{
closed = 1;
nodes = (
"19 140 LINE",
"177 284 LINE",
"77 426 LINE",
"120 492 LINE",
"275 325 LINE",
"255 228 LINE",
"44 67 LINE"
);
}
);
width = 526;
}
);
leftKerningGroup = guilsinglright;
rightKerningGroup = guilsinglright;
unicode = 00BB;
},
{
glyphname = exclamdown;
layers = (
{
layerId = "5E034FFB-2FEE-437B-B143-44B7444E4712";
name = "Regular Italic";
paths = (
{
closed = 1;
nodes = (
"0 -178 LINE",
"40 22 LINE",
"132 320 LINE",
"180 320 LINE",
"152 22 LINE",
"112 -178 LINE"
);
},
{
closed = 1;
nodes = (
"126 381 OFFCURVE",
"107 402 OFFCURVE",
"107 430 CURVE SMOOTH",
"107 441 OFFCURVE",
"109 458 OFFCURVE",
"112 469 CURVE",
"119 504 OFFCURVE",
"142 532 OFFCURVE",
"191 532 CURVE SMOOTH",
"234 532 OFFCURVE",
"253 511 OFFCURVE",
"253 483 CURVE SMOOTH",
"253 474 OFFCURVE",
"251 456 OFFCURVE",
"248 444 CURVE",
"241 409 OFFCURVE",
"220 381 OFFCURVE",
"169 381 CURVE SMOOTH"
);
}
);
width = 290;
}
);
leftKerningGroup = exclamdown;
rightKerningGroup = exclamdown;
unicode = 00A1;
},
{
glyphname = exclam;
layers = (
{
layerId = "5E034FFB-2FEE-437B-B143-44B7444E4712";
name = "Regular Italic";
paths = (
{
closed = 1;
nodes = (
"110 200 LINE",
"137 498 LINE",
"177 698 LINE",
"289 698 LINE",
"249 498 LINE",
"158 200 LINE"
);
},
{
closed = 1;
nodes = (
"53 -12 OFFCURVE",
"34 9 OFFCURVE",
"34 37 CURVE SMOOTH",
"34 48 OFFCURVE",
"36 65 OFFCURVE",
"39 76 CURVE",
"46 111 OFFCURVE",
"69 139 OFFCURVE",
"118 139 CURVE SMOOTH",
"161 139 OFFCURVE",
"180 118 OFFCURVE",
"180 90 CURVE SMOOTH",
"180 81 OFFCURVE",
"178 63 OFFCURVE",
"175 51 CURVE",
"168 16 OFFCURVE",
"147 -12 OFFCURVE",
"96 -12 CURVE SMOOTH"
);
}
);
width = 290;
}
);
leftKerningGroup = exclam;
unicode = 0021;
},
{
glyphname = questiondown;
layers = (
{
layerId = "5E034FFB-2FEE-437B-B143-44B7444E4712";
name = "Regular Italic";
paths = (
{
closed = 1;
nodes = (
"56 -190 OFFCURVE",
"-17 -129 OFFCURVE",
"-17 -26 CURVE SMOOTH",
"-17 29 OFFCURVE",
"5 82 OFFCURVE",
"43 123 CURVE SMOOTH",
"81 164 OFFCURVE",
"135 195 OFFCURVE",
"199 207 CURVE",
"219 301 LINE",
"320 301 LINE",
"288 141 LINE",
"180 134 OFFCURVE",
"112 89 OFFCURVE",
"99 22 CURVE",
"96 13 OFFCURVE",
"95 -4 OFFCURVE",
"95 -16 CURVE SMOOTH",
"95 -67 OFFCURVE",
"130 -97 OFFCURVE",
"186 -97 CURVE SMOOTH",
"253 -97 OFFCURVE",
"293 -55 OFFCURVE",
"318 9 CURVE",
"405 -28 LINE",
"362 -125 OFFCURVE",
"292 -190 OFFCURVE",
"173 -190 CURVE SMOOTH"
);
},
{
closed = 1;
nodes = (
"243 381 OFFCURVE",
"224 402 OFFCURVE",
"224 430 CURVE SMOOTH",
"224 441 OFFCURVE",
"226 458 OFFCURVE",
"229 469 CURVE",
"236 504 OFFCURVE",
"259 532 OFFCURVE",
"308 532 CURVE SMOOTH",
"351 532 OFFCURVE",
"370 511 OFFCURVE",
"370 483 CURVE SMOOTH",
"370 474 OFFCURVE",
"368 456 OFFCURVE",
"365 444 CURVE",
"358 409 OFFCURVE",
"337 381 OFFCURVE",
"286 381 CURVE SMOOTH"
);
}
);
width = 480;
}
);
leftKerningGroup = questiondown;
rightKerningGroup = questiondown;
unicode = 00BF;
},
{
glyphname = question;
layers = (
{
layerId = "5E034FFB-2FEE-437B-B143-44B7444E4712";
name = "Regular Italic";
paths = (
{
closed = 1;
nodes = (
"160 219 LINE",
"193 379 LINE",
"301 386 OFFCURVE",
"367 431 OFFCURVE",
"382 498 CURVE",
"385 507 OFFCURVE",
"386 524 OFFCURVE",
"386 535 CURVE SMOOTH",
"386 587 OFFCURVE",
"351 617 OFFCURVE",
"295 617 CURVE SMOOTH",
"227 617 OFFCURVE",
"188 574 OFFCURVE",
"163 510 CURVE",
"76 548 LINE",
"117 645 OFFCURVE",
"188 710 OFFCURVE",
"307 710 CURVE SMOOTH",
"424 710 OFFCURVE",
"497 647 OFFCURVE",
"497 546 CURVE SMOOTH",
"497 491 OFFCURVE",
"476 438 OFFCURVE",
"438 397 CURVE SMOOTH",
"400 356 OFFCURVE",
"345 325 OFFCURVE",
"281 313 CURVE",
"262 219 LINE"
);
},
{
closed = 1;
nodes = (
"129 -12 OFFCURVE",
"110 9 OFFCURVE",
"110 37 CURVE SMOOTH",
"110 48 OFFCURVE",
"112 65 OFFCURVE",
"115 76 CURVE",
"122 111 OFFCURVE",
"145 139 OFFCURVE",
"194 139 CURVE SMOOTH",
"237 139 OFFCURVE",
"256 118 OFFCURVE",
"256 90 CURVE SMOOTH",
"256 81 OFFCURVE",
"254 63 OFFCURVE",
"251 51 CURVE",
"244 16 OFFCURVE",
"223 -12 OFFCURVE",
"172 -12 CURVE SMOOTH"
);
}
);
width = 478;
}
);
leftKerningGroup = question;
rightKerningGroup = question;
unicode = 003F;
},
{
glyphname = parenleft;
layers = (
{
layerId = "5E034FFB-2FEE-437B-B143-44B7444E4712";
name = "Regular Italic";
paths = (
{
closed = 1;
nodes = (
"70 329 OFFCURVE",
"104 440 OFFCURVE",
"156 534 CURVE SMOOTH",
"208 628 OFFCURVE",
"279 705 OFFCURVE",
"352 760 CURVE",
"460 760 LINE",
"393 708 OFFCURVE",
"333 647 OFFCURVE",
"285 580 CURVE SMOOTH",
"237 512 OFFCURVE",
"201 440 OFFCURVE",
"188 368 CURVE SMOOTH",
"169 277 LINE SMOOTH",
"164 250 OFFCURVE",
"163 227 OFFCURVE",
"163 204 CURVE SMOOTH",
"163 71 OFFCURVE",
"207 -49 OFFCURVE",
"280 -138 CURVE",
"185 -138 LINE",
"153 -101 OFFCURVE",
"125 -50 OFFCURVE",
"104 9 CURVE SMOOTH",
"83 68 OFFCURVE",
"70 136 OFFCURVE",
"70 208 CURVE SMOOTH"
);
}
);
width = 339;
}
);
rightKerningGroup = parenleft;
unicode = 0028;
},
{
glyphname = parenright;
layers = (
{
layerId = "5E034FFB-2FEE-437B-B143-44B7444E4712";
name = "Regular Italic";
paths = (
{
closed = 1;
nodes = (
"292 294 OFFCURVE",
"258 183 OFFCURVE",
"206 89 CURVE SMOOTH",
"154 -5 OFFCURVE",
"83 -83 OFFCURVE",
"10 -138 CURVE",
"-98 -138 LINE",
"-31 -86 OFFCURVE",
"29 -24 OFFCURVE",
"77 44 CURVE SMOOTH",
"125 111 OFFCURVE",
"159 183 OFFCURVE",
"174 255 CURVE SMOOTH",
"192 346 LINE SMOOTH",
"197 373 OFFCURVE",
"199 396 OFFCURVE",
"199 419 CURVE SMOOTH",
"199 552 OFFCURVE",
"154 671 OFFCURVE",
"81 760 CURVE",
"176 760 LINE",
"208 721 OFFCURVE",
"237 672 OFFCURVE",
"258 613 CURVE SMOOTH",
"278 554 OFFCURVE",
"292 487 OFFCURVE",
"292 415 CURVE SMOOTH"
);
}
);
width = 339;
}
);
leftKerningGroup = parenright;
unicode = 0029;
},
{
glyphname = bracketleft;
layers = (
{
layerId = "5E034FFB-2FEE-437B-B143-44B7444E4712";
name = "Regular Italic";
paths = (
{
closed = 1;
nodes = (
"5 -138 LINE",
"185 760 LINE",
"369 760 LINE",
"353 682 LINE",
"263 682 LINE",
"114 -60 LINE",
"204 -60 LINE",
"189 -138 LINE"
);
}
);
width = 320;
}
);
rightKerningGroup = bracketleft;
unicode = 005B;
},
{
glyphname = bracketright;
layers = (
{
layerId = "5E034FFB-2FEE-437B-B143-44B7444E4712";
name = "Regular Italic";
paths = (
{
closed = 1;
nodes = (
"336 760 LINE",
"156 -138 LINE",
"-28 -138 LINE",
"-12 -60 LINE",
"78 -60 LINE",
"227 682 LINE",
"136 682 LINE",
"152 760 LINE"
);
}
);
width = 319;
}
);
leftKerningGroup = bracketright;
unicode = 005D;
},
{
glyphname = braceleft;
layers = (
{
layerId = "5E034FFB-2FEE-437B-B143-44B7444E4712";
name = "Regular Italic";
paths = (
{
closed = 1;
nodes = (
"125 -138 LINE SMOOTH",
"78 -138 OFFCURVE",
"52 -113 OFFCURVE",
"52 -70 CURVE SMOOTH",
"52 -63 OFFCURVE",
"53 -54 OFFCURVE",
"55 -44 CURVE SMOOTH",
"97 168 LINE SMOOTH",
"99 178 OFFCURVE",
"100 187 OFFCURVE",
"100 196 CURVE SMOOTH",
"100 241 OFFCURVE",
"73 265 OFFCURVE",
"25 265 CURVE",
"44 359 LINE",
"108 359 OFFCURVE",
"141 388 OFFCURVE",
"153 447 CURVE SMOOTH",
"198 670 LINE SMOOTH",
"209 730 OFFCURVE",
"243 760 OFFCURVE",
"294 760 CURVE SMOOTH",
"394 760 LINE",
"379 679 LINE",
"294 679 LINE",
"247 442 LINE SMOOTH",
"240 411 OFFCURVE",
"230 382 OFFCURVE",
"211 359 CURVE SMOOTH",
"192 336 OFFCURVE",
"165 320 OFFCURVE",
"125 316 CURVE",
"123 306 LINE",
"170 297 OFFCURVE",
"199 263 OFFCURVE",
"199 214 CURVE SMOOTH",
"199 203 OFFCURVE",
"197 190 OFFCURVE",
"194 179 CURVE",
"147 -57 LINE",
"232 -57 LINE",
"215 -138 LINE"
);
}
);
width = 343;
}
);
rightKerningGroup = bracketleft;
unicode = 007B;
},
{
glyphname = braceright;
layers = (
{
layerId = "5E034FFB-2FEE-437B-B143-44B7444E4712";
name = "Regular Italic";
paths = (
{
closed = 1;
nodes = (
"-16 -57 LINE",
"68 -57 LINE",
"115 180 LINE SMOOTH",
"120 209 OFFCURVE",
"132 240 OFFCURVE",
"151 263 CURVE SMOOTH",
"170 286 OFFCURVE",
"198 302 OFFCURVE",
"238 306 CURVE",
"239 316 LINE",
"194 325 OFFCURVE",
"164 358 OFFCURVE",
"164 409 CURVE SMOOTH",
"164 420 OFFCURVE",
"165 432 OFFCURVE",
"168 443 CURVE",
"215 679 LINE",
"130 679 LINE",
"147 760 LINE",
"238 760 LINE SMOOTH",
"285 760 OFFCURVE",
"310 735 OFFCURVE",
"310 692 CURVE SMOOTH",
"310 689 OFFCURVE",
"310 685 OFFCURVE",
"310 681 CURVE SMOOTH",
"310 676 OFFCURVE",
"309 671 OFFCURVE",
"308 666 CURVE SMOOTH",
"265 454 LINE SMOOTH",
"263 444 OFFCURVE",
"262 435 OFFCURVE",
"262 426 CURVE SMOOTH",
"262 379 OFFCURVE",
"290 358 OFFCURVE",
"338 358 CURVE",
"319 264 LINE",
"255 264 OFFCURVE",
"221 232 OFFCURVE",
"209 175 CURVE SMOOTH",
"165 -48 LINE SMOOTH",
"153 -108 OFFCURVE",
"120 -138 OFFCURVE",
"69 -138 CURVE SMOOTH",
"-32 -138 LINE"
);
}
);
width = 344;
}
);
leftKerningGroup = bracketright;
unicode = 007D;
},
{
glyphname = slash;
layers = (
{
layerId = "5E034FFB-2FEE-437B-B143-44B7444E4712";
name = "Regular Italic";
paths = (
{
closed = 1;
nodes = (
"-71 -151 LINE",
"377 740 LINE",
"473 740 LINE",
"24 -151 LINE"
);
}
);
width = 421;
}
);
leftKerningGroup = slash;
rightKerningGroup = slash;
unicode = 002F;
},
{
glyphname = backslash;
layers = (
{
layerId = "5E034FFB-2FEE-437B-B143-44B7444E4712";
name = "Regular Italic";
paths = (
{
closed = 1;
nodes = (
"235 -151 LINE",
"145 740 LINE",
"232 740 LINE",
"322 -151 LINE"
);
}
);
width = 421;
}
);
unicode = 005C;
},
{
glyphname = fraction;
layers = (
{
layerId = "5E034FFB-2FEE-437B-B143-44B7444E4712";
name = "Regular Italic";
paths = (
{
closed = 1;
nodes = (
"-265 0 LINE",
"365 698 LINE",
"455 698 LINE",
"-174 0 LINE"
);
}
);
width = 148;
}
);
unicode = 2044;
},
{
glyphname = percent;
layers = (
{
layerId = "5E034FFB-2FEE-437B-B143-44B7444E4712";
name = "Regular Italic";
paths = (
{
closed = 1;
nodes = (
"130 0 LINE",
"717 698 LINE",
"816 698 LINE",
"229 0 LINE"
);
},
{
closed = 1;
nodes = (
"151 314 OFFCURVE",
"98 366 OFFCURVE",
"98 465 CURVE SMOOTH",
"98 533 OFFCURVE",
"118 595 OFFCURVE",
"153 639 CURVE SMOOTH",
"188 683 OFFCURVE",
"237 710 OFFCURVE",
"293 710 CURVE SMOOTH",
"378 710 OFFCURVE",
"431 658 OFFCURVE",
"431 559 CURVE SMOOTH",
"431 491 OFFCURVE",
"411 430 OFFCURVE",
"376 386 CURVE SMOOTH",
"341 341 OFFCURVE",
"292 314 OFFCURVE",
"236 314 CURVE SMOOTH"
);
},
{
closed = 1;
nodes = (
"286 380 OFFCURVE",
"310 415 OFFCURVE",
"325 482 CURVE SMOOTH",
"338 543 LINE",
"341 555 OFFCURVE",
"342 570 OFFCURVE",
"342 581 CURVE SMOOTH",
"342 620 OFFCURVE",
"322 644 OFFCURVE",
"287 644 CURVE SMOOTH",
"243 644 OFFCURVE",
"219 609 OFFCURVE",
"204 542 CURVE SMOOTH",
"191 481 LINE",
"188 469 OFFCURVE",
"187 454 OFFCURVE",
"187 443 CURVE SMOOTH",
"187 404 OFFCURVE",
"207 380 OFFCURVE",
"242 380 CURVE SMOOTH"
);
},
{
closed = 1;
nodes = (
"567 -12 OFFCURVE",
"514 40 OFFCURVE",
"514 139 CURVE SMOOTH",
"514 207 OFFCURVE",
"534 269 OFFCURVE",
"569 313 CURVE SMOOTH",
"604 357 OFFCURVE",
"653 384 OFFCURVE",
"709 384 CURVE SMOOTH",
"794 384 OFFCURVE",
"847 332 OFFCURVE",
"847 233 CURVE SMOOTH",
"847 165 OFFCURVE",
"827 104 OFFCURVE",
"792 60 CURVE SMOOTH",
"757 15 OFFCURVE",
"708 -12 OFFCURVE",
"652 -12 CURVE SMOOTH"
);
},
{
closed = 1;
nodes = (
"702 54 OFFCURVE",
"726 89 OFFCURVE",
"741 156 CURVE SMOOTH",
"754 217 LINE",
"757 229 OFFCURVE",
"758 244 OFFCURVE",
"758 255 CURVE SMOOTH",
"758 294 OFFCURVE",
"738 318 OFFCURVE",
"703 318 CURVE SMOOTH",
"659 318 OFFCURVE",
"635 283 OFFCURVE",
"620 216 CURVE SMOOTH",
"607 155 LINE",
"604 143 OFFCURVE",
"603 128 OFFCURVE",
"603 117 CURVE SMOOTH",
"603 78 OFFCURVE",
"623 54 OFFCURVE",
"658 54 CURVE SMOOTH"
);
}
);
width = 918;
}
);
rightKerningGroup = percent;
unicode = 0025;
},
{
glyphname = perthousand;
layers = (
{
layerId = "5E034FFB-2FEE-437B-B143-44B7444E4712";
name = "Regular Italic";
paths = (
{
closed = 1;
nodes = (
"130 0 LINE",
"717 698 LINE",
"816 698 LINE",
"229 0 LINE"
);
},
{
closed = 1;
nodes = (
"151 314 OFFCURVE",
"98 366 OFFCURVE",
"98 465 CURVE SMOOTH",
"98 533 OFFCURVE",
"118 595 OFFCURVE",
"153 639 CURVE SMOOTH",
"188 683 OFFCURVE",
"237 710 OFFCURVE",
"293 710 CURVE SMOOTH",
"378 710 OFFCURVE",
"431 658 OFFCURVE",
"431 559 CURVE SMOOTH",
"431 491 OFFCURVE",
"411 430 OFFCURVE",
"376 386 CURVE SMOOTH",
"341 341 OFFCURVE",
"292 314 OFFCURVE",
"236 314 CURVE SMOOTH"
);
},
{
closed = 1;
nodes = (
"286 380 OFFCURVE",
"310 415 OFFCURVE",
"325 482 CURVE SMOOTH",
"338 543 LINE",
"341 555 OFFCURVE",
"342 570 OFFCURVE",
"342 581 CURVE SMOOTH",
"342 620 OFFCURVE",
"322 644 OFFCURVE",
"287 644 CURVE SMOOTH",
"243 644 OFFCURVE",
"219 609 OFFCURVE",
"204 542 CURVE SMOOTH",
"191 481 LINE",
"188 469 OFFCURVE",
"187 454 OFFCURVE",
"187 443 CURVE SMOOTH",
"187 404 OFFCURVE",
"207 380 OFFCURVE",
"242 380 CURVE SMOOTH"
);
},
{
closed = 1;
nodes = (
"567 -12 OFFCURVE",
"514 40 OFFCURVE",
"514 139 CURVE SMOOTH",
"514 207 OFFCURVE",
"534 269 OFFCURVE",
"569 313 CURVE SMOOTH",
"604 357 OFFCURVE",
"653 384 OFFCURVE",
"709 384 CURVE SMOOTH",
"794 384 OFFCURVE",
"847 332 OFFCURVE",
"847 233 CURVE SMOOTH",
"847 165 OFFCURVE",
"827 104 OFFCURVE",
"792 60 CURVE SMOOTH",
"757 15 OFFCURVE",
"708 -12 OFFCURVE",
"652 -12 CURVE SMOOTH"
);
},
{
closed = 1;
nodes = (
"702 54 OFFCURVE",
"726 89 OFFCURVE",
"741 156 CURVE SMOOTH",
"754 217 LINE",
"757 229 OFFCURVE",
"758 244 OFFCURVE",
"758 255 CURVE SMOOTH",
"758 294 OFFCURVE",
"738 318 OFFCURVE",
"703 318 CURVE SMOOTH",
"659 318 OFFCURVE",
"635 283 OFFCURVE",
"620 216 CURVE SMOOTH",
"607 155 LINE",
"604 143 OFFCURVE",
"603 128 OFFCURVE",
"603 117 CURVE SMOOTH",
"603 78 OFFCURVE",
"623 54 OFFCURVE",
"658 54 CURVE SMOOTH"
);
},
{
closed = 1;
nodes = (
"943 -12 OFFCURVE",
"890 40 OFFCURVE",
"890 139 CURVE SMOOTH",
"890 207 OFFCURVE",
"910 269 OFFCURVE",
"945 313 CURVE SMOOTH",
"980 357 OFFCURVE",
"1029 384 OFFCURVE",
"1085 384 CURVE SMOOTH",
"1170 384 OFFCURVE",
"1223 332 OFFCURVE",
"1223 233 CURVE SMOOTH",
"1223 165 OFFCURVE",
"1203 104 OFFCURVE",
"1168 60 CURVE SMOOTH",
"1133 15 OFFCURVE",
"1084 -12 OFFCURVE",
"1028 -12 CURVE SMOOTH"
);
},
{
closed = 1;
nodes = (
"1078 54 OFFCURVE",
"1102 89 OFFCURVE",
"1117 156 CURVE SMOOTH",
"1130 217 LINE",
"1133 229 OFFCURVE",
"1134 244 OFFCURVE",
"1134 255 CURVE SMOOTH",
"1134 294 OFFCURVE",
"1114 318 OFFCURVE",
"1079 318 CURVE SMOOTH",
"1035 318 OFFCURVE",
"1011 283 OFFCURVE",
"996 216 CURVE SMOOTH",
"983 155 LINE",
"980 143 OFFCURVE",
"979 128 OFFCURVE",
"979 117 CURVE SMOOTH",
"979 78 OFFCURVE",
"999 54 OFFCURVE",
"1034 54 CURVE SMOOTH"
);
}
);
width = 1294;
}
);
rightKerningGroup = perthousand;
unicode = 2030;
},
{
glyphname = bar;
layers = (
{
layerId = "5E034FFB-2FEE-437B-B143-44B7444E4712";
name = "Regular Italic";
paths = (
{
closed = 1;
nodes = (
"47 -138 LINE",
"227 760 LINE",
"318 760 LINE",
"139 -138 LINE"
);
}
);
width = 344;
}
);
unicode = 007C;
},
{
glyphname = brokenbar;
layers = (
{
layerId = "5E034FFB-2FEE-437B-B143-44B7444E4712";
name = "Regular Italic";
paths = (
{
closed = 1;
nodes = (
"155 404 LINE",
"227 760 LINE",
"318 760 LINE",
"247 404 LINE"
);
},
{
closed = 1;
nodes = (
"47 -138 LINE",
"119 218 LINE",
"210 218 LINE",
"139 -138 LINE"
);
}
);
width = 344;
}
);
unicode = 00A6;
},
{
glyphname = section;
layers = (
{
layerId = "5E034FFB-2FEE-437B-B143-44B7444E4712";
name = "Regular Italic";
paths = (
{
closed = 1;
nodes = (
"417 -26 OFFCURVE",
"394 -74 OFFCURVE",
"355 -106 CURVE SMOOTH",
"316 -139 OFFCURVE",
"262 -158 OFFCURVE",
"201 -158 CURVE SMOOTH",
"129 -158 OFFCURVE",
"63 -137 OFFCURVE",
"20 -92 CURVE",
"85 -28 LINE",
"112 -59 OFFCURVE",
"155 -76 OFFCURVE",
"211 -76 CURVE SMOOTH",
"270 -76 OFFCURVE",
"318 -40 OFFCURVE",
"318 15 CURVE SMOOTH",
"318 54 OFFCURVE",
"296 78 OFFCURVE",
"244 95 CURVE SMOOTH",
"181 115 LINE SMOOTH",
"93 143 OFFCURVE",
"61 189 OFFCURVE",
"61 246 CURVE SMOOTH",
"61 325 OFFCURVE",
"110 382 OFFCURVE",
"194 403 CURVE",
"196 412 LINE",
"157 443 OFFCURVE",
"142 480 OFFCURVE",
"142 524 CURVE SMOOTH",
"142 580 OFFCURVE",
"165 627 OFFCURVE",
"204 659 CURVE SMOOTH",
"243 691 OFFCURVE",
"297 710 OFFCURVE",
"358 710 CURVE SMOOTH",
"430 710 OFFCURVE",
"496 690 OFFCURVE",
"539 643 CURVE",
"474 580 LINE",
"446 612 OFFCURVE",
"404 628 OFFCURVE",
"348 628 CURVE SMOOTH",
"319 628 OFFCURVE",
"292 619 OFFCURVE",
"273 604 CURVE SMOOTH",
"253 588 OFFCURVE",
"241 567 OFFCURVE",
"241 540 CURVE SMOOTH",
"241 501 OFFCURVE",
"263 477 OFFCURVE",
"315 460 CURVE SMOOTH",
"378 440 LINE SMOOTH",
"466 412 OFFCURVE",
"499 365 OFFCURVE",
"499 308 CURVE SMOOTH",
"499 231 OFFCURVE",
"450 172 OFFCURVE",
"365 152 CURVE",
"364 142 LINE",
"401 113 OFFCURVE",
"417 74 OFFCURVE",
"417 30 CURVE SMOOTH"
);
},
{
closed = 1;
nodes = (
"401 317 OFFCURVE",
"379 343 OFFCURVE",
"320 362 CURVE SMOOTH",
"257 381 LINE SMOOTH",
"247 384 OFFCURVE",
"239 388 OFFCURVE",
"232 392 CURVE",
"181 365 OFFCURVE",
"158 326 OFFCURVE",
"158 283 CURVE SMOOTH",
"158 236 OFFCURVE",
"180 212 OFFCURVE",
"239 193 CURVE SMOOTH",
"302 173 LINE",
"313 170 OFFCURVE",
"321 167 OFFCURVE",
"328 163 CURVE",
"377 190 OFFCURVE",
"401 229 OFFCURVE",
"401 272 CURVE SMOOTH"
);
}
);
width = 556;
}
);
unicode = 00A7;
},
{
glyphname = paragraph;
layers = (
{
layerId = "5E034FFB-2FEE-437B-B143-44B7444E4712";
name = "Regular Italic";
paths = (
{
closed = 1;
nodes = (
"237 285 LINE",
"194 285 OFFCURVE",
"156 306 OFFCURVE",
"128 339 CURVE SMOOTH",
"100 371 OFFCURVE",
"82 417 OFFCURVE",
"82 466 CURVE SMOOTH",
"82 531 OFFCURVE",
"108 590 OFFCURVE",
"152 631 CURVE SMOOTH",
"196 672 OFFCURVE",
"257 698 OFFCURVE",
"326 698 CURVE SMOOTH",
"652 698 LINE",
"636 616 LINE",
"574 616 LINE",
"420 -149 LINE",
"336 -149 LINE",
"489 616 LINE",
"388 616 LINE",
"234 -149 LINE",
"150 -149 LINE"
);
}
);
width = 636;
}
);
unicode = 00B6;
},
{
glyphname = copyright;
layers = (
{
layerId = "5E034FFB-2FEE-437B-B143-44B7444E4712";
name = "Regular Italic";
paths = (
{
closed = 1;
nodes = (
"266 -12 OFFCURVE",
"194 19 OFFCURVE",
"143 73 CURVE SMOOTH",
"92 127 OFFCURVE",
"63 202 OFFCURVE",
"63 293 CURVE SMOOTH",
"63 412 OFFCURVE",
"106 516 OFFCURVE",
"176 590 CURVE SMOOTH",
"246 664 OFFCURVE",
"345 708 OFFCURVE",
"457 708 CURVE SMOOTH",
"545 708 OFFCURVE",
"617 677 OFFCURVE",
"668 624 CURVE SMOOTH",
"719 571 OFFCURVE",
"748 494 OFFCURVE",
"748 405 CURVE SMOOTH",
"748 285 OFFCURVE",
"706 181 OFFCURVE",
"636 107 CURVE SMOOTH",
"566 33 OFFCURVE",
"466 -12 OFFCURVE",
"354 -12 CURVE SMOOTH"
);
},
{
closed = 1;
nodes = (
"434 48 OFFCURVE",
"505 76 OFFCURVE",
"559 121 CURVE SMOOTH",
"613 165 OFFCURVE",
"652 228 OFFCURVE",
"665 297 CURVE SMOOTH",
"674 340 OFFCURVE",
"680 380 OFFCURVE",
"680 405 CURVE SMOOTH",
"680 478 OFFCURVE",
"656 539 OFFCURVE",
"616 582 CURVE SMOOTH",
"576 625 OFFCURVE",
"520 648 OFFCURVE",
"453 648 CURVE SMOOTH",
"377 648 OFFCURVE",
"307 620 OFFCURVE",
"253 576 CURVE SMOOTH",
"199 531 OFFCURVE",
"159 469 OFFCURVE",
"146 401 CURVE SMOOTH",
"137 358 OFFCURVE",
"131 318 OFFCURVE",
"131 293 CURVE SMOOTH",
"131 218 OFFCURVE",
"155 157 OFFCURVE",
"195 114 CURVE SMOOTH",
"235 71 OFFCURVE",
"291 48 OFFCURVE",
"358 48 CURVE SMOOTH"
);
},
{
closed = 1;
nodes = (
"289 145 OFFCURVE",
"231 206 OFFCURVE",
"231 305 CURVE SMOOTH",
"231 372 OFFCURVE",
"252 434 OFFCURVE",
"288 479 CURVE SMOOTH",
"324 523 OFFCURVE",
"375 552 OFFCURVE",
"435 552 CURVE SMOOTH",
"519 552 OFFCURVE",
"562 505 OFFCURVE",
"579 448 CURVE",
"504 416 LINE",
"496 452 OFFCURVE",
"472 474 OFFCURVE",
"433 474 CURVE SMOOTH",
"382 474 OFFCURVE",
"353 437 OFFCURVE",
"342 384 CURVE SMOOTH",
"329 318 LINE SMOOTH",
"327 308 OFFCURVE",
"326 299 OFFCURVE",
"326 291 CURVE SMOOTH",
"326 251 OFFCURVE",
"349 223 OFFCURVE",
"392 223 CURVE SMOOTH",
"428 223 OFFCURVE",
"457 245 OFFCURVE",
"484 284 CURVE",
"550 243 LINE",
"515 188 OFFCURVE",
"461 145 OFFCURVE",
"381 145 CURVE SMOOTH"
);
}
);
width = 778;
}
);
leftKerningGroup = copyright;
unicode = 00A9;
},
{
glyphname = registered;
layers = (
{
layerId = "5E034FFB-2FEE-437B-B143-44B7444E4712";
name = "Regular Italic";
paths = (
{
closed = 1;
nodes = (
"205 297 OFFCURVE",
"161 316 OFFCURVE",
"130 347 CURVE SMOOTH",
"98 378 OFFCURVE",
"80 421 OFFCURVE",
"80 472 CURVE SMOOTH",
"80 541 OFFCURVE",
"104 601 OFFCURVE",
"144 643 CURVE SMOOTH",
"184 685 OFFCURVE",
"240 710 OFFCURVE",
"303 710 CURVE SMOOTH",
"354 710 OFFCURVE",
"397 691 OFFCURVE",
"429 660 CURVE SMOOTH",
"460 629 OFFCURVE",
"478 584 OFFCURVE",
"478 535 CURVE SMOOTH",
"478 466 OFFCURVE",
"454 407 OFFCURVE",
"414 365 CURVE SMOOTH",
"374 323 OFFCURVE",
"319 297 OFFCURVE",
"256 297 CURVE SMOOTH"
);
},
{
closed = 1;
nodes = (
"344 338 OFFCURVE",
"409 394 OFFCURVE",
"426 479 CURVE SMOOTH",
"431 506 OFFCURVE",
"433 527 OFFCURVE",
"433 536 CURVE SMOOTH",
"433 617 OFFCURVE",
"377 669 OFFCURVE",
"298 669 CURVE SMOOTH",
"215 669 OFFCURVE",
"150 613 OFFCURVE",
"133 528 CURVE",
"126 501 OFFCURVE",
"126 479 OFFCURVE",
"126 471 CURVE SMOOTH",
"126 388 OFFCURVE",
"182 338 OFFCURVE",
"261 338 CURVE SMOOTH"
);
},
{
closed = 1;
nodes = (
"231 400 LINE",
"183 400 LINE",
"225 609 LINE",
"310 609 LINE SMOOTH",
"354 609 OFFCURVE",
"374 583 OFFCURVE",
"374 550 CURVE SMOOTH",
"374 518 OFFCURVE",
"354 488 OFFCURVE",
"321 480 CURVE",
"350 400 LINE",
"299 400 LINE",
"274 473 LINE",
"246 473 LINE"
);
},
{
closed = 1;
nodes = (
"289 509 LINE SMOOTH",
"306 509 OFFCURVE",
"316 516 OFFCURVE",
"319 531 CURVE",
"322 542 OFFCURVE",
"323 549 OFFCURVE",
"323 552 CURVE SMOOTH",
"323 564 OFFCURVE",
"316 570 OFFCURVE",
"302 570 CURVE SMOOTH",
"265 570 LINE",
"253 509 LINE"
);
}
);
width = 462;
}
);
leftKerningGroup = registered;
rightKerningGroup = registered;
unicode = 00AE;
},
{
glyphname = trademark;
layers = (
{
layerId = "5E034FFB-2FEE-437B-B143-44B7444E4712";
name = "Regular Italic";
paths = (
{
closed = 1;
nodes = (
"126 415 LINE",
"173 647 LINE",
"98 647 LINE",
"108 698 LINE",
"318 698 LINE",
"308 647 LINE",
"235 647 LINE",
"188 415 LINE"
);
},
{
closed = 1;
nodes = (
"294 415 LINE",
"351 698 LINE",
"418 698 LINE",
"454 575 LINE",
"458 575 LINE",
"540 698 LINE",
"616 698 LINE",
"559 415 LINE",
"501 415 LINE",
"524 528 LINE",
"546 616 LINE",
"542 616 LINE",
"437 468 LINE",
"391 616 LINE",
"387 616 LINE",
"374 527 LINE",
"351 415 LINE"
);
}
);
width = 585;
}
);
leftKerningGroup = trademark;
rightKerningGroup = trademark;
unicode = 2122;
},
{
glyphname = ordfeminine;
layers = (
{
layerId = "5E034FFB-2FEE-437B-B143-44B7444E4712";
name = "Regular Italic";
paths = (
{
closed = 1;
nodes = (
"390 350 LINE",
"346 350 LINE SMOOTH",
"309 350 OFFCURVE",
"291 365 OFFCURVE",
"291 396 CURVE SMOOTH",
"291 401 OFFCURVE",
"291 405 OFFCURVE",
"292 408 CURVE",
"288 408 LINE",
"267 369 OFFCURVE",
"227 342 OFFCURVE",
"174 342 CURVE SMOOTH",
"118 342 OFFCURVE",
"78 373 OFFCURVE",
"78 428 CURVE SMOOTH",
"78 508 OFFCURVE",
"137 551 OFFCURVE",
"245 551 CURVE SMOOTH",
"313 551 LINE",
"318 574 LINE SMOOTH",
"319 579 OFFCURVE",
"320 584 OFFCURVE",
"320 587 CURVE SMOOTH",
"320 590 OFFCURVE",
"320 594 OFFCURVE",
"320 598 CURVE SMOOTH",
"320 633 OFFCURVE",
"300 650 OFFCURVE",
"261 650 CURVE SMOOTH",
"220 650 OFFCURVE",
"191 630 OFFCURVE",
"168 601 CURVE",
"123 639 LINE",
"154 678 OFFCURVE",
"201 710 OFFCURVE",
"272 710 CURVE SMOOTH",
"348 710 OFFCURVE",
"400 676 OFFCURVE",
"400 605 CURVE SMOOTH",
"400 593 OFFCURVE",
"399 581 OFFCURVE",
"396 570 CURVE",
"365 412 LINE",
"402 412 LINE"
);
},
{
closed = 1;
nodes = (
"238 503 LINE SMOOTH",
"191 503 OFFCURVE",
"165 487 OFFCURVE",
"159 456 CURVE",
"158 449 OFFCURVE",
"157 444 OFFCURVE",
"157 441 CURVE",
"156 438 OFFCURVE",
"156 435 OFFCURVE",
"156 433 CURVE SMOOTH",
"156 410 OFFCURVE",
"175 398 OFFCURVE",
"204 398 CURVE SMOOTH",
"248 398 OFFCURVE",
"288 421 OFFCURVE",
"295 460 CURVE SMOOTH",
"303 503 LINE"
);
}
);
width = 412;
}
);
unicode = 00AA;
},
{
glyphname = ordmasculine;
layers = (
{
layerId = "5E034FFB-2FEE-437B-B143-44B7444E4712";
name = "Regular Italic";
paths = (
{
closed = 1;
nodes = (
"143 342 OFFCURVE",
"90 398 OFFCURVE",
"90 486 CURVE SMOOTH",
"90 543 OFFCURVE",
"107 600 OFFCURVE",
"139 642 CURVE SMOOTH",
"171 684 OFFCURVE",
"219 710 OFFCURVE",
"283 710 CURVE SMOOTH",
"367 710 OFFCURVE",
"421 654 OFFCURVE",
"421 566 CURVE SMOOTH",
"421 507 OFFCURVE",
"404 453 OFFCURVE",
"372 411 CURVE SMOOTH",
"339 369 OFFCURVE",
"291 342 OFFCURVE",
"227 342 CURVE SMOOTH"
);
},
{
closed = 1;
nodes = (
"284 403 OFFCURVE",
"317 441 OFFCURVE",
"328 497 CURVE SMOOTH",
"340 556 LINE SMOOTH",
"342 566 OFFCURVE",
"343 575 OFFCURVE",
"343 582 CURVE SMOOTH",
"343 623 OFFCURVE",
"318 649 OFFCURVE",
"275 649 CURVE SMOOTH",
"227 649 OFFCURVE",
"194 611 OFFCURVE",
"183 555 CURVE SMOOTH",
"171 496 LINE SMOOTH",
"169 486 OFFCURVE",
"168 477 OFFCURVE",
"168 470 CURVE SMOOTH",
"168 429 OFFCURVE",
"193 403 OFFCURVE",
"236 403 CURVE SMOOTH"
);
}
);
width = 405;
}
);
unicode = 00BA;
},
{
glyphname = degree;
layers = (
{
layerId = "5E034FFB-2FEE-437B-B143-44B7444E4712";
name = "Regular Italic";
paths = (
{
closed = 1;
nodes = (
"219 352 OFFCURVE",
"181 369 OFFCURVE",
"153 397 CURVE SMOOTH",
"125 425 OFFCURVE",
"109 464 OFFCURVE",
"109 511 CURVE SMOOTH",
"109 568 OFFCURVE",
"129 618 OFFCURVE",
"164 654 CURVE SMOOTH",
"199 689 OFFCURVE",
"247 710 OFFCURVE",
"302 710 CURVE SMOOTH",
"346 710 OFFCURVE",
"384 693 OFFCURVE",
"412 665 CURVE SMOOTH",
"440 637 OFFCURVE",
"456 596 OFFCURVE",
"456 551 CURVE SMOOTH",
"456 494 OFFCURVE",
"436 444 OFFCURVE",
"401 409 CURVE SMOOTH",
"366 373 OFFCURVE",
"318 352 OFFCURVE",
"263 352 CURVE SMOOTH"
);
},
{
closed = 1;
nodes = (
"303 428 OFFCURVE",
"329 442 OFFCURVE",
"347 464 CURVE SMOOTH",
"365 486 OFFCURVE",
"374 515 OFFCURVE",
"374 550 CURVE SMOOTH",
"374 597 OFFCURVE",
"344 634 OFFCURVE",
"293 634 CURVE SMOOTH",
"262 634 OFFCURVE",
"237 621 OFFCURVE",
"219 599 CURVE SMOOTH",
"201 577 OFFCURVE",
"191 545 OFFCURVE",
"191 512 CURVE SMOOTH",
"191 465 OFFCURVE",
"223 428 OFFCURVE",
"272 428 CURVE SMOOTH"
);
}
);
width = 456;
}
);
unicode = 00B0;
},
{
glyphname = asterisk;
layers = (
{
layerId = "5E034FFB-2FEE-437B-B143-44B7444E4712";
name = "Regular Italic";
paths = (
{
closed = 1;
nodes = (
"178 320 LINE",
"109 380 LINE",
"239 510 LINE",
"95 554 LINE",
"135 641 LINE",
"275 580 LINE",
"302 747 LINE",
"396 747 LINE",
"358 581 LINE",
"510 639 LINE",
"530 554 LINE",
"367 505 LINE",
"443 373 LINE",
"364 323 LINE",
"298 464 LINE"
);
}
);
width = 512;
}
);
leftKerningGroup = quotesingle;
rightKerningGroup = quotesingle;
unicode = 002A;
},
{
glyphname = dagger;
layers = (
{
layerId = "5E034FFB-2FEE-437B-B143-44B7444E4712";
name = "Regular Italic";
paths = (
{
closed = 1;
nodes = (
"123 -200 LINE",
"250 435 LINE",
"71 435 LINE",
"87 516 LINE",
"267 516 LINE",
"312 740 LINE",
"402 740 LINE",
"357 516 LINE",
"534 516 LINE",
"518 435 LINE",
"340 435 LINE",
"213 -200 LINE"
);
}
);
width = 523;
}
);
unicode = 2020;
},
{
glyphname = daggerdbl;
layers = (
{
layerId = "5E034FFB-2FEE-437B-B143-44B7444E4712";
name = "Regular Italic";
paths = (
{
closed = 1;
nodes = (
"129 -200 LINE",
"174 24 LINE",
"-4 24 LINE",
"12 105 LINE",
"190 105 LINE",
"256 435 LINE",
"77 435 LINE",
"93 516 LINE",
"273 516 LINE",
"318 740 LINE",
"408 740 LINE",
"363 516 LINE",
"540 516 LINE",
"524 435 LINE",
"346 435 LINE",
"280 105 LINE",
"459 105 LINE",
"442 24 LINE",
"264 24 LINE",
"219 -200 LINE"
);
}
);
width = 533;
}
);
unicode = 2021;
},
{
glyphname = numbersign;
layers = (
{
layerId = "5E034FFB-2FEE-437B-B143-44B7444E4712";
name = "Regular Italic";
paths = (
{
closed = 1;
nodes = (
"360 191 LINE",
"218 191 LINE",
"147 0 LINE",
"70 0 LINE",
"140 191 LINE",
"23 191 LINE",
"38 263 LINE",
"167 263 LINE",
"230 435 LINE",
"113 435 LINE",
"128 507 LINE",
"257 507 LINE",
"327 698 LINE",
"405 698 LINE",
"334 507 LINE",
"476 507 LINE",
"547 698 LINE",
"625 698 LINE",
"554 507 LINE",
"671 507 LINE",
"657 435 LINE",
"528 435 LINE",
"464 263 LINE",
"581 263 LINE",
"567 191 LINE",
"438 191 LINE",
"367 0 LINE",
"289 0 LINE"
);
},
{
closed = 1;
nodes = (
"386 263 LINE",
"450 435 LINE",
"308 435 LINE",
"244 263 LINE"
);
}
);
width = 663;
}
);
unicode = 0023;
},
{
glyphname = asciicircum;
layers = (
{
layerId = "5E034FFB-2FEE-437B-B143-44B7444E4712";
name = "Regular Italic";
paths = (
{
closed = 1;
nodes = (
"481 289 LINE",
"372 591 LINE",
"365 591 LINE",
"140 289 LINE",
"63 336 LINE",
"330 698 LINE",
"435 698 LINE",
"567 325 LINE"
);
}
);
width = 600;
}
);
unicode = 005E;
},
{
glyphname = asciitilde;
layers = (
{
layerId = "5E034FFB-2FEE-437B-B143-44B7444E4712";
name = "Regular Italic";
paths = (
{
closed = 1;
nodes = (
"357 225 OFFCURVE",
"328 241 OFFCURVE",
"289 264 CURVE SMOOTH",
"257 283 OFFCURVE",
"228 298 OFFCURVE",
"188 298 CURVE SMOOTH",
"157 298 OFFCURVE",
"135 287 OFFCURVE",
"102 266 CURVE",
"72 329 LINE",
"103 361 OFFCURVE",
"141 385 OFFCURVE",
"205 385 CURVE SMOOTH",
"254 385 OFFCURVE",
"283 368 OFFCURVE",
"322 347 CURVE SMOOTH",
"355 328 OFFCURVE",
"384 313 OFFCURVE",
"424 313 CURVE SMOOTH",
"455 313 OFFCURVE",
"477 322 OFFCURVE",
"509 345 CURVE",
"539 281 LINE",
"508 249 OFFCURVE",
"470 225 OFFCURVE",
"406 225 CURVE SMOOTH"
);
}
);
width = 600;
}
);
unicode = 007E;
},
{
glyphname = plus;
layers = (
{
layerId = "5E034FFB-2FEE-437B-B143-44B7444E4712";
name = "Regular Italic";
paths = (
{
closed = 1;
nodes = (
"213 62 LINE",
"252 262 LINE",
"72 262 LINE",
"89 349 LINE",
"270 349 LINE",
"310 548 LINE",
"405 548 LINE",
"366 349 LINE",
"545 349 LINE",
"528 262 LINE",
"348 262 LINE",
"308 62 LINE"
);
}
);
width = 600;
}
);
unicode = 002B;
},
{
glyphname = minus;
layers = (
{
layerId = "5E034FFB-2FEE-437B-B143-44B7444E4712";
name = "Regular Italic";
paths = (
{
closed = 1;
nodes = (
"72 262 LINE",
"89 349 LINE",
"544 349 LINE",
"527 262 LINE"
);
}
);
width = 600;
}
);
unicode = 2212;
},
{
glyphname = plusminus;
layers = (
{
layerId = "5E034FFB-2FEE-437B-B143-44B7444E4712";
name = "Regular Italic";
paths = (
{
closed = 1;
nodes = (
"234 166 LINE",
"271 352 LINE",
"90 352 LINE",
"107 439 LINE",
"288 439 LINE",
"325 625 LINE",
"421 625 LINE",
"384 439 LINE",
"563 439 LINE",
"546 352 LINE",
"366 352 LINE",
"329 166 LINE"
);
},
{
closed = 1;
nodes = (
"21 0 LINE",
"38 87 LINE",
"493 87 LINE",
"476 0 LINE"
);
}
);
width = 600;
}
);
unicode = 00B1;
},
{
glyphname = multiply;
layers = (
{
layerId = "5E034FFB-2FEE-437B-B143-44B7444E4712";
name = "Regular Italic";
paths = (
{
closed = 1;
nodes = (
"302 240 LINE",
"124 85 LINE",
"69 153 LINE",
"248 310 LINE",
"131 464 LINE",
"203 525 LINE",
"319 371 LINE",
"497 525 LINE",
"552 457 LINE",
"373 301 LINE",
"489 147 LINE",
"417 86 LINE"
);
}
);
width = 600;
}
);
unicode = 00D7;
},
{
glyphname = divide;
layers = (
{
layerId = "5E034FFB-2FEE-437B-B143-44B7444E4712";
name = "Regular Italic";
paths = (
{
closed = 1;
nodes = (
"72 262 LINE",
"90 350 LINE",
"546 350 LINE",
"528 262 LINE"
);
},
{
closed = 1;
nodes = (
"215 42 OFFCURVE",
"199 61 OFFCURVE",
"199 85 CURVE SMOOTH",
"199 94 OFFCURVE",
"200 109 OFFCURVE",
"203 120 CURVE",
"211 157 OFFCURVE",
"233 179 OFFCURVE",
"281 179 CURVE SMOOTH",
"326 179 OFFCURVE",
"342 160 OFFCURVE",
"342 135 CURVE SMOOTH",
"342 126 OFFCURVE",
"341 111 OFFCURVE",
"338 100 CURVE",
"330 64 OFFCURVE",
"308 42 OFFCURVE",
"260 42 CURVE SMOOTH"
);
},
{
closed = 1;
nodes = (
"292 431 OFFCURVE",
"276 450 OFFCURVE",
"276 475 CURVE SMOOTH",
"276 484 OFFCURVE",
"277 499 OFFCURVE",
"280 510 CURVE",
"288 546 OFFCURVE",
"310 568 OFFCURVE",
"358 568 CURVE SMOOTH",
"403 568 OFFCURVE",
"419 549 OFFCURVE",
"419 525 CURVE SMOOTH",
"419 516 OFFCURVE",
"418 501 OFFCURVE",
"415 490 CURVE",
"407 453 OFFCURVE",
"385 431 OFFCURVE",
"337 431 CURVE SMOOTH"
);
}
);
width = 600;
}
);
unicode = 00F7;
},
{
glyphname = equal;
layers = (
{
layerId = "5E034FFB-2FEE-437B-B143-44B7444E4712";
name = "Regular Italic";
paths = (
{
closed = 1;
nodes = (
"95 370 LINE",
"112 457 LINE",
"568 457 LINE",
"550 370 LINE"
);
},
{
closed = 1;
nodes = (
"52 155 LINE",
"70 242 LINE",
"525 242 LINE",
"508 155 LINE"
);
}
);
width = 600;
}
);
unicode = 003D;
},
{
glyphname = approxequal;
layers = (
{
layerId = "5E034FFB-2FEE-437B-B143-44B7444E4712";
name = "Regular Italic";
paths = (
{
closed = 1;
nodes = (
"376 332 OFFCURVE",
"347 348 OFFCURVE",
"308 371 CURVE SMOOTH",
"276 390 OFFCURVE",
"247 405 OFFCURVE",
"207 405 CURVE SMOOTH",
"176 405 OFFCURVE",
"154 394 OFFCURVE",
"121 373 CURVE",
"91 436 LINE",
"122 468 OFFCURVE",
"160 492 OFFCURVE",
"224 492 CURVE SMOOTH",
"273 492 OFFCURVE",
"302 475 OFFCURVE",
"341 454 CURVE SMOOTH",
"374 435 OFFCURVE",
"403 420 OFFCURVE",
"443 420 CURVE SMOOTH",
"474 420 OFFCURVE",
"496 429 OFFCURVE",
"528 452 CURVE",
"558 388 LINE",
"527 356 OFFCURVE",
"489 332 OFFCURVE",
"425 332 CURVE SMOOTH"
);
},
{
closed = 1;
nodes = (
"339 120 OFFCURVE",
"310 136 OFFCURVE",
"271 159 CURVE SMOOTH",
"239 178 OFFCURVE",
"210 193 OFFCURVE",
"170 193 CURVE SMOOTH",
"139 193 OFFCURVE",
"117 182 OFFCURVE",
"84 161 CURVE",
"54 224 LINE",
"85 256 OFFCURVE",
"123 280 OFFCURVE",
"187 280 CURVE SMOOTH",
"236 280 OFFCURVE",
"265 263 OFFCURVE",
"304 242 CURVE SMOOTH",
"337 223 OFFCURVE",
"366 208 OFFCURVE",
"406 208 CURVE SMOOTH",
"437 208 OFFCURVE",
"459 217 OFFCURVE",
"491 240 CURVE",
"521 176 LINE",
"490 144 OFFCURVE",
"452 120 OFFCURVE",
"388 120 CURVE SMOOTH"
);
}
);
width = 600;
}
);
unicode = 2248;
},
{
glyphname = notequal;
layers = (
{
layerId = "5E034FFB-2FEE-437B-B143-44B7444E4712";
name = "Regular Italic";
paths = (
{
closed = 1;
nodes = (
"83 56 LINE",
"154 155 LINE",
"52 155 LINE",
"69 242 LINE",
"219 242 LINE",
"309 370 LINE",
"95 370 LINE",
"112 457 LINE",
"370 457 LINE",
"441 555 LINE",
"536 555 LINE",
"465 457 LINE",
"568 457 LINE",
"551 370 LINE",
"401 370 LINE",
"310 242 LINE",
"525 242 LINE",
"508 155 LINE",
"249 155 LINE",
"178 56 LINE"
);
}
);
width = 600;
}
);
unicode = 2260;
},
{
glyphname = less;
layers = (
{
layerId = "5E034FFB-2FEE-437B-B143-44B7444E4712";
name = "Regular Italic";
paths = (
{
closed = 1;
nodes = (
"96 249 LINE",
"113 330 LINE",
"564 582 LINE",
"541 465 LINE",
"213 287 LINE",
"211 279 LINE",
"468 97 LINE",
"446 -8 LINE"
);
}
);
width = 600;
}
);
unicode = 003C;
},
{
glyphname = greater;
layers = (
{
layerId = "5E034FFB-2FEE-437B-B143-44B7444E4712";
name = "Regular Italic";
paths = (
{
closed = 1;
nodes = (
"72 109 LINE",
"401 291 LINE",
"403 299 LINE",
"146 477 LINE",
"167 582 LINE",
"517 329 LINE",
"501 248 LINE",
"49 -8 LINE"
);
}
);
width = 600;
}
);
unicode = 003E;
},
{
glyphname = lessequal;
layers = (
{
layerId = "5E034FFB-2FEE-437B-B143-44B7444E4712";
name = "Regular Italic";
paths = (
{
closed = 1;
nodes = (
"42 0 LINE",
"60 87 LINE",
"471 87 LINE",
"454 0 LINE"
);
},
{
closed = 1;
nodes = (
"552 496 LINE",
"222 367 LINE",
"221 360 LINE",
"499 225 LINE",
"480 130 LINE",
"105 319 LINE",
"125 415 LINE",
"573 599 LINE"
);
}
);
width = 600;
}
);
unicode = 2264;
},
{
glyphname = greaterequal;
layers = (
{
layerId = "5E034FFB-2FEE-437B-B143-44B7444E4712";
name = "Regular Italic";
paths = (
{
closed = 1;
nodes = (
"90 234 LINE",
"419 363 LINE",
"420 370 LINE",
"142 504 LINE",
"162 600 LINE",
"536 410 LINE",
"517 314 LINE",
"69 132 LINE"
);
},
{
closed = 1;
nodes = (
"61 87 LINE",
"472 87 LINE",
"454 0 LINE",
"43 0 LINE"
);
}
);
width = 600;
}
);
unicode = 2265;
},
{
glyphname = periodcentered;
layers = (
{
layerId = "5E034FFB-2FEE-437B-B143-44B7444E4712";
name = "Regular Italic";
paths = (
{
closed = 1;
nodes = (
"115 229 OFFCURVE",
"96 250 OFFCURVE",
"96 278 CURVE SMOOTH",
"96 289 OFFCURVE",
"98 306 OFFCURVE",
"101 317 CURVE",
"108 352 OFFCURVE",
"131 380 OFFCURVE",
"180 380 CURVE SMOOTH",
"223 380 OFFCURVE",
"242 359 OFFCURVE",
"242 331 CURVE SMOOTH",
"242 322 OFFCURVE",
"240 304 OFFCURVE",
"237 292 CURVE",
"230 257 OFFCURVE",
"209 229 OFFCURVE",
"158 229 CURVE SMOOTH"
);
}
);
width = 332;
}
);
unicode = 00B7;
},
{
glyphname = bullet;
layers = (
{
layerId = "5E034FFB-2FEE-437B-B143-44B7444E4712";
name = "Regular Italic";
paths = (
{
closed = 1;
nodes = (
"104 167 OFFCURVE",
"72 202 OFFCURVE",
"72 254 CURVE SMOOTH",
"72 258 OFFCURVE",
"73 265 OFFCURVE",
"74 275 CURVE SMOOTH",
"75 285 OFFCURVE",
"77 298 OFFCURVE",
"80 313 CURVE SMOOTH",
"93 378 OFFCURVE",
"136 427 OFFCURVE",
"229 427 CURVE SMOOTH",
"312 427 OFFCURVE",
"345 392 OFFCURVE",
"345 340 CURVE SMOOTH",
"345 336 OFFCURVE",
"345 329 OFFCURVE",
"344 319 CURVE SMOOTH",
"343 309 OFFCURVE",
"340 296 OFFCURVE",
"337 281 CURVE SMOOTH",
"324 216 OFFCURVE",
"281 167 OFFCURVE",
"188 167 CURVE SMOOTH"
);
}
);
width = 401;
}
);
unicode = 2022;
},
{
glyphname = lozenge;
layers = (
{
layerId = "5E034FFB-2FEE-437B-B143-44B7444E4712";
name = "Regular Italic";
paths = (
{
closed = 1;
nodes = (
"213 0 LINE",
"75 351 LINE",
"340 698 LINE",
"419 698 LINE",
"557 347 LINE",
"293 0 LINE"
);
},
{
closed = 1;
nodes = (
"272 105 LINE",
"460 353 LINE",
"367 593 LINE",
"360 593 LINE",
"173 345 LINE",
"266 105 LINE"
);
}
);
width = 599;
}
);
unicode = 25CA;
},
{
glyphname = logicalnot;
layers = (
{
layerId = "5E034FFB-2FEE-437B-B143-44B7444E4712";
name = "Regular Italic";
paths = (
{
closed = 1;
nodes = (
"395 78 LINE",
"432 262 LINE",
"67 262 LINE",
"85 350 LINE",
"539 350 LINE",
"484 78 LINE"
);
}
);
width = 600;
}
);
unicode = 00AC;
},
{
glyphname = radical;
layers = (
{
layerId = "5E034FFB-2FEE-437B-B143-44B7444E4712";
name = "Regular Italic";
paths = (
{
closed = 1;
nodes = (
"178 0 LINE",
"145 433 LINE",
"58 433 LINE",
"76 520 LINE",
"233 520 LINE",
"246 338 LINE",
"259 82 LINE",
"265 82 LINE",
"379 338 LINE",
"550 698 LINE",
"649 698 LINE",
"316 0 LINE"
);
}
);
width = 589;
}
);
unicode = 221A;
},
{
glyphname = integral;
layers = (
{
layerId = "5E034FFB-2FEE-437B-B143-44B7444E4712";
name = "Regular Italic";
paths = (
{
closed = 1;
nodes = (
"-27 -113 LINE",
"84 -113 LINE",
"229 608 LINE SMOOTH",
"245 691 OFFCURVE",
"291 740 OFFCURVE",
"384 740 CURVE SMOOTH",
"471 740 LINE",
"453 653 LINE",
"341 653 LINE",
"196 -69 LINE SMOOTH",
"180 -152 OFFCURVE",
"134 -200 OFFCURVE",
"42 -200 CURVE SMOOTH",
"-45 -200 LINE"
);
}
);
width = 430;
}
);
unicode = 222B;
},
{
glyphname = infinity;
layers = (
{
layerId = "5E034FFB-2FEE-437B-B143-44B7444E4712";
name = "Regular Italic";
paths = (
{
closed = 1;
nodes = (
"74 102 OFFCURVE",
"18 153 OFFCURVE",
"18 252 CURVE SMOOTH",
"18 321 OFFCURVE",
"41 382 OFFCURVE",
"81 426 CURVE SMOOTH",
"120 470 OFFCURVE",
"175 496 OFFCURVE",
"242 496 CURVE SMOOTH",
"281 496 OFFCURVE",
"317 487 OFFCURVE",
"346 466 CURVE SMOOTH",
"374 445 OFFCURVE",
"397 410 OFFCURVE",
"406 358 CURVE",
"410 358 LINE",
"445 457 OFFCURVE",
"513 496 OFFCURVE",
"589 496 CURVE SMOOTH",
"686 496 OFFCURVE",
"741 445 OFFCURVE",
"741 345 CURVE SMOOTH",
"741 276 OFFCURVE",
"718 215 OFFCURVE",
"679 172 CURVE SMOOTH",
"639 128 OFFCURVE",
"584 102 OFFCURVE",
"517 102 CURVE SMOOTH",
"478 102 OFFCURVE",
"442 111 OFFCURVE",
"414 132 CURVE",
"385 152 OFFCURVE",
"362 187 OFFCURVE",
"353 239 CURVE",
"349 239 LINE",
"314 140 OFFCURVE",
"246 102 OFFCURVE",
"170 102 CURVE SMOOTH"
);
},
{
closed = 1;
nodes = (
"253 189 OFFCURVE",
"300 224 OFFCURVE",
"335 294 CURVE",
"327 362 OFFCURVE",
"304 409 OFFCURVE",
"241 409 CURVE SMOOTH",
"185 409 OFFCURVE",
"140 377 OFFCURVE",
"125 313 CURVE",
"118 288 OFFCURVE",
"116 274 OFFCURVE",
"116 259 CURVE SMOOTH",
"116 212 OFFCURVE",
"144 189 OFFCURVE",
"192 189 CURVE SMOOTH"
);
},
{
closed = 1;
nodes = (
"574 189 OFFCURVE",
"619 220 OFFCURVE",
"634 284 CURVE",
"641 309 OFFCURVE",
"643 323 OFFCURVE",
"643 338 CURVE SMOOTH",
"643 385 OFFCURVE",
"615 409 OFFCURVE",
"567 409 CURVE SMOOTH",
"506 409 OFFCURVE",
"459 372 OFFCURVE",
"424 303 CURVE",
"432 235 OFFCURVE",
"455 189 OFFCURVE",
"518 189 CURVE SMOOTH"
);
}
);
width = 746;
}
);
unicode = 221E;
},
{
glyphname = uni212E;
layers = (
{
layerId = "5E034FFB-2FEE-437B-B143-44B7444E4712";
name = "Regular Italic";
paths = (
{
closed = 1;
nodes = (
"194 100 LINE",
"234 67 OFFCURVE",
"288 43 OFFCURVE",
"360 43 CURVE SMOOTH",
"480 43 OFFCURVE",
"556 103 OFFCURVE",
"604 192 CURVE",
"654 164 LINE",
"627 113 OFFCURVE",
"589 70 OFFCURVE",
"541 39 CURVE SMOOTH",
"492 7 OFFCURVE",
"431 -12 OFFCURVE",
"360 -12 CURVE SMOOTH",
"265 -12 OFFCURVE",
"185 23 OFFCURVE",
"126 86 CURVE SMOOTH",
"67 149 OFFCURVE",
"33 238 OFFCURVE",
"33 349 CURVE SMOOTH",
"33 458 OFFCURVE",
"67 549 OFFCURVE",
"126 612 CURVE SMOOTH",
"185 675 OFFCURVE",
"265 710 OFFCURVE",
"360 710 CURVE SMOOTH",
"453 710 OFFCURVE",
"535 675 OFFCURVE",
"594 612 CURVE SMOOTH",
"653 549 OFFCURVE",
"687 458 OFFCURVE",
"687 349 CURVE",
"194 349 LINE"
);
},
{
closed = 1;
nodes = (
"526 401 LINE",
"526 601 LINE",
"486 634 OFFCURVE",
"432 658 OFFCURVE",
"360 658 CURVE SMOOTH",
"288 658 OFFCURVE",
"234 634 OFFCURVE",
"194 601 CURVE",
"194 401 LINE"
);
}
);
width = 721;
}
);
unicode = 212E;
},
{
glyphname = uni2113;
layers = (
{
layerId = "5E034FFB-2FEE-437B-B143-44B7444E4712";
name = "Regular Italic";
paths = (
{
closed = 1;
nodes = (
"185 -12 OFFCURVE",
"123 55 OFFCURVE",
"123 159 CURVE SMOOTH",
"123 173 LINE",
"116 168 OFFCURVE",
"107 162 OFFCURVE",
"96 155 CURVE SMOOTH",
"85 148 OFFCURVE",
"75 142 OFFCURVE",
"68 137 CURVE",
"26 206 LINE",
"58 225 OFFCURVE",
"98 247 OFFCURVE",
"123 267 CURVE",
"123 552 LINE SMOOTH",
"123 625 OFFCURVE",
"138 676 OFFCURVE",
"166 708 CURVE SMOOTH",
"193 739 OFFCURVE",
"231 752 OFFCURVE",
"275 752 CURVE SMOOTH",
"374 752 OFFCURVE",
"425 690 OFFCURVE",
"425 581 CURVE SMOOTH",
"425 453 OFFCURVE",
"352 346 OFFCURVE",
"215 230 CURVE",
"215 175 LINE SMOOTH",
"215 103 OFFCURVE",
"243 75 OFFCURVE",
"288 75 CURVE SMOOTH",
"339 75 OFFCURVE",
"373 111 OFFCURVE",
"404 187 CURVE",
"481 153 LINE",
"464 106 OFFCURVE",
"439 65 OFFCURVE",
"407 36 CURVE SMOOTH",
"374 7 OFFCURVE",
"332 -12 OFFCURVE",
"281 -12 CURVE SMOOTH"
);
},
{
closed = 1;
nodes = (
"241 664 OFFCURVE",
"215 640 OFFCURVE",
"215 568 CURVE SMOOTH",
"215 334 LINE",
"288 407 OFFCURVE",
"332 485 OFFCURVE",
"332 564 CURVE SMOOTH",
"332 581 LINE SMOOTH",
"332 641 OFFCURVE",
"308 664 OFFCURVE",
"276 664 CURVE SMOOTH"
);
}
);
width = 507;
}
);
unicode = 2113;
},
{
glyphname = uni2116;
layers = (
{
layerId = "5E034FFB-2FEE-437B-B143-44B7444E4712";
name = "Regular Italic";
paths = (
{
closed = 1;
nodes = (
"759 362 OFFCURVE",
"701 414 OFFCURVE",
"701 501 CURVE SMOOTH",
"701 554 OFFCURVE",
"718 606 OFFCURVE",
"750 645 CURVE SMOOTH",
"782 684 OFFCURVE",
"829 710 OFFCURVE",
"890 710 CURVE SMOOTH",
"927 710 OFFCURVE",
"961 697 OFFCURVE",
"985 673 CURVE SMOOTH",
"1009 649 OFFCURVE",
"1024 615 OFFCURVE",
"1024 572 CURVE SMOOTH",
"1024 519 OFFCURVE",
"1007 467 OFFCURVE",
"975 428 CURVE SMOOTH",
"943 388 OFFCURVE",
"896 362 OFFCURVE",
"836 362 CURVE SMOOTH"
);
},
{
closed = 1;
nodes = (
"32 0 LINE",
"172 698 LINE",
"294 698 LINE",
"414 314 LINE",
"456 161 LINE",
"461 161 LINE",
"568 698 LINE",
"668 698 LINE",
"528 0 LINE",
"406 0 LINE",
"288 380 LINE",
"244 537 LINE",
"239 537 LINE",
"132 0 LINE"
);
},
{
closed = 1;
nodes = (
"888 428 OFFCURVE",
"919 458 OFFCURVE",
"931 517 CURVE SMOOTH",
"939 557 LINE SMOOTH",
"941 567 OFFCURVE",
"942 576 OFFCURVE",
"942 583 CURVE SMOOTH",
"942 622 OFFCURVE",
"921 644 OFFCURVE",
"881 644 CURVE SMOOTH",
"836 644 OFFCURVE",
"808 615 OFFCURVE",
"795 556 CURVE SMOOTH",
"786 515 LINE SMOOTH",
"784 505 OFFCURVE",
"783 497 OFFCURVE",
"783 490 CURVE SMOOTH",
"783 451 OFFCURVE",
"804 428 OFFCURVE",
"845 428 CURVE SMOOTH"
);
},
{
closed = 1;
nodes = (
"659 233 LINE",
"673 303 LINE",
"959 303 LINE",
"945 233 LINE"
);
}
);
width = 1007;
}
);
unicode = 2116;
},
{
glyphname = partialdiff;
layers = (
{
layerId = "5E034FFB-2FEE-437B-B143-44B7444E4712";
name = "Regular Italic";
paths = (
{
closed = 1;
nodes = (
"112 -12 OFFCURVE",
"41 72 OFFCURVE",
"41 201 CURVE SMOOTH",
"41 284 OFFCURVE",
"66 359 OFFCURVE",
"109 415 CURVE SMOOTH",
"152 470 OFFCURVE",
"212 504 OFFCURVE",
"280 504 CURVE SMOOTH",
"352 504 OFFCURVE",
"398 465 OFFCURVE",
"418 405 CURVE",
"424 406 LINE",
"416 471 OFFCURVE",
"383 530 OFFCURVE",
"342 580 CURVE SMOOTH",
"301 630 OFFCURVE",
"249 670 OFFCURVE",
"205 698 CURVE",
"351 698 LINE",
"396 663 OFFCURVE",
"438 617 OFFCURVE",
"470 560 CURVE SMOOTH",
"501 503 OFFCURVE",
"521 433 OFFCURVE",
"521 352 CURVE SMOOTH",
"521 245 OFFCURVE",
"496 154 OFFCURVE",
"448 90 CURVE SMOOTH",
"400 26 OFFCURVE",
"329 -12 OFFCURVE",
"240 -12 CURVE SMOOTH"
);
},
{
closed = 1;
nodes = (
"323 75 OFFCURVE",
"374 128 OFFCURVE",
"389 208 CURVE SMOOTH",
"400 268 LINE SMOOTH",
"404 288 OFFCURVE",
"406 304 OFFCURVE",
"406 317 CURVE SMOOTH",
"406 381 OFFCURVE",
"365 418 OFFCURVE",
"300 418 CURVE SMOOTH",
"228 418 OFFCURVE",
"177 364 OFFCURVE",
"162 284 CURVE SMOOTH",
"151 223 LINE",
"150 214 OFFCURVE",
"148 205 OFFCURVE",
"147 198 CURVE SMOOTH",
"146 190 OFFCURVE",
"145 182 OFFCURVE",
"145 175 CURVE SMOOTH",
"145 111 OFFCURVE",
"186 75 OFFCURVE",
"251 75 CURVE SMOOTH"
);
}
);
width = 566;
}
);
unicode = 2202;
},
{
glyphname = cent;
layers = (
{
layerId = "5E034FFB-2FEE-437B-B143-44B7444E4712";
name = "Regular Italic";
paths = (
{
closed = 1;
nodes = (
"179 -4 LINE",
"94 19 OFFCURVE",
"42 96 OFFCURVE",
"42 209 CURVE SMOOTH",
"42 289 OFFCURVE",
"65 365 OFFCURVE",
"107 422 CURVE SMOOTH",
"149 479 OFFCURVE",
"209 518 OFFCURVE",
"285 526 CURVE",
"306 630 LINE",
"392 630 LINE",
"370 522 LINE",
"435 506 OFFCURVE",
"478 463 OFFCURVE",
"497 404 CURVE",
"412 364 LINE",
"401 401 OFFCURVE",
"382 426 OFFCURVE",
"347 437 CURVE",
"276 76 LINE",
"319 84 OFFCURVE",
"350 112 OFFCURVE",
"381 164 CURVE",
"456 122 LINE",
"412 43 OFFCURVE",
"352 -2 OFFCURVE",
"264 -10 CURVE",
"243 -114 LINE",
"157 -114 LINE"
);
},
{
closed = 1;
nodes = (
"143 136 OFFCURVE",
"162 98 OFFCURVE",
"201 82 CURVE",
"272 437 LINE",
"213 422 OFFCURVE",
"177 376 OFFCURVE",
"164 308 CURVE SMOOTH",
"147 222 LINE",
"144 211 OFFCURVE",
"143 198 OFFCURVE",
"143 183 CURVE SMOOTH"
);
}
);
width = 517;
}
);
unicode = 00A2;
},
{
glyphname = Euro;
layers = (
{
layerId = "5E034FFB-2FEE-437B-B143-44B7444E4712";
name = "Regular Italic";
paths = (
{
closed = 1;
nodes = (
"223 -12 OFFCURVE",
"166 12 OFFCURVE",
"123 60 CURVE SMOOTH",
"80 108 OFFCURVE",
"55 179 OFFCURVE",
"55 272 CURVE SMOOTH",
"55 397 OFFCURVE",
"94 508 OFFCURVE",
"156 586 CURVE SMOOTH",
"218 664 OFFCURVE",
"304 710 OFFCURVE",
"399 710 CURVE SMOOTH",
"512 710 OFFCURVE",
"588 662 OFFCURVE",
"621 570 CURVE",
"533 518 LINE",
"512 583 OFFCURVE",
"472 618 OFFCURVE",
"392 618 CURVE SMOOTH",
"307 618 OFFCURVE",
"238 560 OFFCURVE",
"205 467 CURVE",
"447 467 LINE",
"431 391 LINE",
"187 391 LINE",
"170 307 LINE",
"415 307 LINE",
"399 231 LINE",
"163 231 LINE",
"167 139 OFFCURVE",
"220 80 OFFCURVE",
"301 80 CURVE SMOOTH",
"346 80 OFFCURVE",
"380 91 OFFCURVE",
"408 111 CURVE SMOOTH",
"436 131 OFFCURVE",
"457 159 OFFCURVE",
"476 192 CURVE",
"546 133 LINE",
"487 41 OFFCURVE",
"414 -12 OFFCURVE",
"290 -12 CURVE SMOOTH"
);
}
);
width = 607;
}
);
unicode = 20AC;
},
{
glyphname = florin;
layers = (
{
layerId = "5E034FFB-2FEE-437B-B143-44B7444E4712";
name = "Regular Italic";
paths = (
{
closed = 1;
nodes = (
"-47 -47 LINE",
"84 -47 LINE",
"173 281 LINE",
"60 281 LINE",
"78 371 LINE",
"199 371 LINE",
"254 573 LINE SMOOTH",
"275 652 OFFCURVE",
"326 698 OFFCURVE",
"414 698 CURVE SMOOTH",
"527 698 LINE",
"509 611 LINE",
"370 611 LINE",
"306 371 LINE",
"458 371 LINE",
"440 281 LINE",
"281 281 LINE",
"202 -10 LINE SMOOTH",
"179 -91 OFFCURVE",
"129 -134 OFFCURVE",
"41 -134 CURVE SMOOTH",
"-65 -134 LINE"
);
}
);
width = 478;
}
);
unicode = 0192;
},
{
glyphname = sterling;
layers = (
{
layerId = "5E034FFB-2FEE-437B-B143-44B7444E4712";
name = "Regular Italic";
paths = (
{
closed = 1;
nodes = (
"28 0 LINE",
"51 116 LINE",
"91 132 OFFCURVE",
"116 161 OFFCURVE",
"132 193 CURVE SMOOTH",
"148 224 OFFCURVE",
"153 259 OFFCURVE",
"153 290 CURVE",
"60 290 LINE",
"78 379 LINE",
"145 379 LINE",
"142 402 OFFCURVE",
"139 427 OFFCURVE",
"139 452 CURVE SMOOTH",
"139 525 OFFCURVE",
"166 591 OFFCURVE",
"212 637 CURVE SMOOTH",
"258 683 OFFCURVE",
"322 710 OFFCURVE",
"401 710 CURVE SMOOTH",
"504 710 OFFCURVE",
"565 668 OFFCURVE",
"606 592 CURVE",
"518 536 LINE",
"491 587 OFFCURVE",
"456 614 OFFCURVE",
"393 614 CURVE SMOOTH",
"304 614 OFFCURVE",
"248 552 OFFCURVE",
"248 444 CURVE SMOOTH",
"248 421 OFFCURVE",
"250 396 OFFCURVE",
"253 379 CURVE",
"454 379 LINE",
"436 290 LINE",
"262 290 LINE",
"261 243 OFFCURVE",
"246 204 OFFCURVE",
"226 173 CURVE SMOOTH",
"206 141 OFFCURVE",
"180 116 OFFCURVE",
"156 103 CURVE",
"154 96 LINE",
"493 96 LINE",
"474 0 LINE"
);
}
);
width = 584;
}
);
unicode = 00A3;
},
{
glyphname = dollar;
layers = (
{
layerId = "5E034FFB-2FEE-437B-B143-44B7444E4712";
name = "Regular Italic";
paths = (
{
closed = 1;
nodes = (
"187 6 LINE",
"106 18 OFFCURVE",
"39 56 OFFCURVE",
"4 116 CURVE",
"78 181 LINE",
"106 130 OFFCURVE",
"152 101 OFFCURVE",
"211 92 CURVE",
"256 320 LINE",
"143 343 OFFCURVE",
"91 399 OFFCURVE",
"91 490 CURVE SMOOTH",
"91 546 OFFCURVE",
"112 595 OFFCURVE",
"152 632 CURVE SMOOTH",
"192 668 OFFCURVE",
"251 692 OFFCURVE",
"327 696 CURVE",
"344 780 LINE",
"425 780 LINE",
"407 690 LINE",
"479 678 OFFCURVE",
"534 644 OFFCURVE",
"565 591 CURVE",
"489 528 LINE",
"470 563 OFFCURVE",
"434 593 OFFCURVE",
"383 604 CURVE",
"342 397 LINE",
"458 373 OFFCURVE",
"513 318 OFFCURVE",
"513 226 CURVE SMOOTH",
"513 170 OFFCURVE",
"491 116 OFFCURVE",
"451 76 CURVE SMOOTH",
"410 36 OFFCURVE",
"348 8 OFFCURVE",
"268 3 CURVE",
"252 -82 LINE",
"170 -82 LINE"
);
},
{
closed = 1;
nodes = (
"408 257 OFFCURVE",
"386 290 OFFCURVE",
"323 305 CURVE",
"281 91 LINE",
"369 100 OFFCURVE",
"408 153 OFFCURVE",
"408 212 CURVE SMOOTH"
);
},
{
closed = 1;
nodes = (
"195 456 OFFCURVE",
"222 426 OFFCURVE",
"275 413 CURVE",
"313 608 LINE",
"237 601 OFFCURVE",
"195 559 OFFCURVE",
"195 502 CURVE SMOOTH"
);
}
);
width = 571;
}
);
unicode = 0024;
},
{
glyphname = yen;
layers = (
{
layerId = "5E034FFB-2FEE-437B-B143-44B7444E4712";
name = "Regular Italic";
paths = (
{
closed = 1;
nodes = (
"334 142 LINE",
"306 0 LINE",
"198 0 LINE",
"226 142 LINE",
"61 142 LINE",
"76 218 LINE",
"242 218 LINE",
"258 301 LINE",
"93 301 LINE",
"108 377 LINE",
"228 377 LINE",
"119 698 LINE",
"234 698 LINE",
"327 402 LINE",
"331 402 LINE",
"542 698 LINE",
"668 698 LINE",
"428 377 LINE",
"550 377 LINE",
"535 301 LINE",
"366 301 LINE",
"350 218 LINE",
"518 218 LINE",
"503 142 LINE"
);
}
);
width = 608;
}
);
unicode = 00A5;
},
{
glyphname = uni0E3F;
layers = (
{
layerId = "5E034FFB-2FEE-437B-B143-44B7444E4712";
name = "Regular Italic";
paths = (
{
closed = 1;
nodes = (
"287 -85 LINE",
"200 -85 LINE",
"221 20 LINE",
"36 20 LINE",
"168 677 LINE",
"352 677 LINE",
"373 780 LINE",
"460 780 LINE",
"439 677 LINE",
"552 676 OFFCURVE",
"611 618 OFFCURVE",
"611 533 CURVE SMOOTH",
"611 449 OFFCURVE",
"556 392 OFFCURVE",
"476 369 CURVE",
"475 365 LINE",
"535 350 OFFCURVE",
"573 304 OFFCURVE",
"573 233 CURVE SMOOTH",
"573 181 OFFCURVE",
"551 127 OFFCURVE",
"511 87 CURVE SMOOTH",
"471 47 OFFCURVE",
"412 20 OFFCURVE",
"340 20 CURVE SMOOTH",
"308 20 LINE"
);
},
{
closed = 1;
nodes = (
"301 400 LINE",
"338 585 LINE",
"253 585 LINE",
"217 400 LINE"
);
},
{
closed = 1;
nodes = (
"379 400 LINE",
"384 400 LINE SMOOTH",
"440 400 OFFCURVE",
"480 424 OFFCURVE",
"491 475 CURVE SMOOTH",
"496 499 OFFCURVE",
"499 513 OFFCURVE",
"499 525 CURVE SMOOTH",
"499 568 OFFCURVE",
"470 585 OFFCURVE",
"423 585 CURVE SMOOTH",
"416 585 LINE"
);
},
{
closed = 1;
nodes = (
"244 112 LINE",
"284 311 LINE",
"199 311 LINE",
"159 112 LINE"
);
},
{
closed = 1;
nodes = (
"322 112 LINE",
"350 112 LINE SMOOTH",
"407 112 OFFCURVE",
"446 138 OFFCURVE",
"457 195 CURVE",
"464 224 OFFCURVE",
"466 237 OFFCURVE",
"466 250 CURVE SMOOTH",
"466 291 OFFCURVE",
"436 311 OFFCURVE",
"384 311 CURVE SMOOTH",
"362 311 LINE"
);
}
);
width = 627;
}
);
unicode = 0E3F;
},
{
glyphname = uni20A1;
layers = (
{
layerId = "5E034FFB-2FEE-437B-B143-44B7444E4712";
name = "Regular Italic";
paths = (
{
closed = 1;
nodes = (
"110 -82 LINE",
"147 45 LINE",
"88 89 OFFCURVE",
"50 162 OFFCURVE",
"50 277 CURVE SMOOTH",
"50 381 OFFCURVE",
"78 478 OFFCURVE",
"128 551 CURVE SMOOTH",
"178 624 OFFCURVE",
"251 676 OFFCURVE",
"340 691 CURVE",
"366 780 LINE",
"434 780 LINE",
"410 696 LINE",
"427 696 OFFCURVE",
"442 694 OFFCURVE",
"456 690 CURVE",
"482 780 LINE",
"550 780 LINE",
"518 669 LINE",
"561 645 OFFCURVE",
"593 609 OFFCURVE",
"614 560 CURVE",
"527 510 LINE",
"519 535 OFFCURVE",
"506 556 OFFCURVE",
"487 573 CURVE",
"347 100 LINE",
"402 112 OFFCURVE",
"437 145 OFFCURVE",
"469 200 CURVE",
"539 144 LINE",
"484 59 OFFCURVE",
"423 13 OFFCURVE",
"320 4 CURVE",
"294 -82 LINE",
"226 -82 LINE",
"252 4 LINE",
"235 5 OFFCURVE",
"221 9 OFFCURVE",
"206 14 CURVE",
"178 -82 LINE"
);
},
{
closed = 1;
nodes = (
"232 105 LINE",
"247 98 OFFCURVE",
"263 94 OFFCURVE",
"280 93 CURVE",
"430 600 LINE",
"415 605 OFFCURVE",
"399 607 OFFCURVE",
"381 607 CURVE"
);
},
{
closed = 1;
nodes = (
"154 207 OFFCURVE",
"164 177 OFFCURVE",
"181 152 CURVE",
"312 594 LINE",
"247 567 OFFCURVE",
"202 508 OFFCURVE",
"183 417 CURVE SMOOTH",
"160 302 LINE",
"159 293 OFFCURVE",
"157 283 OFFCURVE",
"156 274 CURVE SMOOTH",
"155 265 OFFCURVE",
"154 255 OFFCURVE",
"154 246 CURVE SMOOTH"
);
}
);
width = 601;
}
);
unicode = 20A1;
},
{
glyphname = uni20A4;
layers = (
{
layerId = "5E034FFB-2FEE-437B-B143-44B7444E4712";
name = "Regular Italic";
paths = (
{
closed = 1;
nodes = (
"474 0 LINE",
"28 0 LINE",
"51 116 LINE",
"102 137 OFFCURVE",
"133 176 OFFCURVE",
"145 233 CURVE",
"47 233 LINE",
"62 309 LINE",
"157 309 LINE",
"156 324 OFFCURVE",
"155 339 OFFCURVE",
"154 352 CURVE",
"152 365 OFFCURVE",
"150 377 OFFCURVE",
"149 388 CURVE",
"78 388 LINE",
"93 464 LINE",
"144 464 LINE",
"136 536 OFFCURVE",
"155 597 OFFCURVE",
"199 641 CURVE SMOOTH",
"242 684 OFFCURVE",
"309 710 OFFCURVE",
"396 710 CURVE SMOOTH",
"496 710 OFFCURVE",
"564 668 OFFCURVE",
"605 592 CURVE",
"519 537 LINE",
"492 590 OFFCURVE",
"448 616 OFFCURVE",
"385 616 CURVE SMOOTH",
"294 616 OFFCURVE",
"245 567 OFFCURVE",
"253 464 CURVE",
"462 464 LINE",
"447 388 LINE",
"258 388 LINE",
"259 373 OFFCURVE",
"261 359 OFFCURVE",
"262 346 CURVE SMOOTH",
"263 333 OFFCURVE",
"264 320 OFFCURVE",
"265 309 CURVE",
"431 309 LINE",
"416 233 LINE",
"253 233 LINE",
"246 201 OFFCURVE",
"231 173 OFFCURVE",
"212 151 CURVE SMOOTH",
"193 129 OFFCURVE",
"172 111 OFFCURVE",
"155 102 CURVE",
"153 95 LINE",
"493 95 LINE"
);
}
);
width = 583;
}
);
unicode = 20A4;
},
{
glyphname = uni20A6;
layers = (
{
layerId = "5E034FFB-2FEE-437B-B143-44B7444E4712";
name = "Regular Italic";
paths = (
{
closed = 1;
nodes = (
"367 238 LINE",
"197 238 LINE",
"149 0 LINE",
"53 0 LINE",
"100 234 LINE",
"25 234 LINE",
"40 310 LINE",
"115 310 LINE",
"132 393 LINE",
"57 393 LINE",
"72 469 LINE",
"147 469 LINE",
"193 698 LINE",
"317 698 LINE",
"391 465 LINE",
"567 465 LINE",
"614 698 LINE",
"709 698 LINE",
"663 469 LINE",
"734 469 LINE",
"719 393 LINE",
"648 393 LINE",
"631 310 LINE",
"702 310 LINE",
"687 234 LINE",
"616 234 LINE",
"569 0 LINE",
"443 0 LINE"
);
},
{
closed = 1;
nodes = (
"345 306 LINE",
"309 412 LINE",
"263 561 LINE",
"260 561 LINE",
"209 306 LINE"
);
},
{
closed = 1;
nodes = (
"446 298 LINE",
"497 131 LINE",
"500 131 LINE",
"553 397 LINE",
"414 397 LINE"
);
}
);
width = 722;
}
);
unicode = 20A6;
},
{
glyphname = uni20A8;
layers = (
{
layerId = "5E034FFB-2FEE-437B-B143-44B7444E4712";
name = "Regular Italic";
paths = (
{
closed = 1;
nodes = (
"172 698 LINE",
"353 698 LINE SMOOTH",
"457 698 OFFCURVE",
"519 645 OFFCURVE",
"519 548 CURVE SMOOTH",
"519 448 OFFCURVE",
"471 360 OFFCURVE",
"380 325 CURVE",
"436 167 LINE SMOOTH",
"460 100 OFFCURVE",
"489 73 OFFCURVE",
"540 73 CURVE SMOOTH",
"584 73 OFFCURVE",
"610 99 OFFCURVE",
"610 136 CURVE SMOOTH",
"610 157 OFFCURVE",
"599 181 OFFCURVE",
"578 206 CURVE SMOOTH",
"558 230 LINE SMOOTH",
"527 267 OFFCURVE",
"507 303 OFFCURVE",
"507 351 CURVE SMOOTH",
"507 392 OFFCURVE",
"525 429 OFFCURVE",
"554 457 CURVE SMOOTH",
"582 484 OFFCURVE",
"623 501 OFFCURVE",
"671 501 CURVE SMOOTH",
"707 501 OFFCURVE",
"752 493 OFFCURVE",
"780 470 CURVE",
"731 399 LINE",
"716 412 OFFCURVE",
"693 419 OFFCURVE",
"670 419 CURVE SMOOTH",
"634 419 OFFCURVE",
"607 395 OFFCURVE",
"607 360 CURVE SMOOTH",
"607 337 OFFCURVE",
"618 318 OFFCURVE",
"641 290 CURVE",
"661 268 LINE SMOOTH",
"694 231 OFFCURVE",
"713 194 OFFCURVE",
"713 150 CURVE SMOOTH",
"713 105 OFFCURVE",
"698 64 OFFCURVE",
"667 35 CURVE SMOOTH",
"635 6 OFFCURVE",
"589 -12 OFFCURVE",
"525 -12 CURVE SMOOTH",
"437 -12 OFFCURVE",
"377 28 OFFCURVE",
"342 128 CURVE SMOOTH",
"280 302 LINE",
"199 302 LINE",
"139 0 LINE",
"32 0 LINE"
);
},
{
closed = 1;
nodes = (
"293 394 LINE SMOOTH",
"349 394 OFFCURVE",
"387 425 OFFCURVE",
"398 478 CURVE SMOOTH",
"406 519 LINE",
"409 529 OFFCURVE",
"410 539 OFFCURVE",
"410 548 CURVE SMOOTH",
"410 584 OFFCURVE",
"383 606 OFFCURVE",
"338 606 CURVE SMOOTH",
"259 606 LINE",
"217 394 LINE"
);
}
);
width = 783;
}
);
unicode = 20A8;
},
{
glyphname = uni20A9;
layers = (
{
layerId = "5E034FFB-2FEE-437B-B143-44B7444E4712";
name = "Regular Italic";
paths = (
{
closed = 1;
nodes = (
"493 239 LINE",
"363 239 LINE",
"269 0 LINE",
"143 0 LINE",
"143 235 LINE",
"26 235 LINE",
"41 311 LINE",
"144 311 LINE",
"144 393 LINE",
"58 393 LINE",
"73 469 LINE",
"145 469 LINE",
"145 698 LINE",
"249 698 LINE",
"243 465 LINE",
"369 465 LINE",
"463 698 LINE",
"575 698 LINE",
"578 465 LINE",
"701 465 LINE",
"789 698 LINE",
"896 698 LINE",
"805 469 LINE",
"876 469 LINE",
"861 393 LINE",
"775 393 LINE",
"741 311 LINE",
"844 311 LINE",
"829 235 LINE",
"710 235 LINE",
"618 0 LINE",
"493 0 LINE"
);
},
{
closed = 1;
nodes = (
"238 135 LINE",
"341 397 LINE",
"242 397 LINE",
"234 135 LINE"
);
},
{
closed = 1;
nodes = (
"582 137 LINE",
"676 397 LINE",
"577 397 LINE",
"578 137 LINE"
);
},
{
closed = 1;
nodes = (
"492 306 LINE",
"493 554 LINE",
"489 554 LINE",
"391 306 LINE"
);
}
);
width = 843;
}
);
unicode = 20A9;
},
{
glyphname = uni20AA;
layers = (
{
layerId = "5E034FFB-2FEE-437B-B143-44B7444E4712";
name = "Regular Italic";
paths = (
{
closed = 1;
nodes = (
"316 525 LINE",
"416 525 LINE",
"329 91 LINE",
"470 91 LINE SMOOTH",
"507 91 OFFCURVE",
"538 97 OFFCURVE",
"561 115 CURVE SMOOTH",
"584 133 OFFCURVE",
"601 161 OFFCURVE",
"610 208 CURVE SMOOTH",
"708 698 LINE",
"808 698 LINE",
"713 221 LINE SMOOTH",
"697 145 OFFCURVE",
"672 90 OFFCURVE",
"631 54 CURVE SMOOTH",
"590 18 OFFCURVE",
"532 0 OFFCURVE",
"455 0 CURVE SMOOTH",
"210 0 LINE"
);
},
{
closed = 1;
nodes = (
"32 0 LINE",
"172 698 LINE",
"429 698 LINE SMOOTH",
"529 698 OFFCURVE",
"592 642 OFFCURVE",
"592 542 CURVE SMOOTH",
"592 523 OFFCURVE",
"590 503 OFFCURVE",
"586 482 CURVE SMOOTH",
"524 173 LINE",
"424 173 LINE",
"488 495 LINE SMOOTH",
"491 510 OFFCURVE",
"493 524 OFFCURVE",
"493 537 CURVE SMOOTH",
"493 588 OFFCURVE",
"463 607 OFFCURVE",
"416 607 CURVE SMOOTH",
"254 607 LINE",
"132 0 LINE"
);
}
);
width = 805;
}
);
unicode = 20AA;
},
{
glyphname = uni20AB;
layers = (
{
layerId = "5E034FFB-2FEE-437B-B143-44B7444E4712";
name = "Regular Italic";
paths = (
{
closed = 1;
nodes = (
"360 235 LINE",
"354 235 LINE",
"322 179 OFFCURVE",
"277 142 OFFCURVE",
"213 142 CURVE SMOOTH",
"129 142 OFFCURVE",
"75 194 OFFCURVE",
"75 295 CURVE SMOOTH",
"75 372 OFFCURVE",
"97 437 OFFCURVE",
"133 482 CURVE SMOOTH",
"169 527 OFFCURVE",
"220 553 OFFCURVE",
"277 553 CURVE SMOOTH",
"349 553 OFFCURVE",
"386 521 OFFCURVE",
"402 473 CURVE",
"408 473 LINE",
"435 610 LINE",
"300 610 LINE",
"315 681 LINE",
"450 681 LINE",
"461 740 LINE",
"562 740 LINE",
"551 681 LINE",
"611 681 LINE",
"596 610 LINE",
"536 610 LINE",
"443 151 LINE",
"343 151 LINE"
);
},
{
closed = 1;
nodes = (
"293 221 OFFCURVE",
"319 234 OFFCURVE",
"339 252 CURVE SMOOTH",
"359 270 OFFCURVE",
"372 293 OFFCURVE",
"376 314 CURVE SMOOTH",
"392 393 LINE SMOOTH",
"401 440 OFFCURVE",
"361 473 OFFCURVE",
"300 473 CURVE SMOOTH",
"236 473 OFFCURVE",
"201 436 OFFCURVE",
"189 373 CURVE SMOOTH",
"182 338 OFFCURVE",
"177 312 OFFCURVE",
"177 297 CURVE SMOOTH",
"177 250 OFFCURVE",
"206 221 OFFCURVE",
"261 221 CURVE SMOOTH"
);
},
{
closed = 1;
nodes = (
"19 0 LINE",
"35 82 LINE",
"456 82 LINE",
"440 0 LINE"
);
}
);
width = 567;
}
);
unicode = 20AB;
},
{
glyphname = uni20AD;
layers = (
{
layerId = "5E034FFB-2FEE-437B-B143-44B7444E4712";
name = "Regular Italic";
paths = (
{
closed = 1;
nodes = (
"152 0 LINE",
"44 0 LINE",
"107 313 LINE",
"26 313 LINE",
"44 402 LINE",
"125 402 LINE",
"184 698 LINE",
"292 698 LINE",
"232 402 LINE",
"291 402 LINE",
"551 698 LINE",
"677 698 LINE",
"408 402 LINE",
"598 402 LINE",
"580 313 LINE",
"392 313 LINE",
"552 0 LINE",
"431 0 LINE",
"279 313 LINE",
"215 313 LINE"
);
}
);
width = 625;
}
);
unicode = 20AD;
},
{
glyphname = uni20AE;
layers = (
{
layerId = "5E034FFB-2FEE-437B-B143-44B7444E4712";
name = "Regular Italic";
paths = (
{
closed = 1;
nodes = (
"349 211 LINE",
"307 0 LINE",
"199 0 LINE",
"231 158 LINE",
"95 97 LINE",
"111 176 LINE",
"247 238 LINE",
"263 317 LINE",
"127 257 LINE",
"143 336 LINE",
"279 397 LINE",
"321 606 LINE",
"121 606 LINE",
"139 698 LINE",
"648 698 LINE",
"630 606 LINE",
"429 606 LINE",
"398 451 LINE",
"535 513 LINE",
"519 433 LINE",
"381 371 LINE",
"365 291 LINE",
"503 353 LINE",
"487 273 LINE"
);
}
);
width = 610;
}
);
unicode = 20AE;
},
{
glyphname = uni20B1;
layers = (
{
layerId = "5E034FFB-2FEE-437B-B143-44B7444E4712";
name = "Regular Italic";
paths = (
{
closed = 1;
nodes = (
"120 323 LINE",
"39 323 LINE",
"53 395 LINE",
"134 395 LINE",
"151 479 LINE",
"70 479 LINE",
"84 551 LINE",
"165 551 LINE",
"195 698 LINE",
"410 698 LINE SMOOTH",
"514 698 OFFCURVE",
"573 648 OFFCURVE",
"584 551 CURVE",
"678 551 LINE",
"663 479 LINE",
"584 479 LINE",
"581 448 OFFCURVE",
"577 422 OFFCURVE",
"570 395 CURVE",
"646 395 LINE",
"632 323 LINE",
"544 323 LINE",
"500 235 OFFCURVE",
"425 176 OFFCURVE",
"328 176 CURVE SMOOTH",
"198 176 LINE",
"163 0 LINE",
"55 0 LINE"
);
},
{
closed = 1;
nodes = (
"273 548 LINE",
"487 548 LINE",
"483 588 OFFCURVE",
"459 615 OFFCURVE",
"412 615 CURVE SMOOTH",
"286 615 LINE"
);
},
{
closed = 1;
nodes = (
"241 392 LINE",
"460 392 LINE",
"478 483 LINE",
"260 483 LINE"
);
},
{
closed = 1;
nodes = (
"340 259 LINE SMOOTH",
"388 259 OFFCURVE",
"425 282 OFFCURVE",
"444 327 CURVE",
"228 327 LINE",
"215 259 LINE"
);
}
);
width = 649;
}
);
unicode = 20B1;
},
{
glyphname = uni20B2;
layers = (
{
layerId = "5E034FFB-2FEE-437B-B143-44B7444E4712";
name = "Regular Italic";
paths = (
{
closed = 1;
nodes = (
"177 30 LINE",
"105 69 OFFCURVE",
"56 146 OFFCURVE",
"56 275 CURVE SMOOTH",
"56 394 OFFCURVE",
"90 499 OFFCURVE",
"150 575 CURVE SMOOTH",
"210 650 OFFCURVE",
"295 696 OFFCURVE",
"396 696 CURVE SMOOTH",
"401 696 OFFCURVE",
"405 696 OFFCURVE",
"410 696 CURVE SMOOTH",
"415 696 OFFCURVE",
"419 695 OFFCURVE",
"422 694 CURVE",
"453 780 LINE",
"540 780 LINE",
"502 676 LINE",
"562 649 OFFCURVE",
"603 602 OFFCURVE",
"620 542 CURVE",
"529 498 LINE",
"521 537 OFFCURVE",
"500 570 OFFCURVE",
"465 590 CURVE",
"385 371 LINE",
"604 371 LINE",
"580 248 LINE SMOOTH",
"560 151 OFFCURVE",
"515 89 OFFCURVE",
"460 52 CURVE SMOOTH",
"404 15 OFFCURVE",
"340 2 OFFCURVE",
"284 2 CURVE SMOOTH",
"280 2 OFFCURVE",
"275 2 OFFCURVE",
"269 2 CURVE SMOOTH",
"262 2 OFFCURVE",
"257 2 OFFCURVE",
"254 3 CURVE",
"222 -82 LINE",
"136 -82 LINE"
);
},
{
closed = 1;
nodes = (
"159 188 OFFCURVE",
"179 145 OFFCURVE",
"214 120 CURVE",
"393 606 LINE",
"390 607 OFFCURVE",
"387 607 OFFCURVE",
"385 607 CURVE SMOOTH",
"382 607 OFFCURVE",
"379 607 OFFCURVE",
"376 607 CURVE",
"276 603 OFFCURVE",
"211 531 OFFCURVE",
"187 414 CURVE SMOOTH",
"165 306 LINE SMOOTH",
"161 287 OFFCURVE",
"159 267 OFFCURVE",
"159 248 CURVE SMOOTH"
);
},
{
closed = 1;
nodes = (
"283 91 LINE",
"297 91 LINE SMOOTH",
"384 91 OFFCURVE",
"453 137 OFFCURVE",
"474 233 CURVE SMOOTH",
"484 280 LINE",
"351 280 LINE"
);
}
);
width = 652;
}
);
unicode = 20B2;
},
{
glyphname = uni20B4;
layers = (
{
layerId = "5E034FFB-2FEE-437B-B143-44B7444E4712";
name = "Regular Italic";
paths = (
{
closed = 1;
nodes = (
"209 -12 OFFCURVE",
"163 6 OFFCURVE",
"131 36 CURVE SMOOTH",
"99 66 OFFCURVE",
"83 108 OFFCURVE",
"83 157 CURVE SMOOTH",
"83 189 OFFCURVE",
"92 216 OFFCURVE",
"104 241 CURVE",
"36 241 LINE",
"51 317 LINE",
"170 317 LINE",
"331 401 LINE",
"68 401 LINE",
"83 477 LINE",
"438 477 LINE",
"450 496 OFFCURVE",
"456 517 OFFCURVE",
"456 539 CURVE SMOOTH",
"456 588 OFFCURVE",
"421 618 OFFCURVE",
"361 618 CURVE SMOOTH",
"314 618 OFFCURVE",
"269 600 OFFCURVE",
"228 561 CURVE",
"172 627 LINE",
"232 684 OFFCURVE",
"305 710 OFFCURVE",
"376 710 CURVE SMOOTH",
"493 710 OFFCURVE",
"561 647 OFFCURVE",
"561 556 CURVE SMOOTH",
"561 529 OFFCURVE",
"553 500 OFFCURVE",
"542 477 CURVE",
"612 477 LINE",
"597 401 LINE",
"478 401 LINE",
"321 317 LINE",
"581 317 LINE",
"566 241 LINE",
"209 241 LINE",
"193 220 OFFCURVE",
"185 197 OFFCURVE",
"185 172 CURVE SMOOTH",
"185 113 OFFCURVE",
"224 80 OFFCURVE",
"287 80 CURVE SMOOTH",
"334 80 OFFCURVE",
"381 95 OFFCURVE",
"440 150 CURVE",
"495 83 LINE",
"435 19 OFFCURVE",
"354 -12 OFFCURVE",
"269 -12 CURVE SMOOTH"
);
}
);
width = 607;
}
);
unicode = 20B4;
},
{
glyphname = uni20B5;
layers = (
{
layerId = "5E034FFB-2FEE-437B-B143-44B7444E4712";
name = "Regular Italic";
paths = (
{
closed = 1;
nodes = (
"175 30 LINE",
"103 71 OFFCURVE",
"55 149 OFFCURVE",
"55 277 CURVE SMOOTH",
"55 392 OFFCURVE",
"87 496 OFFCURVE",
"147 572 CURVE SMOOTH",
"206 648 OFFCURVE",
"290 696 OFFCURVE",
"394 696 CURVE SMOOTH",
"398 696 OFFCURVE",
"402 696 OFFCURVE",
"406 696 CURVE SMOOTH",
"410 696 OFFCURVE",
"414 695 OFFCURVE",
"419 694 CURVE",
"451 780 LINE",
"538 780 LINE",
"499 678 LINE",
"555 655 OFFCURVE",
"595 616 OFFCURVE",
"618 560 CURVE",
"533 510 LINE",
"518 547 OFFCURVE",
"495 574 OFFCURVE",
"463 591 CURVE",
"281 92 LINE",
"284 91 OFFCURVE",
"286 91 OFFCURVE",
"289 91 CURVE SMOOTH",
"292 91 OFFCURVE",
"294 91 OFFCURVE",
"297 91 CURVE SMOOTH",
"377 91 OFFCURVE",
"431 127 OFFCURVE",
"474 199 CURVE",
"543 144 LINE",
"512 96 OFFCURVE",
"479 61 OFFCURVE",
"438 38 CURVE SMOOTH",
"397 14 OFFCURVE",
"348 2 OFFCURVE",
"285 2 CURVE SMOOTH",
"273 2 OFFCURVE",
"265 2 OFFCURVE",
"252 5 CURVE",
"221 -82 LINE",
"134 -82 LINE"
);
},
{
closed = 1;
nodes = (
"159 189 OFFCURVE",
"180 148 OFFCURVE",
"213 121 CURVE",
"390 606 LINE",
"387 607 OFFCURVE",
"382 607 OFFCURVE",
"376 607 CURVE",
"280 603 OFFCURVE",
"211 532 OFFCURVE",
"187 415 CURVE SMOOTH",
"165 303 LINE SMOOTH",
"161 285 OFFCURVE",
"159 266 OFFCURVE",
"159 246 CURVE SMOOTH"
);
}
);
width = 604;
}
);
unicode = 20B5;
},
{
glyphname = uni20B8;
layers = (
{
layerId = "5E034FFB-2FEE-437B-B143-44B7444E4712";
name = "Regular Italic";
paths = (
{
closed = 1;
nodes = (
"109 615 LINE",
"126 698 LINE",
"634 698 LINE",
"618 615 LINE"
);
},
{
closed = 1;
nodes = (
"386 444 LINE",
"297 0 LINE",
"188 0 LINE",
"277 444 LINE",
"75 444 LINE",
"92 527 LINE",
"600 527 LINE",
"584 444 LINE"
);
}
);
width = 587;
}
);
unicode = 20B8;
},
{
glyphname = uni20B9;
layers = (
{
layerId = "5E034FFB-2FEE-437B-B143-44B7444E4712";
name = "Regular Italic";
paths = (
{
closed = 1;
nodes = (
"332 0 LINE",
"183 263 LINE",
"57 263 LINE",
"74 346 LINE",
"258 346 LINE SMOOTH",
"335 346 OFFCURVE",
"375 382 OFFCURVE",
"392 437 CURVE",
"93 437 LINE",
"109 520 LINE",
"405 520 LINE",
"408 584 OFFCURVE",
"379 615 OFFCURVE",
"314 615 CURVE SMOOTH",
"128 615 LINE",
"145 698 LINE",
"659 698 LINE",
"642 615 LINE",
"452 615 LINE",
"451 611 LINE",
"483 599 OFFCURVE",
"501 569 OFFCURVE",
"505 520 CURVE",
"624 520 LINE",
"607 437 LINE",
"500 437 LINE",
"489 392 OFFCURVE",
"468 352 OFFCURVE",
"433 323 CURVE SMOOTH",
"398 294 OFFCURVE",
"352 273 OFFCURVE",
"292 268 CURVE",
"448 0 LINE"
);
}
);
width = 596;
}
);
unicode = 20B9;
},
{
glyphname = uni20BA;
layers = (
{
layerId = "5E034FFB-2FEE-437B-B143-44B7444E4712";
name = "Regular Italic";
paths = (
{
closed = 1;
nodes = (
"129 230 LINE",
"31 186 LINE",
"47 266 LINE",
"145 310 LINE",
"161 391 LINE",
"63 347 LINE",
"79 427 LINE",
"177 471 LINE",
"223 698 LINE",
"332 698 LINE",
"297 524 LINE",
"497 616 LINE",
"481 536 LINE",
"281 445 LINE",
"265 364 LINE",
"465 455 LINE",
"449 376 LINE",
"249 284 LINE",
"211 92 LINE",
"285 92 LINE SMOOTH",
"389 92 OFFCURVE",
"456 163 OFFCURVE",
"486 305 CURVE",
"591 305 LINE",
"574 214 OFFCURVE",
"540 137 OFFCURVE",
"489 84 CURVE SMOOTH",
"437 31 OFFCURVE",
"367 0 OFFCURVE",
"282 0 CURVE SMOOTH",
"83 0 LINE"
);
}
);
width = 622;
}
);
unicode = 20BA;
},
{
glyphname = uni20BD;
layers = (
{
layerId = "5E034FFB-2FEE-437B-B143-44B7444E4712";
name = "Regular Italic";
paths = (
{
closed = 1;
nodes = (
"187 121 LINE",
"163 0 LINE",
"55 0 LINE",
"79 121 LINE",
"-2 121 LINE",
"15 204 LINE",
"96 204 LINE",
"115 298 LINE",
"34 298 LINE",
"50 381 LINE",
"131 381 LINE",
"195 698 LINE",
"450 698 LINE SMOOTH",
"575 698 OFFCURVE",
"634 630 OFFCURVE",
"634 530 CURVE SMOOTH",
"634 470 OFFCURVE",
"611 412 OFFCURVE",
"571 369 CURVE SMOOTH",
"530 325 OFFCURVE",
"469 298 OFFCURVE",
"396 298 CURVE SMOOTH",
"223 298 LINE",
"204 204 LINE",
"444 204 LINE",
"427 121 LINE"
);
},
{
closed = 1;
nodes = (
"239 381 LINE",
"403 381 LINE SMOOTH",
"462 381 OFFCURVE",
"501 413 OFFCURVE",
"512 470 CURVE SMOOTH",
"516 490 OFFCURVE",
"519 504 OFFCURVE",
"521 513 CURVE",
"522 521 OFFCURVE",
"523 528 OFFCURVE",
"523 535 CURVE SMOOTH",
"523 579 OFFCURVE",
"499 604 OFFCURVE",
"439 604 CURVE SMOOTH",
"284 604 LINE"
);
}
);
width = 630;
}
);
unicode = 20BD;
},
{
glyphname = uni20BF;
layers = (
{
layerId = "5E034FFB-2FEE-437B-B143-44B7444E4712";
name = "Regular Italic";
paths = (
{
closed = 1;
nodes = (
"283 20 LINE",
"222 20 LINE",
"202 -82 LINE",
"116 -82 LINE",
"136 20 LINE",
"36 20 LINE",
"168 677 LINE",
"268 677 LINE",
"289 780 LINE",
"375 780 LINE",
"354 677 LINE",
"415 677 LINE",
"436 780 LINE",
"522 780 LINE",
"500 670 LINE",
"572 654 OFFCURVE",
"611 604 OFFCURVE",
"611 536 CURVE SMOOTH",
"611 453 OFFCURVE",
"560 391 OFFCURVE",
"477 368 CURVE",
"477 364 LINE",
"537 347 OFFCURVE",
"573 305 OFFCURVE",
"573 234 CURVE SMOOTH",
"573 181 OFFCURVE",
"554 131 OFFCURVE",
"519 93 CURVE SMOOTH",
"483 55 OFFCURVE",
"433 27 OFFCURVE",
"369 22 CURVE",
"349 -82 LINE",
"263 -82 LINE"
);
},
{
closed = 1;
nodes = (
"217 397 LINE",
"380 397 LINE SMOOTH",
"439 397 OFFCURVE",
"479 422 OFFCURVE",
"490 473 CURVE SMOOTH",
"495 498 OFFCURVE",
"499 513 OFFCURVE",
"499 525 CURVE SMOOTH",
"499 566 OFFCURVE",
"470 585 OFFCURVE",
"423 585 CURVE SMOOTH",
"254 585 LINE"
);
},
{
closed = 1;
nodes = (
"159 112 LINE",
"350 112 LINE SMOOTH",
"407 112 OFFCURVE",
"446 136 OFFCURVE",
"457 196 CURVE",
"464 225 OFFCURVE",
"465 237 OFFCURVE",
"465 250 CURVE SMOOTH",
"465 291 OFFCURVE",
"436 310 OFFCURVE",
"384 310 CURVE SMOOTH",
"199 310 LINE"
);
}
);
width = 637;
}
);
unicode = 20BF;
},
{
glyphname = fi;
layers = (
{
layerId = "5E034FFB-2FEE-437B-B143-44B7444E4712";
name = "Regular Italic";
paths = (
{
closed = 1;
nodes = (
"81 520 LINE",
"159 520 LINE",
"177 611 LINE SMOOTH",
"194 694 OFFCURVE",
"236 740 OFFCURVE",
"324 740 CURVE SMOOTH",
"405 740 LINE",
"388 653 LINE",
"289 653 LINE",
"262 520 LINE",
"551 520 LINE",
"464 87 LINE",
"531 87 LINE",
"514 0 LINE",
"436 0 LINE SMOOTH",
"387 0 OFFCURVE",
"359 29 OFFCURVE",
"359 70 CURVE SMOOTH",
"359 78 OFFCURVE",
"361 88 OFFCURVE",
"362 93 CURVE SMOOTH",
"430 433 LINE",
"245 433 LINE",
"144 -70 LINE SMOOTH",
"127 -154 OFFCURVE",
"86 -200 OFFCURVE",
"-2 -200 CURVE SMOOTH",
"-80 -200 LINE",
"-63 -113 LINE",
"32 -113 LINE",
"142 433 LINE",
"64 433 LINE"
);
},
{
closed = 1;
nodes = (
"481 614 OFFCURVE",
"465 632 OFFCURVE",
"465 656 CURVE SMOOTH",
"465 660 OFFCURVE",
"466 665 OFFCURVE",
"467 670 CURVE SMOOTH",
"468 675 OFFCURVE",
"469 682 OFFCURVE",
"470 689 CURVE",
"477 720 OFFCURVE",
"495 743 OFFCURVE",
"542 743 CURVE SMOOTH",
"581 743 OFFCURVE",
"597 725 OFFCURVE",
"597 701 CURVE SMOOTH",
"597 697 OFFCURVE",
"597 692 OFFCURVE",
"596 687 CURVE SMOOTH",
"595 682 OFFCURVE",
"593 675 OFFCURVE",
"592 668 CURVE",
"585 637 OFFCURVE",
"567 614 OFFCURVE",
"520 614 CURVE SMOOTH"
);
}
);
width = 588;
}
);
leftKerningGroup = f;
rightKerningGroup = i;
unicode = FB01;
},
{
glyphname = fl;
layers = (
{
layerId = "5E034FFB-2FEE-437B-B143-44B7444E4712";
name = "Regular Italic";
paths = (
{
closed = 1;
nodes = (
"81 520 LINE",
"159 520 LINE",
"177 611 LINE SMOOTH",
"193 694 OFFCURVE",
"238 740 OFFCURVE",
"331 740 CURVE SMOOTH",
"409 740 LINE",
"392 653 LINE",
"290 653 LINE",
"263 520 LINE",
"364 520 LINE",
"347 433 LINE",
"246 433 LINE",
"144 -71 LINE SMOOTH",
"127 -154 OFFCURVE",
"86 -200 OFFCURVE",
"-2 -200 CURVE SMOOTH",
"-80 -200 LINE",
"-63 -113 LINE",
"32 -113 LINE",
"142 433 LINE",
"63 433 LINE"
);
},
{
closed = 1;
nodes = (
"438 0 LINE SMOOTH",
"387 0 OFFCURVE",
"360 29 OFFCURVE",
"360 70 CURVE SMOOTH",
"360 77 OFFCURVE",
"361 85 OFFCURVE",
"363 95 CURVE SMOOTH",
"492 740 LINE",
"596 740 LINE",
"465 87 LINE",
"536 87 LINE",
"519 0 LINE"
);
}
);
width = 588;
}
);
leftKerningGroup = f;
rightKerningGroup = d;
unicode = FB02;
},
{
glyphname = aacute;
layers = (
{
layerId = "5E034FFB-2FEE-437B-B143-44B7444E4712";
name = "Regular Italic";
paths = (
{
closed = 1;
nodes = (
"434 0 LINE SMOOTH",
"387 0 OFFCURVE",
"358 25 OFFCURVE",
"358 68 CURVE SMOOTH",
"358 79 OFFCURVE",
"359 89 OFFCURVE",
"361 97 CURVE",
"365 116 LINE",
"361 116 LINE",
"318 31 OFFCURVE",
"272 -12 OFFCURVE",
"192 -12 CURVE SMOOTH",
"96 -12 OFFCURVE",
"42 63 OFFCURVE",
"42 179 CURVE SMOOTH",
"42 270 OFFCURVE",
"65 359 OFFCURVE",
"109 424 CURVE SMOOTH",
"152 489 OFFCURVE",
"214 532 OFFCURVE",
"291 532 CURVE SMOOTH",
"359 532 OFFCURVE",
"413 494 OFFCURVE",
"424 433 CURVE",
"429 433 LINE",
"446 520 LINE",
"550 520 LINE",
"463 87 LINE",
"530 87 LINE",
"513 0 LINE"
);
},
{
closed = 1;
nodes = (
"275 77 OFFCURVE",
"306 98 OFFCURVE",
"333 127 CURVE SMOOTH",
"362 158 OFFCURVE",
"381 196 OFFCURVE",
"390 243 CURVE SMOOTH",
"411 348 LINE SMOOTH",
"415 371 OFFCURVE",
"408 395 OFFCURVE",
"391 413 CURVE SMOOTH",
"374 431 OFFCURVE",
"346 443 OFFCURVE",
"311 443 CURVE SMOOTH",
"234 443 OFFCURVE",
"188 395 OFFCURVE",
"169 303 CURVE SMOOTH",
"154 230 LINE SMOOTH",
"151 214 OFFCURVE",
"149 192 OFFCURVE",
"149 176 CURVE SMOOTH",
"149 117 OFFCURVE",
"176 77 OFFCURVE",
"232 77 CURVE SMOOTH"
);
},
{
closed = 1;
nodes = (
"359 582 LINE",
"296 616 LINE",
"406 795 LINE",
"493 749 LINE"
);
}
);
width = 586;
}
);
leftKerningGroup = a;
rightKerningGroup = a;
unicode = 00E1;
},
{
glyphname = abreve;
layers = (
{
layerId = "5E034FFB-2FEE-437B-B143-44B7444E4712";
name = "Regular Italic";
paths = (
{
closed = 1;
nodes = (
"434 0 LINE SMOOTH",
"387 0 OFFCURVE",
"358 25 OFFCURVE",
"358 68 CURVE SMOOTH",
"358 79 OFFCURVE",
"359 89 OFFCURVE",
"361 97 CURVE",
"365 116 LINE",
"361 116 LINE",
"318 31 OFFCURVE",
"272 -12 OFFCURVE",
"192 -12 CURVE SMOOTH",
"96 -12 OFFCURVE",
"42 63 OFFCURVE",
"42 179 CURVE SMOOTH",
"42 270 OFFCURVE",
"65 359 OFFCURVE",
"109 424 CURVE SMOOTH",
"152 489 OFFCURVE",
"214 532 OFFCURVE",
"291 532 CURVE SMOOTH",
"359 532 OFFCURVE",
"413 494 OFFCURVE",
"424 433 CURVE",
"429 433 LINE",
"446 520 LINE",
"550 520 LINE",
"463 87 LINE",
"530 87 LINE",
"513 0 LINE"
);
},
{
closed = 1;
nodes = (
"275 77 OFFCURVE",
"306 98 OFFCURVE",
"333 127 CURVE SMOOTH",
"362 158 OFFCURVE",
"381 196 OFFCURVE",
"390 243 CURVE SMOOTH",
"411 348 LINE SMOOTH",
"415 371 OFFCURVE",
"408 395 OFFCURVE",
"391 413 CURVE SMOOTH",
"374 431 OFFCURVE",
"346 443 OFFCURVE",
"311 443 CURVE SMOOTH",
"234 443 OFFCURVE",
"188 395 OFFCURVE",
"169 303 CURVE SMOOTH",
"154 230 LINE SMOOTH",
"151 214 OFFCURVE",
"149 192 OFFCURVE",
"149 176 CURVE SMOOTH",
"149 117 OFFCURVE",
"176 77 OFFCURVE",
"232 77 CURVE SMOOTH"
);
},
{
closed = 1;
nodes = (
"294 589 OFFCURVE",
"260 610 OFFCURVE",
"238 639 CURVE SMOOTH",
"216 668 OFFCURVE",
"204 706 OFFCURVE",
"199 739 CURVE",
"259 768 LINE",
"273 739 LINE SMOOTH",
"293 694 OFFCURVE",
"311 668 OFFCURVE",
"351 668 CURVE SMOOTH",
"387 668 OFFCURVE",
"411 689 OFFCURVE",
"450 740 CURVE SMOOTH",
"472 768 LINE",
"535 737 LINE",
"516 702 OFFCURVE",
"496 666 OFFCURVE",
"466 638 CURVE SMOOTH",
"436 609 OFFCURVE",
"397 589 OFFCURVE",
"346 589 CURVE SMOOTH"
);
}
);
width = 586;
}
);
leftKerningGroup = a;
rightKerningGroup = a;
unicode = 0103;
},
{
glyphname = acircumflex;
layers = (
{
layerId = "5E034FFB-2FEE-437B-B143-44B7444E4712";
name = "Regular Italic";
paths = (
{
closed = 1;
nodes = (
"434 0 LINE SMOOTH",
"387 0 OFFCURVE",
"358 25 OFFCURVE",
"358 68 CURVE SMOOTH",
"358 79 OFFCURVE",
"359 89 OFFCURVE",
"361 97 CURVE",
"365 116 LINE",
"361 116 LINE",
"318 31 OFFCURVE",
"272 -12 OFFCURVE",
"192 -12 CURVE SMOOTH",
"96 -12 OFFCURVE",
"42 63 OFFCURVE",
"42 179 CURVE SMOOTH",
"42 270 OFFCURVE",
"65 359 OFFCURVE",
"109 424 CURVE SMOOTH",
"152 489 OFFCURVE",
"214 532 OFFCURVE",
"291 532 CURVE SMOOTH",
"359 532 OFFCURVE",
"413 494 OFFCURVE",
"424 433 CURVE",
"429 433 LINE",
"446 520 LINE",
"550 520 LINE",
"463 87 LINE",
"530 87 LINE",
"513 0 LINE"
);
},
{
closed = 1;
nodes = (
"275 77 OFFCURVE",
"306 98 OFFCURVE",
"333 127 CURVE SMOOTH",
"362 158 OFFCURVE",
"381 196 OFFCURVE",
"390 243 CURVE SMOOTH",
"411 348 LINE SMOOTH",
"415 371 OFFCURVE",
"408 395 OFFCURVE",
"391 413 CURVE SMOOTH",
"374 431 OFFCURVE",
"346 443 OFFCURVE",
"311 443 CURVE SMOOTH",
"234 443 OFFCURVE",
"188 395 OFFCURVE",
"169 303 CURVE SMOOTH",
"154 230 LINE SMOOTH",
"151 214 OFFCURVE",
"149 192 OFFCURVE",
"149 176 CURVE SMOOTH",
"149 117 OFFCURVE",
"176 77 OFFCURVE",
"232 77 CURVE SMOOTH"
);
},
{
closed = 1;
nodes = (
"426 778 LINE",
"516 628 LINE",
"459 585 LINE",
"364 701 LINE",
"227 586 LINE",
"175 629 LINE",
"320 778 LINE"
);
}
);
width = 586;
}
);
leftKerningGroup = a;
rightKerningGroup = a;
unicode = 00E2;
},
{
glyphname = adieresis;
layers = (
{
layerId = "5E034FFB-2FEE-437B-B143-44B7444E4712";
name = "Regular Italic";
paths = (
{
closed = 1;
nodes = (
"434 0 LINE SMOOTH",
"387 0 OFFCURVE",
"358 25 OFFCURVE",
"358 68 CURVE SMOOTH",
"358 79 OFFCURVE",
"359 89 OFFCURVE",
"361 97 CURVE",
"365 116 LINE",
"361 116 LINE",
"318 31 OFFCURVE",
"272 -12 OFFCURVE",
"192 -12 CURVE SMOOTH",
"96 -12 OFFCURVE",
"42 63 OFFCURVE",
"42 179 CURVE SMOOTH",
"42 270 OFFCURVE",
"65 359 OFFCURVE",
"109 424 CURVE SMOOTH",
"152 489 OFFCURVE",
"214 532 OFFCURVE",
"291 532 CURVE SMOOTH",
"359 532 OFFCURVE",
"413 494 OFFCURVE",
"424 433 CURVE",
"429 433 LINE",
"446 520 LINE",
"550 520 LINE",
"463 87 LINE",
"530 87 LINE",
"513 0 LINE"
);
},
{
closed = 1;
nodes = (
"275 77 OFFCURVE",
"306 98 OFFCURVE",
"333 127 CURVE SMOOTH",
"362 158 OFFCURVE",
"381 196 OFFCURVE",
"390 243 CURVE SMOOTH",
"411 348 LINE SMOOTH",
"415 371 OFFCURVE",
"408 395 OFFCURVE",
"391 413 CURVE SMOOTH",
"374 431 OFFCURVE",
"346 443 OFFCURVE",
"311 443 CURVE SMOOTH",
"234 443 OFFCURVE",
"188 395 OFFCURVE",
"169 303 CURVE SMOOTH",
"154 230 LINE SMOOTH",
"151 214 OFFCURVE",
"149 192 OFFCURVE",
"149 176 CURVE SMOOTH",
"149 117 OFFCURVE",
"176 77 OFFCURVE",
"232 77 CURVE SMOOTH"
);
},
{
closed = 1;
nodes = (
"218 610 OFFCURVE",
"202 626 OFFCURVE",
"202 650 CURVE SMOOTH",
"202 661 OFFCURVE",
"206 699 OFFCURVE",
"227 719 CURVE SMOOTH",
"238 729 OFFCURVE",
"254 734 OFFCURVE",
"275 734 CURVE SMOOTH",
"309 734 OFFCURVE",
"326 721 OFFCURVE",
"326 694 CURVE SMOOTH",
"326 687 OFFCURVE",
"325 680 OFFCURVE",
"322 664 CURVE SMOOTH",
"315 632 OFFCURVE",
"296 610 OFFCURVE",
"253 610 CURVE SMOOTH"
);
},
{
closed = 1;
nodes = (
"407 610 OFFCURVE",
"391 626 OFFCURVE",
"391 650 CURVE SMOOTH",
"391 661 OFFCURVE",
"395 699 OFFCURVE",
"416 719 CURVE SMOOTH",
"427 729 OFFCURVE",
"443 734 OFFCURVE",
"464 734 CURVE SMOOTH",
"498 734 OFFCURVE",
"515 721 OFFCURVE",
"515 694 CURVE SMOOTH",
"515 687 OFFCURVE",
"514 680 OFFCURVE",
"511 664 CURVE SMOOTH",
"504 632 OFFCURVE",
"485 610 OFFCURVE",
"442 610 CURVE SMOOTH"
);
}
);
width = 586;
}
);
leftKerningGroup = a;
rightKerningGroup = a;
unicode = 00E4;
},
{
glyphname = uni1EA1;
layers = (
{
layerId = "5E034FFB-2FEE-437B-B143-44B7444E4712";
name = "Regular Italic";
paths = (
{
closed = 1;
nodes = (
"434 0 LINE SMOOTH",
"387 0 OFFCURVE",
"358 25 OFFCURVE",
"358 68 CURVE SMOOTH",
"358 79 OFFCURVE",
"359 89 OFFCURVE",
"361 97 CURVE",
"365 116 LINE",
"361 116 LINE",
"318 31 OFFCURVE",
"272 -12 OFFCURVE",
"192 -12 CURVE SMOOTH",
"96 -12 OFFCURVE",
"42 63 OFFCURVE",
"42 179 CURVE SMOOTH",
"42 270 OFFCURVE",
"65 359 OFFCURVE",
"109 424 CURVE SMOOTH",
"152 489 OFFCURVE",
"214 532 OFFCURVE",
"291 532 CURVE SMOOTH",
"359 532 OFFCURVE",
"413 494 OFFCURVE",
"424 433 CURVE",
"429 433 LINE",
"446 520 LINE",
"550 520 LINE",
"463 87 LINE",
"530 87 LINE",
"513 0 LINE"
);
},
{
closed = 1;
nodes = (
"275 77 OFFCURVE",
"306 98 OFFCURVE",
"333 127 CURVE SMOOTH",
"362 158 OFFCURVE",
"381 196 OFFCURVE",
"390 243 CURVE SMOOTH",
"411 348 LINE SMOOTH",
"415 371 OFFCURVE",
"408 395 OFFCURVE",
"391 413 CURVE SMOOTH",
"374 431 OFFCURVE",
"346 443 OFFCURVE",
"311 443 CURVE SMOOTH",
"234 443 OFFCURVE",
"188 395 OFFCURVE",
"169 303 CURVE SMOOTH",
"154 230 LINE SMOOTH",
"151 214 OFFCURVE",
"149 192 OFFCURVE",
"149 176 CURVE SMOOTH",
"149 117 OFFCURVE",
"176 77 OFFCURVE",
"232 77 CURVE SMOOTH"
);
},
{
closed = 1;
nodes = (
"189 -184 OFFCURVE",
"171 -170 OFFCURVE",
"171 -141 CURVE SMOOTH",
"171 -138 OFFCURVE",
"172 -135 OFFCURVE",
"173 -131 CURVE SMOOTH",
"174 -127 OFFCURVE",
"175 -121 OFFCURVE",
"176 -112 CURVE",
"183 -80 OFFCURVE",
"202 -60 OFFCURVE",
"243 -60 CURVE SMOOTH",
"279 -60 OFFCURVE",
"297 -74 OFFCURVE",
"297 -103 CURVE SMOOTH",
"297 -106 OFFCURVE",
"297 -109 OFFCURVE",
"296 -113 CURVE SMOOTH",
"295 -117 OFFCURVE",
"293 -123 OFFCURVE",
"292 -132 CURVE",
"285 -164 OFFCURVE",
"266 -184 OFFCURVE",
"225 -184 CURVE SMOOTH"
);
}
);
width = 586;
}
);
leftKerningGroup = a;
rightKerningGroup = a;
unicode = 1EA1;
},
{
glyphname = agrave;
layers = (
{
layerId = "5E034FFB-2FEE-437B-B143-44B7444E4712";
name = "Regular Italic";
paths = (
{
closed = 1;
nodes = (
"434 0 LINE SMOOTH",
"387 0 OFFCURVE",
"358 25 OFFCURVE",
"358 68 CURVE SMOOTH",
"358 79 OFFCURVE",
"359 89 OFFCURVE",
"361 97 CURVE",
"365 116 LINE",
"361 116 LINE",
"318 31 OFFCURVE",
"272 -12 OFFCURVE",
"192 -12 CURVE SMOOTH",
"96 -12 OFFCURVE",
"42 63 OFFCURVE",
"42 179 CURVE SMOOTH",
"42 270 OFFCURVE",
"65 359 OFFCURVE",
"109 424 CURVE SMOOTH",
"152 489 OFFCURVE",
"214 532 OFFCURVE",
"291 532 CURVE SMOOTH",
"359 532 OFFCURVE",
"413 494 OFFCURVE",
"424 433 CURVE",
"429 433 LINE",
"446 520 LINE",
"550 520 LINE",
"463 87 LINE",
"530 87 LINE",
"513 0 LINE"
);
},
{
closed = 1;
nodes = (
"275 77 OFFCURVE",
"306 98 OFFCURVE",
"333 127 CURVE SMOOTH",
"362 158 OFFCURVE",
"381 196 OFFCURVE",
"390 243 CURVE SMOOTH",
"411 348 LINE SMOOTH",
"415 371 OFFCURVE",
"408 395 OFFCURVE",
"391 413 CURVE SMOOTH",
"374 431 OFFCURVE",
"346 443 OFFCURVE",
"311 443 CURVE SMOOTH",
"234 443 OFFCURVE",
"188 395 OFFCURVE",
"169 303 CURVE SMOOTH",
"154 230 LINE SMOOTH",
"151 214 OFFCURVE",
"149 192 OFFCURVE",
"149 176 CURVE SMOOTH",
"149 117 OFFCURVE",
"176 77 OFFCURVE",
"232 77 CURVE SMOOTH"
);
},
{
closed = 1;
nodes = (
"232 750 LINE",
"325 794 LINE",
"389 611 LINE",
"325 582 LINE"
);
}
);
width = 586;
}
);
leftKerningGroup = a;
rightKerningGroup = a;
unicode = 00E0;
},
{
glyphname = uni1EA3;
layers = (
{
layerId = "5E034FFB-2FEE-437B-B143-44B7444E4712";
name = "Regular Italic";
paths = (
{
closed = 1;
nodes = (
"434 0 LINE SMOOTH",
"387 0 OFFCURVE",
"358 25 OFFCURVE",
"358 68 CURVE SMOOTH",
"358 79 OFFCURVE",
"359 89 OFFCURVE",
"361 97 CURVE",
"365 116 LINE",
"361 116 LINE",
"318 31 OFFCURVE",
"272 -12 OFFCURVE",
"192 -12 CURVE SMOOTH",
"96 -12 OFFCURVE",
"42 63 OFFCURVE",
"42 179 CURVE SMOOTH",
"42 270 OFFCURVE",
"65 359 OFFCURVE",
"109 424 CURVE SMOOTH",
"152 489 OFFCURVE",
"214 532 OFFCURVE",
"291 532 CURVE SMOOTH",
"359 532 OFFCURVE",
"413 494 OFFCURVE",
"424 433 CURVE",
"429 433 LINE",
"446 520 LINE",
"550 520 LINE",
"463 87 LINE",
"530 87 LINE",
"513 0 LINE"
);
},
{
closed = 1;
nodes = (
"275 77 OFFCURVE",
"306 98 OFFCURVE",
"333 127 CURVE SMOOTH",
"362 158 OFFCURVE",
"381 196 OFFCURVE",
"390 243 CURVE SMOOTH",
"411 348 LINE SMOOTH",
"415 371 OFFCURVE",
"408 395 OFFCURVE",
"391 413 CURVE SMOOTH",
"374 431 OFFCURVE",
"346 443 OFFCURVE",
"311 443 CURVE SMOOTH",
"234 443 OFFCURVE",
"188 395 OFFCURVE",
"169 303 CURVE SMOOTH",
"154 230 LINE SMOOTH",
"151 214 OFFCURVE",
"149 192 OFFCURVE",
"149 176 CURVE SMOOTH",
"149 117 OFFCURVE",
"176 77 OFFCURVE",
"232 77 CURVE SMOOTH"
);
},
{
closed = 1;
nodes = (
"277 781 LINE",
"400 781 LINE SMOOTH",
"451 781 OFFCURVE",
"469 756 OFFCURVE",
"469 729 CURVE SMOOTH",
"469 692 OFFCURVE",
"445 659 OFFCURVE",
"412 620 CURVE SMOOTH",
"372 574 LINE",
"319 602 LINE",
"380 703 LINE",
"263 703 LINE"
);
}
);
width = 586;
}
);
leftKerningGroup = a;
rightKerningGroup = a;
unicode = 1EA3;
},
{
glyphname = amacron;
layers = (
{
layerId = "5E034FFB-2FEE-437B-B143-44B7444E4712";
name = "Regular Italic";
paths = (
{
closed = 1;
nodes = (
"434 0 LINE SMOOTH",
"387 0 OFFCURVE",
"358 25 OFFCURVE",
"358 68 CURVE SMOOTH",
"358 79 OFFCURVE",
"359 89 OFFCURVE",
"361 97 CURVE",
"365 116 LINE",
"361 116 LINE",
"318 31 OFFCURVE",
"272 -12 OFFCURVE",
"192 -12 CURVE SMOOTH",
"96 -12 OFFCURVE",
"42 63 OFFCURVE",
"42 179 CURVE SMOOTH",
"42 270 OFFCURVE",
"65 359 OFFCURVE",
"109 424 CURVE SMOOTH",
"152 489 OFFCURVE",
"214 532 OFFCURVE",
"291 532 CURVE SMOOTH",
"359 532 OFFCURVE",
"413 494 OFFCURVE",
"424 433 CURVE",
"429 433 LINE",
"446 520 LINE",
"550 520 LINE",
"463 87 LINE",
"530 87 LINE",
"513 0 LINE"
);
},
{
closed = 1;
nodes = (
"275 77 OFFCURVE",
"306 98 OFFCURVE",
"333 127 CURVE SMOOTH",
"362 158 OFFCURVE",
"381 196 OFFCURVE",
"390 243 CURVE SMOOTH",
"411 348 LINE SMOOTH",
"415 371 OFFCURVE",
"408 395 OFFCURVE",
"391 413 CURVE SMOOTH",
"374 431 OFFCURVE",
"346 443 OFFCURVE",
"311 443 CURVE SMOOTH",
"234 443 OFFCURVE",
"188 395 OFFCURVE",
"169 303 CURVE SMOOTH",
"154 230 LINE SMOOTH",
"151 214 OFFCURVE",
"149 192 OFFCURVE",
"149 176 CURVE SMOOTH",
"149 117 OFFCURVE",
"176 77 OFFCURVE",
"232 77 CURVE SMOOTH"
);
},
{
closed = 1;
nodes = (
"230 714 LINE",
"505 714 LINE",
"488 632 LINE",
"213 632 LINE"
);
}
);
width = 586;
}
);
leftKerningGroup = a;
rightKerningGroup = a;
unicode = 0101;
},
{
glyphname = aogonek;
layers = (
{
layerId = "5E034FFB-2FEE-437B-B143-44B7444E4712";
name = "Regular Italic";
paths = (
{
closed = 1;
nodes = (
"513 0 LINE",
"460 -35 OFFCURVE",
"430 -58 OFFCURVE",
"414 -76 CURVE SMOOTH",
"398 -94 OFFCURVE",
"395 -108 OFFCURVE",
"395 -117 CURVE SMOOTH",
"395 -137 OFFCURVE",
"406 -147 OFFCURVE",
"429 -147 CURVE SMOOTH",
"448 -147 OFFCURVE",
"467 -140 OFFCURVE",
"483 -120 CURVE",
"526 -167 LINE",
"506 -190 OFFCURVE",
"471 -209 OFFCURVE",
"418 -209 CURVE SMOOTH",
"390 -209 OFFCURVE",
"363 -203 OFFCURVE",
"344 -190 CURVE",
"324 -178 OFFCURVE",
"312 -158 OFFCURVE",
"312 -131 CURVE SMOOTH",
"312 -78 OFFCURVE",
"355 -36 OFFCURVE",
"442 -5 CURVE",
"441 0 LINE",
"434 0 LINE SMOOTH",
"387 0 OFFCURVE",
"358 25 OFFCURVE",
"358 68 CURVE SMOOTH",
"358 79 OFFCURVE",
"359 89 OFFCURVE",
"361 97 CURVE",
"365 116 LINE",
"361 116 LINE",
"318 31 OFFCURVE",
"272 -12 OFFCURVE",
"192 -12 CURVE SMOOTH",
"96 -12 OFFCURVE",
"42 63 OFFCURVE",
"42 179 CURVE SMOOTH",
"42 270 OFFCURVE",
"65 359 OFFCURVE",
"109 424 CURVE SMOOTH",
"152 489 OFFCURVE",
"214 532 OFFCURVE",
"291 532 CURVE SMOOTH",
"359 532 OFFCURVE",
"413 494 OFFCURVE",
"424 433 CURVE",
"429 433 LINE",
"446 520 LINE",
"550 520 LINE",
"463 87 LINE",
"530 87 LINE"
);
},
{
closed = 1;
nodes = (
"275 77 OFFCURVE",
"308 99 OFFCURVE",
"333 127 CURVE SMOOTH",
"362 159 OFFCURVE",
"381 198 OFFCURVE",
"390 243 CURVE SMOOTH",
"411 348 LINE SMOOTH",
"415 371 OFFCURVE",
"408 395 OFFCURVE",
"391 413 CURVE SMOOTH",
"374 431 OFFCURVE",
"346 443 OFFCURVE",
"311 443 CURVE SMOOTH",
"234 443 OFFCURVE",
"188 395 OFFCURVE",
"169 303 CURVE SMOOTH",
"154 230 LINE SMOOTH",
"151 214 OFFCURVE",
"149 192 OFFCURVE",
"149 176 CURVE SMOOTH",
"149 117 OFFCURVE",
"176 77 OFFCURVE",
"232 77 CURVE SMOOTH"
);
}
);
width = 586;
}
);
leftKerningGroup = a;
rightKerningGroup = a;
unicode = 0105;
},
{
glyphname = aring;
layers = (
{
layerId = "5E034FFB-2FEE-437B-B143-44B7444E4712";
name = "Regular Italic";
paths = (
{
closed = 1;
nodes = (
"434 0 LINE SMOOTH",
"387 0 OFFCURVE",
"358 25 OFFCURVE",
"358 68 CURVE SMOOTH",
"358 79 OFFCURVE",
"359 89 OFFCURVE",
"361 97 CURVE",
"365 116 LINE",
"361 116 LINE",
"318 31 OFFCURVE",
"272 -12 OFFCURVE",
"192 -12 CURVE SMOOTH",
"96 -12 OFFCURVE",
"42 63 OFFCURVE",
"42 179 CURVE SMOOTH",
"42 270 OFFCURVE",
"65 359 OFFCURVE",
"109 424 CURVE SMOOTH",
"152 489 OFFCURVE",
"214 532 OFFCURVE",
"291 532 CURVE SMOOTH",
"359 532 OFFCURVE",
"413 494 OFFCURVE",
"424 433 CURVE",
"429 433 LINE",
"446 520 LINE",
"550 520 LINE",
"463 87 LINE",
"530 87 LINE",
"513 0 LINE"
);
},
{
closed = 1;
nodes = (
"275 77 OFFCURVE",
"306 98 OFFCURVE",
"333 127 CURVE SMOOTH",
"362 158 OFFCURVE",
"381 196 OFFCURVE",
"390 243 CURVE SMOOTH",
"411 348 LINE SMOOTH",
"415 371 OFFCURVE",
"408 395 OFFCURVE",
"391 413 CURVE SMOOTH",
"374 431 OFFCURVE",
"346 443 OFFCURVE",
"311 443 CURVE SMOOTH",
"234 443 OFFCURVE",
"188 395 OFFCURVE",
"169 303 CURVE SMOOTH",
"154 230 LINE SMOOTH",
"151 214 OFFCURVE",
"149 192 OFFCURVE",
"149 176 CURVE SMOOTH",
"149 117 OFFCURVE",
"176 77 OFFCURVE",
"232 77 CURVE SMOOTH"
);
},
{
closed = 1;
nodes = (
"276 568 OFFCURVE",
"231 614 OFFCURVE",
"231 677 CURVE SMOOTH",
"231 721 OFFCURVE",
"247 758 OFFCURVE",
"273 783 CURVE SMOOTH",
"299 807 OFFCURVE",
"335 822 OFFCURVE",
"376 822 CURVE SMOOTH",
"443 822 OFFCURVE",
"488 777 OFFCURVE",
"488 713 CURVE SMOOTH",
"488 669 OFFCURVE",
"473 632 OFFCURVE",
"447 608 CURVE SMOOTH",
"421 583 OFFCURVE",
"384 568 OFFCURVE",
"343 568 CURVE SMOOTH"
);
},
{
closed = 1;
nodes = (
"384 627 OFFCURVE",
"403 647 OFFCURVE",
"410 680 CURVE SMOOTH",
"414 699 OFFCURVE",
"416 712 OFFCURVE",
"416 721 CURVE SMOOTH",
"416 748 OFFCURVE",
"401 763 OFFCURVE",
"370 763 CURVE SMOOTH",
"335 763 OFFCURVE",
"316 743 OFFCURVE",
"309 710 CURVE SMOOTH",
"305 691 OFFCURVE",
"303 680 OFFCURVE",
"303 669 CURVE SMOOTH",
"303 642 OFFCURVE",
"318 627 OFFCURVE",
"349 627 CURVE SMOOTH"
);
}
);
width = 586;
}
);
leftKerningGroup = a;
rightKerningGroup = a;
unicode = 00E5;
},
{
glyphname = aringacute;
layers = (
{
layerId = "5E034FFB-2FEE-437B-B143-44B7444E4712";
name = "Regular Italic";
paths = (
{
closed = 1;
nodes = (
"434 0 LINE SMOOTH",
"387 0 OFFCURVE",
"358 25 OFFCURVE",
"358 68 CURVE SMOOTH",
"358 79 OFFCURVE",
"359 89 OFFCURVE",
"361 97 CURVE",
"365 116 LINE",
"361 116 LINE",
"318 31 OFFCURVE",
"272 -12 OFFCURVE",
"192 -12 CURVE SMOOTH",
"96 -12 OFFCURVE",
"42 63 OFFCURVE",
"42 179 CURVE SMOOTH",
"42 270 OFFCURVE",
"65 359 OFFCURVE",
"109 424 CURVE SMOOTH",
"152 489 OFFCURVE",
"214 532 OFFCURVE",
"291 532 CURVE SMOOTH",
"359 532 OFFCURVE",
"413 494 OFFCURVE",
"424 433 CURVE",
"429 433 LINE",
"446 520 LINE",
"550 520 LINE",
"463 87 LINE",
"530 87 LINE",
"513 0 LINE"
);
},
{
closed = 1;
nodes = (
"275 77 OFFCURVE",
"306 98 OFFCURVE",
"333 127 CURVE SMOOTH",
"362 158 OFFCURVE",
"381 196 OFFCURVE",
"390 243 CURVE SMOOTH",
"411 348 LINE SMOOTH",
"415 371 OFFCURVE",
"408 395 OFFCURVE",
"391 413 CURVE SMOOTH",
"374 431 OFFCURVE",
"346 443 OFFCURVE",
"311 443 CURVE SMOOTH",
"234 443 OFFCURVE",
"188 395 OFFCURVE",
"169 303 CURVE SMOOTH",
"154 230 LINE SMOOTH",
"151 214 OFFCURVE",
"149 192 OFFCURVE",
"149 176 CURVE SMOOTH",
"149 117 OFFCURVE",
"176 77 OFFCURVE",
"232 77 CURVE SMOOTH"
);
},
{
closed = 1;
nodes = (
"386 814 LINE",
"346 854 LINE",
"458 970 LINE",
"515 915 LINE"
);
},
{
closed = 1;
nodes = (
"276 565 OFFCURVE",
"231 605 OFFCURVE",
"231 665 CURVE SMOOTH",
"231 706 OFFCURVE",
"247 740 OFFCURVE",
"273 763 CURVE SMOOTH",
"299 786 OFFCURVE",
"334 799 OFFCURVE",
"377 799 CURVE SMOOTH",
"444 799 OFFCURVE",
"489 759 OFFCURVE",
"489 699 CURVE SMOOTH",
"489 658 OFFCURVE",
"474 624 OFFCURVE",
"448 601 CURVE SMOOTH",
"422 578 OFFCURVE",
"384 565 OFFCURVE",
"343 565 CURVE SMOOTH"
);
},
{
closed = 1;
nodes = (
"384 622 OFFCURVE",
"404 639 OFFCURVE",
"412 672 CURVE SMOOTH",
"415 685 OFFCURVE",
"416 697 OFFCURVE",
"416 702 CURVE SMOOTH",
"416 729 OFFCURVE",
"400 742 OFFCURVE",
"369 742 CURVE SMOOTH",
"336 742 OFFCURVE",
"316 725 OFFCURVE",
"308 692 CURVE SMOOTH",
"305 679 OFFCURVE",
"304 667 OFFCURVE",
"304 662 CURVE SMOOTH",
"304 635 OFFCURVE",
"320 622 OFFCURVE",
"351 622 CURVE SMOOTH"
);
}
);
width = 586;
}
);
leftKerningGroup = a;
rightKerningGroup = a;
unicode = 01FB;
},
{
glyphname = atilde;
layers = (
{
layerId = "5E034FFB-2FEE-437B-B143-44B7444E4712";
name = "Regular Italic";
paths = (
{
closed = 1;
nodes = (
"434 0 LINE SMOOTH",
"387 0 OFFCURVE",
"358 25 OFFCURVE",
"358 68 CURVE SMOOTH",
"358 79 OFFCURVE",
"359 89 OFFCURVE",
"361 97 CURVE",
"365 116 LINE",
"361 116 LINE",
"318 31 OFFCURVE",
"272 -12 OFFCURVE",
"192 -12 CURVE SMOOTH",
"96 -12 OFFCURVE",
"42 63 OFFCURVE",
"42 179 CURVE SMOOTH",
"42 270 OFFCURVE",
"65 359 OFFCURVE",
"109 424 CURVE SMOOTH",
"152 489 OFFCURVE",
"214 532 OFFCURVE",
"291 532 CURVE SMOOTH",
"359 532 OFFCURVE",
"413 494 OFFCURVE",
"424 433 CURVE",
"429 433 LINE",
"446 520 LINE",
"550 520 LINE",
"463 87 LINE",
"530 87 LINE",
"513 0 LINE"
);
},
{
closed = 1;
nodes = (
"275 77 OFFCURVE",
"306 98 OFFCURVE",
"333 127 CURVE SMOOTH",
"362 158 OFFCURVE",
"381 196 OFFCURVE",
"390 243 CURVE SMOOTH",
"411 348 LINE SMOOTH",
"415 371 OFFCURVE",
"408 395 OFFCURVE",
"391 413 CURVE SMOOTH",
"374 431 OFFCURVE",
"346 443 OFFCURVE",
"311 443 CURVE SMOOTH",
"234 443 OFFCURVE",
"188 395 OFFCURVE",
"169 303 CURVE SMOOTH",
"154 230 LINE SMOOTH",
"151 214 OFFCURVE",
"149 192 OFFCURVE",
"149 176 CURVE SMOOTH",
"149 117 OFFCURVE",
"176 77 OFFCURVE",
"232 77 CURVE SMOOTH"
);
},
{
closed = 1;
nodes = (
"392 607 OFFCURVE",
"372 619 OFFCURVE",
"349 631 CURVE",
"323 646 OFFCURVE",
"300 654 OFFCURVE",
"281 654 CURVE SMOOTH",
"258 654 OFFCURVE",
"245 645 OFFCURVE",
"222 628 CURVE",
"187 679 LINE",
"214 711 OFFCURVE",
"246 736 OFFCURVE",
"293 736 CURVE SMOOTH",
"325 736 OFFCURVE",
"345 725 OFFCURVE",
"368 713 CURVE",
"394 698 OFFCURVE",
"417 690 OFFCURVE",
"436 690 CURVE SMOOTH",
"459 690 OFFCURVE",
"472 699 OFFCURVE",
"495 716 CURVE",
"530 664 LINE",
"503 632 OFFCURVE",
"471 607 OFFCURVE",
"424 607 CURVE SMOOTH"
);
}
);
width = 586;
}
);
leftKerningGroup = a;
rightKerningGroup = a;
unicode = 00E3;
},
{
glyphname = uni1EAF;
layers = (
{
layerId = "5E034FFB-2FEE-437B-B143-44B7444E4712";
name = "Regular Italic";
paths = (
{
closed = 1;
nodes = (
"434 0 LINE SMOOTH",
"387 0 OFFCURVE",
"358 25 OFFCURVE",
"358 68 CURVE SMOOTH",
"358 79 OFFCURVE",
"359 89 OFFCURVE",
"361 97 CURVE",
"365 116 LINE",
"361 116 LINE",
"318 31 OFFCURVE",
"272 -12 OFFCURVE",
"192 -12 CURVE SMOOTH",
"96 -12 OFFCURVE",
"42 63 OFFCURVE",
"42 179 CURVE SMOOTH",
"42 270 OFFCURVE",
"65 359 OFFCURVE",
"109 424 CURVE SMOOTH",
"152 489 OFFCURVE",
"214 532 OFFCURVE",
"291 532 CURVE SMOOTH",
"359 532 OFFCURVE",
"413 494 OFFCURVE",
"424 433 CURVE",
"429 433 LINE",
"446 520 LINE",
"550 520 LINE",
"463 87 LINE",
"530 87 LINE",
"513 0 LINE"
);
},
{
closed = 1;
nodes = (
"275 77 OFFCURVE",
"306 98 OFFCURVE",
"333 127 CURVE SMOOTH",
"362 158 OFFCURVE",
"381 196 OFFCURVE",
"390 243 CURVE SMOOTH",
"411 348 LINE SMOOTH",
"415 371 OFFCURVE",
"408 395 OFFCURVE",
"391 413 CURVE SMOOTH",
"374 431 OFFCURVE",
"346 443 OFFCURVE",
"311 443 CURVE SMOOTH",
"234 443 OFFCURVE",
"188 395 OFFCURVE",
"169 303 CURVE SMOOTH",
"154 230 LINE SMOOTH",
"151 214 OFFCURVE",
"149 192 OFFCURVE",
"149 176 CURVE SMOOTH",
"149 117 OFFCURVE",
"176 77 OFFCURVE",
"232 77 CURVE SMOOTH"
);
},
{
closed = 1;
nodes = (
"291 579 OFFCURVE",
"257 598 OFFCURVE",
"234 626 CURVE",
"210 653 OFFCURVE",
"198 688 OFFCURVE",
"193 720 CURVE",
"251 751 LINE",
"264 726 LINE SMOOTH",
"288 678 OFFCURVE",
"305 657 OFFCURVE",
"349 657 CURVE SMOOTH",
"386 657 OFFCURVE",
"413 675 OFFCURVE",
"456 726 CURVE SMOOTH",
"477 751 LINE",
"535 718 LINE",
"516 685 OFFCURVE",
"495 650 OFFCURVE",
"465 624 CURVE SMOOTH",
"435 598 OFFCURVE",
"397 579 OFFCURVE",
"346 579 CURVE SMOOTH"
);
},
{
closed = 1;
nodes = (
"374 713 LINE",
"314 745 LINE",
"419 925 LINE",
"503 880 LINE"
);
}
);
width = 586;
}
);
leftKerningGroup = a;
rightKerningGroup = a;
unicode = 1EAF;
},
{
glyphname = uni1EB7;
layers = (
{
layerId = "5E034FFB-2FEE-437B-B143-44B7444E4712";
name = "Regular Italic";
paths = (
{
closed = 1;
nodes = (
"434 0 LINE SMOOTH",
"387 0 OFFCURVE",
"358 25 OFFCURVE",
"358 68 CURVE SMOOTH",
"358 79 OFFCURVE",
"359 89 OFFCURVE",
"361 97 CURVE",
"365 116 LINE",
"361 116 LINE",
"318 31 OFFCURVE",
"272 -12 OFFCURVE",
"192 -12 CURVE SMOOTH",
"96 -12 OFFCURVE",
"42 63 OFFCURVE",
"42 179 CURVE SMOOTH",
"42 270 OFFCURVE",
"65 359 OFFCURVE",
"109 424 CURVE SMOOTH",
"152 489 OFFCURVE",
"214 532 OFFCURVE",
"291 532 CURVE SMOOTH",
"359 532 OFFCURVE",
"413 494 OFFCURVE",
"424 433 CURVE",
"429 433 LINE",
"446 520 LINE",
"550 520 LINE",
"463 87 LINE",
"530 87 LINE",
"513 0 LINE"
);
},
{
closed = 1;
nodes = (
"275 77 OFFCURVE",
"306 98 OFFCURVE",
"333 127 CURVE SMOOTH",
"362 158 OFFCURVE",
"381 196 OFFCURVE",
"390 243 CURVE SMOOTH",
"411 348 LINE SMOOTH",
"415 371 OFFCURVE",
"408 395 OFFCURVE",
"391 413 CURVE SMOOTH",
"374 431 OFFCURVE",
"346 443 OFFCURVE",
"311 443 CURVE SMOOTH",
"234 443 OFFCURVE",
"188 395 OFFCURVE",
"169 303 CURVE SMOOTH",
"154 230 LINE SMOOTH",
"151 214 OFFCURVE",
"149 192 OFFCURVE",
"149 176 CURVE SMOOTH",
"149 117 OFFCURVE",
"176 77 OFFCURVE",
"232 77 CURVE SMOOTH"
);
},
{
closed = 1;
nodes = (
"294 589 OFFCURVE",
"260 610 OFFCURVE",
"238 639 CURVE SMOOTH",
"216 668 OFFCURVE",
"204 706 OFFCURVE",
"199 739 CURVE",
"259 768 LINE",
"273 739 LINE SMOOTH",
"293 694 OFFCURVE",
"311 668 OFFCURVE",
"351 668 CURVE SMOOTH",
"387 668 OFFCURVE",
"411 689 OFFCURVE",
"450 740 CURVE SMOOTH",
"472 768 LINE",
"535 737 LINE",
"516 702 OFFCURVE",
"496 666 OFFCURVE",
"466 638 CURVE SMOOTH",
"436 609 OFFCURVE",
"397 589 OFFCURVE",
"346 589 CURVE SMOOTH"
);
},
{
closed = 1;
nodes = (
"189 -184 OFFCURVE",
"171 -170 OFFCURVE",
"171 -141 CURVE SMOOTH",
"171 -138 OFFCURVE",
"172 -135 OFFCURVE",
"173 -131 CURVE SMOOTH",
"174 -127 OFFCURVE",
"175 -121 OFFCURVE",
"176 -112 CURVE",
"183 -80 OFFCURVE",
"202 -60 OFFCURVE",
"243 -60 CURVE SMOOTH",
"279 -60 OFFCURVE",
"297 -74 OFFCURVE",
"297 -103 CURVE SMOOTH",
"297 -106 OFFCURVE",
"297 -109 OFFCURVE",
"296 -113 CURVE SMOOTH",
"295 -117 OFFCURVE",
"293 -123 OFFCURVE",
"292 -132 CURVE",
"285 -164 OFFCURVE",
"266 -184 OFFCURVE",
"225 -184 CURVE SMOOTH"
);
}
);
width = 586;
}
);
leftKerningGroup = a;
rightKerningGroup = a;
unicode = 1EB7;
},
{
glyphname = uni1EB1;
layers = (
{
layerId = "5E034FFB-2FEE-437B-B143-44B7444E4712";
name = "Regular Italic";
paths = (
{
closed = 1;
nodes = (
"434 0 LINE SMOOTH",
"387 0 OFFCURVE",
"358 25 OFFCURVE",
"358 68 CURVE SMOOTH",
"358 79 OFFCURVE",
"359 89 OFFCURVE",
"361 97 CURVE",
"365 116 LINE",
"361 116 LINE",
"318 31 OFFCURVE",
"272 -12 OFFCURVE",
"192 -12 CURVE SMOOTH",
"96 -12 OFFCURVE",
"42 63 OFFCURVE",
"42 179 CURVE SMOOTH",
"42 270 OFFCURVE",
"65 359 OFFCURVE",
"109 424 CURVE SMOOTH",
"152 489 OFFCURVE",
"214 532 OFFCURVE",
"291 532 CURVE SMOOTH",
"359 532 OFFCURVE",
"413 494 OFFCURVE",
"424 433 CURVE",
"429 433 LINE",
"446 520 LINE",
"550 520 LINE",
"463 87 LINE",
"530 87 LINE",
"513 0 LINE"
);
},
{
closed = 1;
nodes = (
"275 77 OFFCURVE",
"306 98 OFFCURVE",
"333 127 CURVE SMOOTH",
"362 158 OFFCURVE",
"381 196 OFFCURVE",
"390 243 CURVE SMOOTH",
"411 348 LINE SMOOTH",
"415 371 OFFCURVE",
"408 395 OFFCURVE",
"391 413 CURVE SMOOTH",
"374 431 OFFCURVE",
"346 443 OFFCURVE",
"311 443 CURVE SMOOTH",
"234 443 OFFCURVE",
"188 395 OFFCURVE",
"169 303 CURVE SMOOTH",
"154 230 LINE SMOOTH",
"151 214 OFFCURVE",
"149 192 OFFCURVE",
"149 176 CURVE SMOOTH",
"149 117 OFFCURVE",
"176 77 OFFCURVE",
"232 77 CURVE SMOOTH"
);
},
{
closed = 1;
nodes = (
"291 579 OFFCURVE",
"257 598 OFFCURVE",
"234 626 CURVE",
"210 653 OFFCURVE",
"198 688 OFFCURVE",
"193 720 CURVE",
"251 751 LINE",
"264 726 LINE SMOOTH",
"288 678 OFFCURVE",
"305 657 OFFCURVE",
"349 657 CURVE SMOOTH",
"386 657 OFFCURVE",
"413 675 OFFCURVE",
"456 726 CURVE SMOOTH",
"477 751 LINE",
"535 718 LINE",
"516 685 OFFCURVE",
"495 650 OFFCURVE",
"465 624 CURVE SMOOTH",
"435 598 OFFCURVE",
"397 579 OFFCURVE",
"346 579 CURVE SMOOTH"
);
},
{
closed = 1;
nodes = (
"254 883 LINE",
"345 924 LINE",
"405 742 LINE",
"343 714 LINE"
);
}
);
width = 586;
}
);
leftKerningGroup = a;
rightKerningGroup = a;
unicode = 1EB1;
},
{
glyphname = uni1EB3;
layers = (
{
layerId = "5E034FFB-2FEE-437B-B143-44B7444E4712";
name = "Regular Italic";
paths = (
{
closed = 1;
nodes = (
"434 0 LINE SMOOTH",
"387 0 OFFCURVE",
"358 25 OFFCURVE",
"358 68 CURVE SMOOTH",
"358 79 OFFCURVE",
"359 89 OFFCURVE",
"361 97 CURVE",
"365 116 LINE",
"361 116 LINE",
"318 31 OFFCURVE",
"272 -12 OFFCURVE",
"192 -12 CURVE SMOOTH",
"96 -12 OFFCURVE",
"42 63 OFFCURVE",
"42 179 CURVE SMOOTH",
"42 270 OFFCURVE",
"65 359 OFFCURVE",
"109 424 CURVE SMOOTH",
"152 489 OFFCURVE",
"214 532 OFFCURVE",
"291 532 CURVE SMOOTH",
"359 532 OFFCURVE",
"413 494 OFFCURVE",
"424 433 CURVE",
"429 433 LINE",
"446 520 LINE",
"550 520 LINE",
"463 87 LINE",
"530 87 LINE",
"513 0 LINE"
);
},
{
closed = 1;
nodes = (
"275 77 OFFCURVE",
"306 98 OFFCURVE",
"333 127 CURVE SMOOTH",
"362 158 OFFCURVE",
"381 196 OFFCURVE",
"390 243 CURVE SMOOTH",
"411 348 LINE SMOOTH",
"415 371 OFFCURVE",
"408 395 OFFCURVE",
"391 413 CURVE SMOOTH",
"374 431 OFFCURVE",
"346 443 OFFCURVE",
"311 443 CURVE SMOOTH",
"234 443 OFFCURVE",
"188 395 OFFCURVE",
"169 303 CURVE SMOOTH",
"154 230 LINE SMOOTH",
"151 214 OFFCURVE",
"149 192 OFFCURVE",
"149 176 CURVE SMOOTH",
"149 117 OFFCURVE",
"176 77 OFFCURVE",
"232 77 CURVE SMOOTH"
);
},
{
closed = 1;
nodes = (
"291 579 OFFCURVE",
"257 598 OFFCURVE",
"234 626 CURVE",
"210 653 OFFCURVE",
"198 688 OFFCURVE",
"193 720 CURVE",
"251 751 LINE",
"264 726 LINE SMOOTH",
"288 678 OFFCURVE",
"305 657 OFFCURVE",
"349 657 CURVE SMOOTH",
"386 657 OFFCURVE",
"413 675 OFFCURVE",
"456 726 CURVE SMOOTH",
"477 751 LINE",
"535 718 LINE",
"516 685 OFFCURVE",
"495 650 OFFCURVE",
"465 624 CURVE SMOOTH",
"435 598 OFFCURVE",
"397 579 OFFCURVE",
"346 579 CURVE SMOOTH"
);
},
{
closed = 1;
nodes = (
"285 911 LINE",
"404 911 LINE SMOOTH",
"453 911 OFFCURVE",
"471 886 OFFCURVE",
"471 858 CURVE SMOOTH",
"471 821 OFFCURVE",
"448 789 OFFCURVE",
"415 750 CURVE SMOOTH",
"375 704 LINE",
"323 732 LINE",
"383 836 LINE",
"271 836 LINE"
);
}
);
width = 586;
}
);
leftKerningGroup = a;
rightKerningGroup = a;
unicode = 1EB3;
},
{
glyphname = uni1EB5;
layers = (
{
layerId = "5E034FFB-2FEE-437B-B143-44B7444E4712";
name = "Regular Italic";
paths = (
{
closed = 1;
nodes = (
"434 0 LINE SMOOTH",
"387 0 OFFCURVE",
"358 25 OFFCURVE",
"358 68 CURVE SMOOTH",
"358 79 OFFCURVE",
"359 89 OFFCURVE",
"361 97 CURVE",
"365 116 LINE",
"361 116 LINE",
"318 31 OFFCURVE",
"272 -12 OFFCURVE",
"192 -12 CURVE SMOOTH",
"96 -12 OFFCURVE",
"42 63 OFFCURVE",
"42 179 CURVE SMOOTH",
"42 270 OFFCURVE",
"65 359 OFFCURVE",
"109 424 CURVE SMOOTH",
"152 489 OFFCURVE",
"214 532 OFFCURVE",
"291 532 CURVE SMOOTH",
"359 532 OFFCURVE",
"413 494 OFFCURVE",
"424 433 CURVE",
"429 433 LINE",
"446 520 LINE",
"550 520 LINE",
"463 87 LINE",
"530 87 LINE",
"513 0 LINE"
);
},
{
closed = 1;
nodes = (
"275 77 OFFCURVE",
"306 98 OFFCURVE",
"333 127 CURVE SMOOTH",
"362 158 OFFCURVE",
"381 196 OFFCURVE",
"390 243 CURVE SMOOTH",
"411 348 LINE SMOOTH",
"415 371 OFFCURVE",
"408 395 OFFCURVE",
"391 413 CURVE SMOOTH",
"374 431 OFFCURVE",
"346 443 OFFCURVE",
"311 443 CURVE SMOOTH",
"234 443 OFFCURVE",
"188 395 OFFCURVE",
"169 303 CURVE SMOOTH",
"154 230 LINE SMOOTH",
"151 214 OFFCURVE",
"149 192 OFFCURVE",
"149 176 CURVE SMOOTH",
"149 117 OFFCURVE",
"176 77 OFFCURVE",
"232 77 CURVE SMOOTH"
);
},
{
closed = 1;
nodes = (
"291 579 OFFCURVE",
"257 598 OFFCURVE",
"234 626 CURVE",
"210 653 OFFCURVE",
"198 688 OFFCURVE",
"193 720 CURVE",
"251 751 LINE",
"264 726 LINE SMOOTH",
"288 678 OFFCURVE",
"305 657 OFFCURVE",
"349 657 CURVE SMOOTH",
"386 657 OFFCURVE",
"413 675 OFFCURVE",
"456 726 CURVE SMOOTH",
"477 751 LINE",
"535 718 LINE",
"516 685 OFFCURVE",
"495 650 OFFCURVE",
"465 624 CURVE SMOOTH",
"435 598 OFFCURVE",
"397 579 OFFCURVE",
"346 579 CURVE SMOOTH"
);
},
{
closed = 1;
nodes = (
"407 779 OFFCURVE",
"386 791 OFFCURVE",
"366 802 CURVE",
"338 819 OFFCURVE",
"320 826 OFFCURVE",
"299 826 CURVE SMOOTH",
"278 826 OFFCURVE",
"261 816 OFFCURVE",
"238 799 CURVE",
"208 848 LINE",
"232 879 OFFCURVE",
"269 904 OFFCURVE",
"316 904 CURVE SMOOTH",
"347 904 OFFCURVE",
"368 891 OFFCURVE",
"388 880 CURVE SMOOTH",
"416 864 OFFCURVE",
"434 857 OFFCURVE",
"455 857 CURVE SMOOTH",
"476 857 OFFCURVE",
"492 866 OFFCURVE",
"515 883 CURVE",
"545 836 LINE",
"522 805 OFFCURVE",
"485 779 OFFCURVE",
"438 779 CURVE SMOOTH"
);
}
);
width = 586;
}
);
leftKerningGroup = a;
rightKerningGroup = a;
unicode = 1EB5;
},
{
glyphname = uni1EA5;
layers = (
{
layerId = "5E034FFB-2FEE-437B-B143-44B7444E4712";
name = "Regular Italic";
paths = (
{
closed = 1;
nodes = (
"434 0 LINE SMOOTH",
"387 0 OFFCURVE",
"358 25 OFFCURVE",
"358 68 CURVE SMOOTH",
"358 79 OFFCURVE",
"359 89 OFFCURVE",
"361 97 CURVE",
"365 116 LINE",
"361 116 LINE",
"318 31 OFFCURVE",
"272 -12 OFFCURVE",
"192 -12 CURVE SMOOTH",
"96 -12 OFFCURVE",
"42 63 OFFCURVE",
"42 179 CURVE SMOOTH",
"42 270 OFFCURVE",
"65 359 OFFCURVE",
"109 424 CURVE SMOOTH",
"152 489 OFFCURVE",
"214 532 OFFCURVE",
"291 532 CURVE SMOOTH",
"359 532 OFFCURVE",
"413 494 OFFCURVE",
"424 433 CURVE",
"429 433 LINE",
"446 520 LINE",
"550 520 LINE",
"463 87 LINE",
"530 87 LINE",
"513 0 LINE"
);
},
{
closed = 1;
nodes = (
"275 77 OFFCURVE",
"306 98 OFFCURVE",
"333 127 CURVE SMOOTH",
"362 158 OFFCURVE",
"381 196 OFFCURVE",
"390 243 CURVE SMOOTH",
"411 348 LINE SMOOTH",
"415 371 OFFCURVE",
"408 395 OFFCURVE",
"391 413 CURVE SMOOTH",
"374 431 OFFCURVE",
"346 443 OFFCURVE",
"311 443 CURVE SMOOTH",
"234 443 OFFCURVE",
"188 395 OFFCURVE",
"169 303 CURVE SMOOTH",
"154 230 LINE SMOOTH",
"151 214 OFFCURVE",
"149 192 OFFCURVE",
"149 176 CURVE SMOOTH",
"149 117 OFFCURVE",
"176 77 OFFCURVE",
"232 77 CURVE SMOOTH"
);
},
{
closed = 1;
nodes = (
"524 714 LINE",
"464 746 LINE",
"567 924 LINE",
"652 881 LINE"
);
},
{
closed = 1;
nodes = (
"421 760 LINE",
"517 621 LINE",
"464 576 LINE",
"367 685 LINE",
"232 576 LINE",
"182 621 LINE",
"329 760 LINE"
);
}
);
width = 586;
}
);
leftKerningGroup = a;
rightKerningGroup = a;
unicode = 1EA5;
},
{
glyphname = uni1EAD;
layers = (
{
layerId = "5E034FFB-2FEE-437B-B143-44B7444E4712";
name = "Regular Italic";
paths = (
{
closed = 1;
nodes = (
"434 0 LINE SMOOTH",
"387 0 OFFCURVE",
"358 25 OFFCURVE",
"358 68 CURVE SMOOTH",
"358 79 OFFCURVE",
"359 89 OFFCURVE",
"361 97 CURVE",
"365 116 LINE",
"361 116 LINE",
"318 31 OFFCURVE",
"272 -12 OFFCURVE",
"192 -12 CURVE SMOOTH",
"96 -12 OFFCURVE",
"42 63 OFFCURVE",
"42 179 CURVE SMOOTH",
"42 270 OFFCURVE",
"65 359 OFFCURVE",
"109 424 CURVE SMOOTH",
"152 489 OFFCURVE",
"214 532 OFFCURVE",
"291 532 CURVE SMOOTH",
"359 532 OFFCURVE",
"413 494 OFFCURVE",
"424 433 CURVE",
"429 433 LINE",
"446 520 LINE",
"550 520 LINE",
"463 87 LINE",
"530 87 LINE",
"513 0 LINE"
);
},
{
closed = 1;
nodes = (
"275 77 OFFCURVE",
"306 98 OFFCURVE",
"333 127 CURVE SMOOTH",
"362 158 OFFCURVE",
"381 196 OFFCURVE",
"390 243 CURVE SMOOTH",
"411 348 LINE SMOOTH",
"415 371 OFFCURVE",
"408 395 OFFCURVE",
"391 413 CURVE SMOOTH",
"374 431 OFFCURVE",
"346 443 OFFCURVE",
"311 443 CURVE SMOOTH",
"234 443 OFFCURVE",
"188 395 OFFCURVE",
"169 303 CURVE SMOOTH",
"154 230 LINE SMOOTH",
"151 214 OFFCURVE",
"149 192 OFFCURVE",
"149 176 CURVE SMOOTH",
"149 117 OFFCURVE",
"176 77 OFFCURVE",
"232 77 CURVE SMOOTH"
);
},
{
closed = 1;
nodes = (
"426 778 LINE",
"516 628 LINE",
"459 585 LINE",
"364 701 LINE",
"227 586 LINE",
"175 629 LINE",
"320 778 LINE"
);
},
{
closed = 1;
nodes = (
"189 -184 OFFCURVE",
"171 -170 OFFCURVE",
"171 -141 CURVE SMOOTH",
"171 -138 OFFCURVE",
"172 -135 OFFCURVE",
"173 -131 CURVE SMOOTH",
"174 -127 OFFCURVE",
"175 -121 OFFCURVE",
"176 -112 CURVE",
"183 -80 OFFCURVE",
"202 -60 OFFCURVE",
"243 -60 CURVE SMOOTH",
"279 -60 OFFCURVE",
"297 -74 OFFCURVE",
"297 -103 CURVE SMOOTH",
"297 -106 OFFCURVE",
"297 -109 OFFCURVE",
"296 -113 CURVE SMOOTH",
"295 -117 OFFCURVE",
"293 -123 OFFCURVE",
"292 -132 CURVE",
"285 -164 OFFCURVE",
"266 -184 OFFCURVE",
"225 -184 CURVE SMOOTH"
);
}
);
width = 586;
}
);
leftKerningGroup = a;
rightKerningGroup = a;
unicode = 1EAD;
},
{
glyphname = uni1EA7;
layers = (
{
layerId = "5E034FFB-2FEE-437B-B143-44B7444E4712";
name = "Regular Italic";
paths = (
{
closed = 1;
nodes = (
"434 0 LINE SMOOTH",
"387 0 OFFCURVE",
"358 25 OFFCURVE",
"358 68 CURVE SMOOTH",
"358 79 OFFCURVE",
"359 89 OFFCURVE",
"361 97 CURVE",
"365 116 LINE",
"361 116 LINE",
"318 31 OFFCURVE",
"272 -12 OFFCURVE",
"192 -12 CURVE SMOOTH",
"96 -12 OFFCURVE",
"42 63 OFFCURVE",
"42 179 CURVE SMOOTH",
"42 270 OFFCURVE",
"65 359 OFFCURVE",
"109 424 CURVE SMOOTH",
"152 489 OFFCURVE",
"214 532 OFFCURVE",
"291 532 CURVE SMOOTH",
"359 532 OFFCURVE",
"413 494 OFFCURVE",
"424 433 CURVE",
"429 433 LINE",
"446 520 LINE",
"550 520 LINE",
"463 87 LINE",
"530 87 LINE",
"513 0 LINE"
);
},
{
closed = 1;
nodes = (
"275 77 OFFCURVE",
"306 98 OFFCURVE",
"333 127 CURVE SMOOTH",
"362 158 OFFCURVE",
"381 196 OFFCURVE",
"390 243 CURVE SMOOTH",
"411 348 LINE SMOOTH",
"415 371 OFFCURVE",
"408 395 OFFCURVE",
"391 413 CURVE SMOOTH",
"374 431 OFFCURVE",
"346 443 OFFCURVE",
"311 443 CURVE SMOOTH",
"234 443 OFFCURVE",
"188 395 OFFCURVE",
"169 303 CURVE SMOOTH",
"154 230 LINE SMOOTH",
"151 214 OFFCURVE",
"149 192 OFFCURVE",
"149 176 CURVE SMOOTH",
"149 117 OFFCURVE",
"176 77 OFFCURVE",
"232 77 CURVE SMOOTH"
);
},
{
closed = 1;
nodes = (
"119 883 LINE",
"206 924 LINE",
"272 745 LINE",
"215 716 LINE"
);
},
{
closed = 1;
nodes = (
"420 760 LINE",
"517 621 LINE",
"463 576 LINE",
"367 685 LINE",
"232 576 LINE",
"181 621 LINE",
"328 760 LINE"
);
}
);
width = 586;
}
);
leftKerningGroup = a;
rightKerningGroup = a;
unicode = 1EA7;
},
{
glyphname = uni1EA9;
layers = (
{
layerId = "5E034FFB-2FEE-437B-B143-44B7444E4712";
name = "Regular Italic";
paths = (
{
closed = 1;
nodes = (
"434 0 LINE SMOOTH",
"387 0 OFFCURVE",
"358 25 OFFCURVE",
"358 68 CURVE SMOOTH",
"358 79 OFFCURVE",
"359 89 OFFCURVE",
"361 97 CURVE",
"365 116 LINE",
"361 116 LINE",
"318 31 OFFCURVE",
"272 -12 OFFCURVE",
"192 -12 CURVE SMOOTH",
"96 -12 OFFCURVE",
"42 63 OFFCURVE",
"42 179 CURVE SMOOTH",
"42 270 OFFCURVE",
"65 359 OFFCURVE",
"109 424 CURVE SMOOTH",
"152 489 OFFCURVE",
"214 532 OFFCURVE",
"291 532 CURVE SMOOTH",
"359 532 OFFCURVE",
"413 494 OFFCURVE",
"424 433 CURVE",
"429 433 LINE",
"446 520 LINE",
"550 520 LINE",
"463 87 LINE",
"530 87 LINE",
"513 0 LINE"
);
},
{
closed = 1;
nodes = (
"275 77 OFFCURVE",
"306 98 OFFCURVE",
"333 127 CURVE SMOOTH",
"362 158 OFFCURVE",
"381 196 OFFCURVE",
"390 243 CURVE SMOOTH",
"411 348 LINE SMOOTH",
"415 371 OFFCURVE",
"408 395 OFFCURVE",
"391 413 CURVE SMOOTH",
"374 431 OFFCURVE",
"346 443 OFFCURVE",
"311 443 CURVE SMOOTH",
"234 443 OFFCURVE",
"188 395 OFFCURVE",
"169 303 CURVE SMOOTH",
"154 230 LINE SMOOTH",
"151 214 OFFCURVE",
"149 192 OFFCURVE",
"149 176 CURVE SMOOTH",
"149 117 OFFCURVE",
"176 77 OFFCURVE",
"232 77 CURVE SMOOTH"
);
},
{
closed = 1;
nodes = (
"432 911 LINE",
"551 911 LINE SMOOTH",
"602 911 OFFCURVE",
"618 886 OFFCURVE",
"618 859 CURVE SMOOTH",
"618 822 OFFCURVE",
"593 790 OFFCURVE",
"562 751 CURVE SMOOTH",
"522 704 LINE",
"469 732 LINE",
"533 836 LINE",
"418 836 LINE"
);
},
{
closed = 1;
nodes = (
"420 760 LINE",
"517 621 LINE",
"463 576 LINE",
"367 685 LINE",
"232 576 LINE",
"181 621 LINE",
"328 760 LINE"
);
}
);
width = 586;
}
);
leftKerningGroup = a;
rightKerningGroup = a;
unicode = 1EA9;
},
{
glyphname = uni1EAB;
layers = (
{
layerId = "5E034FFB-2FEE-437B-B143-44B7444E4712";
name = "Regular Italic";
paths = (
{
closed = 1;
nodes = (
"434 0 LINE SMOOTH",
"387 0 OFFCURVE",
"358 25 OFFCURVE",
"358 68 CURVE SMOOTH",
"358 79 OFFCURVE",
"359 89 OFFCURVE",
"361 97 CURVE",
"365 116 LINE",
"361 116 LINE",
"318 31 OFFCURVE",
"272 -12 OFFCURVE",
"192 -12 CURVE SMOOTH",
"96 -12 OFFCURVE",
"42 63 OFFCURVE",
"42 179 CURVE SMOOTH",
"42 270 OFFCURVE",
"65 359 OFFCURVE",
"109 424 CURVE SMOOTH",
"152 489 OFFCURVE",
"214 532 OFFCURVE",
"291 532 CURVE SMOOTH",
"359 532 OFFCURVE",
"413 494 OFFCURVE",
"424 433 CURVE",
"429 433 LINE",
"446 520 LINE",
"550 520 LINE",
"463 87 LINE",
"530 87 LINE",
"513 0 LINE"
);
},
{
closed = 1;
nodes = (
"275 77 OFFCURVE",
"306 98 OFFCURVE",
"333 127 CURVE SMOOTH",
"362 158 OFFCURVE",
"381 196 OFFCURVE",
"390 243 CURVE SMOOTH",
"411 348 LINE SMOOTH",
"415 371 OFFCURVE",
"408 395 OFFCURVE",
"391 413 CURVE SMOOTH",
"374 431 OFFCURVE",
"346 443 OFFCURVE",
"311 443 CURVE SMOOTH",
"234 443 OFFCURVE",
"188 395 OFFCURVE",
"169 303 CURVE SMOOTH",
"154 230 LINE SMOOTH",
"151 214 OFFCURVE",
"149 192 OFFCURVE",
"149 176 CURVE SMOOTH",
"149 117 OFFCURVE",
"176 77 OFFCURVE",
"232 77 CURVE SMOOTH"
);
},
{
closed = 1;
nodes = (
"357 907 OFFCURVE",
"375 896 OFFCURVE",
"396 884 CURVE SMOOTH",
"424 868 OFFCURVE",
"442 861 OFFCURVE",
"461 861 CURVE SMOOTH",
"482 861 OFFCURVE",
"498 870 OFFCURVE",
"521 887 CURVE",
"550 840 LINE",
"525 809 OFFCURVE",
"489 783 OFFCURVE",
"442 783 CURVE SMOOTH",
"411 783 OFFCURVE",
"393 795 OFFCURVE",
"373 807 CURVE SMOOTH",
"345 824 OFFCURVE",
"327 830 OFFCURVE",
"307 830 CURVE SMOOTH",
"287 830 OFFCURVE",
"270 820 OFFCURVE",
"247 803 CURVE",
"218 850 LINE",
"245 881 OFFCURVE",
"279 907 OFFCURVE",
"326 907 CURVE SMOOTH"
);
},
{
closed = 1;
nodes = (
"416 755 LINE",
"513 622 LINE",
"459 576 LINE",
"360 685 LINE",
"228 576 LINE",
"177 622 LINE",
"323 755 LINE"
);
}
);
width = 586;
}
);
leftKerningGroup = a;
rightKerningGroup = a;
unicode = 1EAB;
},
{
glyphname = ae;
layers = (
{
layerId = "5E034FFB-2FEE-437B-B143-44B7444E4712";
name = "Regular Italic";
paths = (
{
closed = 1;
nodes = (
"233 70 OFFCURVE",
"263 78 OFFCURVE",
"287 93 CURVE SMOOTH",
"310 108 OFFCURVE",
"327 129 OFFCURVE",
"332 154 CURVE SMOOTH",
"346 224 LINE",
"255 220 LINE SMOOTH",
"192 217 OFFCURVE",
"146 206 OFFCURVE",
"135 161 CURVE SMOOTH",
"132 150 OFFCURVE",
"131 142 OFFCURVE",
"131 137 CURVE",
"130 132 OFFCURVE",
"130 128 OFFCURVE",
"130 125 CURVE SMOOTH",
"130 90 OFFCURVE",
"157 70 OFFCURVE",
"204 70 CURVE SMOOTH"
);
},
{
closed = 1;
nodes = (
"538 449 OFFCURVE",
"486 397 OFFCURVE",
"467 314 CURVE SMOOTH",
"462 292 LINE",
"557 296 OFFCURVE",
"614 305 OFFCURVE",
"648 320 CURVE SMOOTH",
"682 335 OFFCURVE",
"692 354 OFFCURVE",
"692 381 CURVE SMOOTH",
"692 409 OFFCURVE",
"682 427 OFFCURVE",
"667 437 CURVE SMOOTH",
"651 447 OFFCURVE",
"632 449 OFFCURVE",
"615 449 CURVE SMOOTH"
);
},
{
closed = 1;
nodes = (
"77 -12 OFFCURVE",
"23 38 OFFCURVE",
"23 123 CURVE SMOOTH",
"23 226 OFFCURVE",
"102 281 OFFCURVE",
"260 287 CURVE SMOOTH",
"360 291 LINE",
"368 336 LINE SMOOTH",
"370 347 OFFCURVE",
"371 356 OFFCURVE",
"371 365 CURVE SMOOTH",
"371 418 OFFCURVE",
"340 444 OFFCURVE",
"277 444 CURVE SMOOTH",
"214 444 OFFCURVE",
"179 416 OFFCURVE",
"147 373 CURVE",
"85 433 LINE",
"126 493 OFFCURVE",
"199 532 OFFCURVE",
"288 532 CURVE SMOOTH",
"368 532 OFFCURVE",
"415 500 OFFCURVE",
"438 445 CURVE",
"445 445 LINE",
"488 500 OFFCURVE",
"546 532 OFFCURVE",
"621 532 CURVE SMOOTH",
"661 532 OFFCURVE",
"705 523 OFFCURVE",
"738 500 CURVE SMOOTH",
"771 477 OFFCURVE",
"795 442 OFFCURVE",
"795 391 CURVE SMOOTH",
"795 335 OFFCURVE",
"767 294 OFFCURVE",
"710 267 CURVE SMOOTH",
"653 240 OFFCURVE",
"567 225 OFFCURVE",
"450 223 CURVE",
"448 208 OFFCURVE",
"447 193 OFFCURVE",
"447 179 CURVE SMOOTH",
"447 119 OFFCURVE",
"481 76 OFFCURVE",
"557 76 CURVE SMOOTH",
"614 76 OFFCURVE",
"659 101 OFFCURVE",
"702 154 CURVE",
"768 99 LINE",
"703 18 OFFCURVE",
"632 -12 OFFCURVE",
"549 -12 CURVE SMOOTH",
"456 -12 OFFCURVE",
"394 26 OFFCURVE",
"365 93 CURVE",
"358 93 LINE",
"321 21 OFFCURVE",
"253 -12 OFFCURVE",
"174 -12 CURVE SMOOTH"
);
}
);
width = 814;
}
);
leftKerningGroup = ae;
rightKerningGroup = e;
unicode = 00E6;
},
{
glyphname = aeacute;
layers = (
{
layerId = "5E034FFB-2FEE-437B-B143-44B7444E4712";
name = "Regular Italic";
paths = (
{
closed = 1;
nodes = (
"233 70 OFFCURVE",
"263 78 OFFCURVE",
"287 93 CURVE SMOOTH",
"310 108 OFFCURVE",
"327 129 OFFCURVE",
"332 154 CURVE SMOOTH",
"346 224 LINE",
"255 220 LINE SMOOTH",
"192 217 OFFCURVE",
"146 206 OFFCURVE",
"135 161 CURVE SMOOTH",
"132 150 OFFCURVE",
"131 142 OFFCURVE",
"131 137 CURVE",
"130 132 OFFCURVE",
"130 128 OFFCURVE",
"130 125 CURVE SMOOTH",
"130 90 OFFCURVE",
"157 70 OFFCURVE",
"204 70 CURVE SMOOTH"
);
},
{
closed = 1;
nodes = (
"538 449 OFFCURVE",
"486 397 OFFCURVE",
"467 314 CURVE SMOOTH",
"462 292 LINE",
"557 296 OFFCURVE",
"614 305 OFFCURVE",
"648 320 CURVE SMOOTH",
"682 335 OFFCURVE",
"692 354 OFFCURVE",
"692 381 CURVE SMOOTH",
"692 409 OFFCURVE",
"682 427 OFFCURVE",
"667 437 CURVE SMOOTH",
"651 447 OFFCURVE",
"632 449 OFFCURVE",
"615 449 CURVE SMOOTH"
);
},
{
closed = 1;
nodes = (
"77 -12 OFFCURVE",
"23 38 OFFCURVE",
"23 123 CURVE SMOOTH",
"23 226 OFFCURVE",
"102 281 OFFCURVE",
"260 287 CURVE SMOOTH",
"360 291 LINE",
"368 336 LINE SMOOTH",
"370 347 OFFCURVE",
"371 356 OFFCURVE",
"371 365 CURVE SMOOTH",
"371 418 OFFCURVE",
"340 444 OFFCURVE",
"277 444 CURVE SMOOTH",
"214 444 OFFCURVE",
"179 416 OFFCURVE",
"147 373 CURVE",
"85 433 LINE",
"126 493 OFFCURVE",
"199 532 OFFCURVE",
"288 532 CURVE SMOOTH",
"368 532 OFFCURVE",
"415 500 OFFCURVE",
"438 445 CURVE",
"445 445 LINE",
"488 500 OFFCURVE",
"546 532 OFFCURVE",
"621 532 CURVE SMOOTH",
"661 532 OFFCURVE",
"705 523 OFFCURVE",
"738 500 CURVE SMOOTH",
"771 477 OFFCURVE",
"795 442 OFFCURVE",
"795 391 CURVE SMOOTH",
"795 335 OFFCURVE",
"767 294 OFFCURVE",
"710 267 CURVE SMOOTH",
"653 240 OFFCURVE",
"567 225 OFFCURVE",
"450 223 CURVE",
"448 208 OFFCURVE",
"447 193 OFFCURVE",
"447 179 CURVE SMOOTH",
"447 119 OFFCURVE",
"481 76 OFFCURVE",
"557 76 CURVE SMOOTH",
"614 76 OFFCURVE",
"659 101 OFFCURVE",
"702 154 CURVE",
"768 99 LINE",
"703 18 OFFCURVE",
"632 -12 OFFCURVE",
"549 -12 CURVE SMOOTH",
"456 -12 OFFCURVE",
"394 26 OFFCURVE",
"365 93 CURVE",
"358 93 LINE",
"321 21 OFFCURVE",
"253 -12 OFFCURVE",
"174 -12 CURVE SMOOTH"
);
},
{
closed = 1;
nodes = (
"489 582 LINE",
"426 616 LINE",
"536 795 LINE",
"623 749 LINE"
);
}
);
width = 814;
}
);
leftKerningGroup = ae;
rightKerningGroup = e;
unicode = 01FD;
},
{
glyphname = cacute;
layers = (
{
layerId = "5E034FFB-2FEE-437B-B143-44B7444E4712";
name = "Regular Italic";
paths = (
{
closed = 1;
nodes = (
"121 -12 OFFCURVE",
"42 63 OFFCURVE",
"42 206 CURVE SMOOTH",
"42 297 OFFCURVE",
"68 378 OFFCURVE",
"115 437 CURVE SMOOTH",
"162 496 OFFCURVE",
"227 532 OFFCURVE",
"306 532 CURVE SMOOTH",
"402 532 OFFCURVE",
"467 481 OFFCURVE",
"484 405 CURVE",
"397 370 LINE",
"382 417 OFFCURVE",
"357 444 OFFCURVE",
"301 444 CURVE SMOOTH",
"229 444 OFFCURVE",
"183 397 OFFCURVE",
"167 313 CURVE SMOOTH",
"150 227 LINE SMOOTH",
"147 210 OFFCURVE",
"145 196 OFFCURVE",
"145 183 CURVE SMOOTH",
"145 119 OFFCURVE",
"178 76 OFFCURVE",
"247 76 CURVE SMOOTH",
"298 76 OFFCURVE",
"331 104 OFFCURVE",
"367 169 CURVE",
"447 131 LINE",
"403 38 OFFCURVE",
"332 -12 OFFCURVE",
"237 -12 CURVE SMOOTH"
);
},
{
closed = 1;
nodes = (
"336 582 LINE",
"273 616 LINE",
"383 795 LINE",
"470 749 LINE"
);
}
);
width = 491;
}
);
leftKerningGroup = c;
rightKerningGroup = c;
unicode = 0107;
},
{
glyphname = ccaron;
layers = (
{
layerId = "5E034FFB-2FEE-437B-B143-44B7444E4712";
name = "Regular Italic";
paths = (
{
closed = 1;
nodes = (
"121 -12 OFFCURVE",
"42 63 OFFCURVE",
"42 206 CURVE SMOOTH",
"42 297 OFFCURVE",
"68 378 OFFCURVE",
"115 437 CURVE SMOOTH",
"162 496 OFFCURVE",
"227 532 OFFCURVE",
"306 532 CURVE SMOOTH",
"402 532 OFFCURVE",
"467 481 OFFCURVE",
"484 405 CURVE",
"397 370 LINE",
"382 417 OFFCURVE",
"357 444 OFFCURVE",
"301 444 CURVE SMOOTH",
"229 444 OFFCURVE",
"183 397 OFFCURVE",
"167 313 CURVE SMOOTH",
"150 227 LINE SMOOTH",
"147 210 OFFCURVE",
"145 196 OFFCURVE",
"145 183 CURVE SMOOTH",
"145 119 OFFCURVE",
"178 76 OFFCURVE",
"247 76 CURVE SMOOTH",
"298 76 OFFCURVE",
"331 104 OFFCURVE",
"367 169 CURVE",
"447 131 LINE",
"403 38 OFFCURVE",
"332 -12 OFFCURVE",
"237 -12 CURVE SMOOTH"
);
},
{
closed = 1;
nodes = (
"269 594 LINE",
"179 744 LINE",
"236 786 LINE",
"328 670 LINE",
"467 786 LINE",
"521 744 LINE",
"376 594 LINE"
);
}
);
width = 491;
}
);
leftKerningGroup = c;
rightKerningGroup = c;
unicode = 010D;
},
{
glyphname = ccedilla;
layers = (
{
layerId = "5E034FFB-2FEE-437B-B143-44B7444E4712";
name = "Regular Italic";
paths = (
{
closed = 1;
nodes = (
"401 532 OFFCURVE",
"466 481 OFFCURVE",
"483 405 CURVE",
"396 370 LINE",
"381 417 OFFCURVE",
"356 444 OFFCURVE",
"300 444 CURVE SMOOTH",
"228 444 OFFCURVE",
"183 397 OFFCURVE",
"166 313 CURVE SMOOTH",
"149 227 LINE SMOOTH",
"146 210 OFFCURVE",
"144 196 OFFCURVE",
"144 183 CURVE SMOOTH",
"144 119 OFFCURVE",
"177 76 OFFCURVE",
"246 76 CURVE SMOOTH",
"297 76 OFFCURVE",
"330 104 OFFCURVE",
"366 169 CURVE",
"446 131 LINE",
"405 44 OFFCURVE",
"342 -3 OFFCURVE",
"258 -11 CURVE",
"241 -59 LINE",
"243 -62 LINE",
"254 -59 OFFCURVE",
"264 -57 OFFCURVE",
"279 -57 CURVE SMOOTH",
"314 -57 OFFCURVE",
"340 -74 OFFCURVE",
"340 -113 CURVE SMOOTH",
"340 -174 OFFCURVE",
"288 -209 OFFCURVE",
"216 -209 CURVE SMOOTH",
"164 -209 OFFCURVE",
"127 -191 OFFCURVE",
"111 -168 CURVE",
"156 -123 LINE",
"165 -135 OFFCURVE",
"186 -149 OFFCURVE",
"215 -149 CURVE SMOOTH",
"243 -149 OFFCURVE",
"262 -135 OFFCURVE",
"262 -115 CURVE SMOOTH",
"262 -106 OFFCURVE",
"258 -97 OFFCURVE",
"250 -90 CURVE",
"241 -83 OFFCURVE",
"226 -79 OFFCURVE",
"203 -77 CURVE SMOOTH",
"178 -75 LINE",
"201 -10 LINE",
"105 3 OFFCURVE",
"41 77 OFFCURVE",
"41 206 CURVE SMOOTH",
"41 297 OFFCURVE",
"67 378 OFFCURVE",
"114 437 CURVE SMOOTH",
"161 496 OFFCURVE",
"226 532 OFFCURVE",
"305 532 CURVE SMOOTH"
);
}
);
width = 490;
}
);
leftKerningGroup = c;
rightKerningGroup = c;
unicode = 00E7;
},
{
glyphname = ccircumflex;
layers = (
{
layerId = "5E034FFB-2FEE-437B-B143-44B7444E4712";
name = "Regular Italic";
paths = (
{
closed = 1;
nodes = (
"121 -12 OFFCURVE",
"42 63 OFFCURVE",
"42 206 CURVE SMOOTH",
"42 297 OFFCURVE",
"68 378 OFFCURVE",
"115 437 CURVE SMOOTH",
"162 496 OFFCURVE",
"227 532 OFFCURVE",
"306 532 CURVE SMOOTH",
"402 532 OFFCURVE",
"467 481 OFFCURVE",
"484 405 CURVE",
"397 370 LINE",
"382 417 OFFCURVE",
"357 444 OFFCURVE",
"301 444 CURVE SMOOTH",
"229 444 OFFCURVE",
"183 397 OFFCURVE",
"167 313 CURVE SMOOTH",
"150 227 LINE SMOOTH",
"147 210 OFFCURVE",
"145 196 OFFCURVE",
"145 183 CURVE SMOOTH",
"145 119 OFFCURVE",
"178 76 OFFCURVE",
"247 76 CURVE SMOOTH",
"298 76 OFFCURVE",
"331 104 OFFCURVE",
"367 169 CURVE",
"447 131 LINE",
"403 38 OFFCURVE",
"332 -12 OFFCURVE",
"237 -12 CURVE SMOOTH"
);
},
{
closed = 1;
nodes = (
"403 778 LINE",
"493 628 LINE",
"436 585 LINE",
"341 701 LINE",
"204 586 LINE",
"152 629 LINE",
"297 778 LINE"
);
}
);
width = 491;
}
);
leftKerningGroup = c;
rightKerningGroup = c;
unicode = 0109;
},
{
glyphname = cdotaccent;
layers = (
{
layerId = "5E034FFB-2FEE-437B-B143-44B7444E4712";
name = "Regular Italic";
paths = (
{
closed = 1;
nodes = (
"121 -12 OFFCURVE",
"42 63 OFFCURVE",
"42 206 CURVE SMOOTH",
"42 297 OFFCURVE",
"68 378 OFFCURVE",
"115 437 CURVE SMOOTH",
"162 496 OFFCURVE",
"227 532 OFFCURVE",
"306 532 CURVE SMOOTH",
"402 532 OFFCURVE",
"467 481 OFFCURVE",
"484 405 CURVE",
"397 370 LINE",
"382 417 OFFCURVE",
"357 444 OFFCURVE",
"301 444 CURVE SMOOTH",
"229 444 OFFCURVE",
"183 397 OFFCURVE",
"167 313 CURVE SMOOTH",
"150 227 LINE SMOOTH",
"147 210 OFFCURVE",
"145 196 OFFCURVE",
"145 183 CURVE SMOOTH",
"145 119 OFFCURVE",
"178 76 OFFCURVE",
"247 76 CURVE SMOOTH",
"298 76 OFFCURVE",
"331 104 OFFCURVE",
"367 169 CURVE",
"447 131 LINE",
"403 38 OFFCURVE",
"332 -12 OFFCURVE",
"237 -12 CURVE SMOOTH"
);
},
{
closed = 1;
nodes = (
"287 605 OFFCURVE",
"270 622 OFFCURVE",
"270 650 CURVE SMOOTH",
"270 653 OFFCURVE",
"270 657 OFFCURVE",
"271 661 CURVE SMOOTH",
"272 665 OFFCURVE",
"273 672 OFFCURVE",
"275 681 CURVE SMOOTH",
"282 716 OFFCURVE",
"300 737 OFFCURVE",
"347 737 CURVE SMOOTH",
"386 737 OFFCURVE",
"403 720 OFFCURVE",
"403 692 CURVE SMOOTH",
"403 689 OFFCURVE",
"403 685 OFFCURVE",
"402 681 CURVE SMOOTH",
"401 677 OFFCURVE",
"400 670 OFFCURVE",
"398 661 CURVE SMOOTH",
"391 626 OFFCURVE",
"373 605 OFFCURVE",
"326 605 CURVE SMOOTH"
);
}
);
width = 491;
}
);
leftKerningGroup = c;
rightKerningGroup = c;
unicode = 010B;
},
{
glyphname = dcaron;
layers = (
{
layerId = "5E034FFB-2FEE-437B-B143-44B7444E4712";
name = "Regular Italic";
paths = (
{
closed = 1;
nodes = (
"434 0 LINE SMOOTH",
"387 0 OFFCURVE",
"358 25 OFFCURVE",
"358 68 CURVE SMOOTH",
"358 79 OFFCURVE",
"359 89 OFFCURVE",
"361 97 CURVE",
"365 116 LINE",
"361 116 LINE",
"318 31 OFFCURVE",
"272 -12 OFFCURVE",
"192 -12 CURVE SMOOTH",
"96 -12 OFFCURVE",
"42 63 OFFCURVE",
"42 179 CURVE SMOOTH",
"42 270 OFFCURVE",
"65 359 OFFCURVE",
"109 424 CURVE SMOOTH",
"152 489 OFFCURVE",
"214 532 OFFCURVE",
"291 532 CURVE SMOOTH",
"359 532 OFFCURVE",
"413 494 OFFCURVE",
"424 433 CURVE",
"429 433 LINE",
"490 740 LINE",
"594 740 LINE",
"463 87 LINE",
"530 87 LINE",
"513 0 LINE"
);
},
{
closed = 1;
nodes = (
"275 77 OFFCURVE",
"306 99 OFFCURVE",
"333 127 CURVE SMOOTH",
"362 158 OFFCURVE",
"381 197 OFFCURVE",
"390 242 CURVE SMOOTH",
"409 337 LINE SMOOTH",
"421 397 OFFCURVE",
"388 443 OFFCURVE",
"309 443 CURVE SMOOTH",
"234 443 OFFCURVE",
"188 395 OFFCURVE",
"169 303 CURVE SMOOTH",
"154 230 LINE SMOOTH",
"151 214 OFFCURVE",
"149 193 OFFCURVE",
"149 176 CURVE SMOOTH",
"149 117 OFFCURVE",
"177 77 OFFCURVE",
"234 77 CURVE SMOOTH"
);
},
{
closed = 1;
nodes = (
"688 542 LINE",
"616 542 LINE",
"658 740 LINE",
"778 740 LINE"
);
}
);
width = 620;
}
);
leftKerningGroup = a;
rightKerningGroup = dcaron;
unicode = 010F;
},
{
glyphname = dcroat;
layers = (
{
layerId = "5E034FFB-2FEE-437B-B143-44B7444E4712";
name = "Regular Italic";
paths = (
{
closed = 1;
nodes = (
"434 0 LINE SMOOTH",
"387 0 OFFCURVE",
"358 25 OFFCURVE",
"358 68 CURVE SMOOTH",
"358 79 OFFCURVE",
"359 89 OFFCURVE",
"361 97 CURVE",
"365 116 LINE",
"361 116 LINE",
"318 31 OFFCURVE",
"272 -12 OFFCURVE",
"192 -12 CURVE SMOOTH",
"96 -12 OFFCURVE",
"42 63 OFFCURVE",
"42 179 CURVE SMOOTH",
"42 270 OFFCURVE",
"65 359 OFFCURVE",
"109 424 CURVE SMOOTH",
"152 489 OFFCURVE",
"214 532 OFFCURVE",
"291 532 CURVE SMOOTH",
"359 532 OFFCURVE",
"413 494 OFFCURVE",
"424 433 CURVE",
"429 433 LINE",
"462 600 LINE",
"313 600 LINE",
"328 675 LINE",
"477 675 LINE",
"490 740 LINE",
"594 740 LINE",
"581 675 LINE",
"640 675 LINE",
"624 600 LINE",
"566 600 LINE",
"463 87 LINE",
"530 87 LINE",
"513 0 LINE"
);
},
{
closed = 1;
nodes = (
"275 77 OFFCURVE",
"306 99 OFFCURVE",
"333 127 CURVE SMOOTH",
"362 158 OFFCURVE",
"381 197 OFFCURVE",
"390 242 CURVE SMOOTH",
"409 337 LINE SMOOTH",
"421 397 OFFCURVE",
"388 443 OFFCURVE",
"309 443 CURVE SMOOTH",
"234 443 OFFCURVE",
"188 395 OFFCURVE",
"169 303 CURVE SMOOTH",
"154 230 LINE SMOOTH",
"151 214 OFFCURVE",
"149 193 OFFCURVE",
"149 176 CURVE SMOOTH",
"149 117 OFFCURVE",
"177 77 OFFCURVE",
"234 77 CURVE SMOOTH"
);
}
);
width = 586;
}
);
leftKerningGroup = a;
rightKerningGroup = d;
unicode = 0111;
},
{
glyphname = eth;
layers = (
{
layerId = "5E034FFB-2FEE-437B-B143-44B7444E4712";
name = "Regular Italic";
paths = (
{
closed = 1;
nodes = (
"429 649 LINE",
"484 577 OFFCURVE",
"521 478 OFFCURVE",
"521 351 CURVE SMOOTH",
"521 234 OFFCURVE",
"490 142 OFFCURVE",
"439 81 CURVE SMOOTH",
"388 20 OFFCURVE",
"318 -12 OFFCURVE",
"239 -12 CURVE SMOOTH",
"114 -12 OFFCURVE",
"41 71 OFFCURVE",
"41 204 CURVE SMOOTH",
"41 285 OFFCURVE",
"67 361 OFFCURVE",
"110 415 CURVE SMOOTH",
"153 469 OFFCURVE",
"211 502 OFFCURVE",
"278 502 CURVE SMOOTH",
"349 502 OFFCURVE",
"394 466 OFFCURVE",
"413 407 CURVE",
"420 408 LINE",
"411 479 OFFCURVE",
"384 545 OFFCURVE",
"345 601 CURVE",
"248 545 LINE",
"219 597 LINE",
"306 648 LINE",
"270 687 OFFCURVE",
"230 717 OFFCURVE",
"191 740 CURVE",
"340 740 LINE",
"356 727 OFFCURVE",
"373 712 OFFCURVE",
"389 695 CURVE",
"484 752 LINE",
"514 699 LINE"
);
},
{
closed = 1;
nodes = (
"319 73 OFFCURVE",
"368 128 OFFCURVE",
"387 213 CURVE SMOOTH",
"399 270 LINE SMOOTH",
"402 286 OFFCURVE",
"404 300 OFFCURVE",
"404 313 CURVE SMOOTH",
"404 378 OFFCURVE",
"364 417 OFFCURVE",
"299 417 CURVE SMOOTH",
"230 417 OFFCURVE",
"181 362 OFFCURVE",
"162 277 CURVE SMOOTH",
"150 220 LINE SMOOTH",
"147 204 OFFCURVE",
"145 190 OFFCURVE",
"145 177 CURVE SMOOTH",
"145 112 OFFCURVE",
"185 73 OFFCURVE",
"250 73 CURVE SMOOTH"
);
}
);
width = 567;
}
);
leftKerningGroup = c;
rightKerningGroup = o;
unicode = 00F0;
},
{
glyphname = eacute;
layers = (
{
layerId = "5E034FFB-2FEE-437B-B143-44B7444E4712";
name = "Regular Italic";
paths = (
{
closed = 1;
nodes = (
"113 -12 OFFCURVE",
"42 68 OFFCURVE",
"42 208 CURVE SMOOTH",
"42 293 OFFCURVE",
"69 374 OFFCURVE",
"117 434 CURVE SMOOTH",
"165 494 OFFCURVE",
"234 532 OFFCURVE",
"318 532 CURVE SMOOTH",
"359 532 OFFCURVE",
"404 522 OFFCURVE",
"437 499 CURVE SMOOTH",
"470 476 OFFCURVE",
"493 441 OFFCURVE",
"493 390 CURVE SMOOTH",
"493 335 OFFCURVE",
"465 292 OFFCURVE",
"410 263 CURVE SMOOTH",
"354 234 OFFCURVE",
"267 218 OFFCURVE",
"148 215 CURVE",
"146 202 OFFCURVE",
"145 191 OFFCURVE",
"145 182 CURVE SMOOTH",
"145 118 OFFCURVE",
"179 76 OFFCURVE",
"255 76 CURVE SMOOTH",
"312 76 OFFCURVE",
"357 101 OFFCURVE",
"400 154 CURVE",
"466 99 LINE",
"401 18 OFFCURVE",
"329 -12 OFFCURVE",
"248 -12 CURVE SMOOTH"
);
},
{
closed = 1;
nodes = (
"238 449 OFFCURVE",
"181 397 OFFCURVE",
"165 314 CURVE SMOOTH",
"160 288 LINE",
"255 292 OFFCURVE",
"313 301 OFFCURVE",
"347 317 CURVE SMOOTH",
"381 333 OFFCURVE",
"390 356 OFFCURVE",
"390 385 CURVE SMOOTH",
"390 410 OFFCURVE",
"380 427 OFFCURVE",
"365 437 CURVE SMOOTH",
"349 447 OFFCURVE",
"330 449 OFFCURVE",
"310 449 CURVE SMOOTH"
);
},
{
closed = 1;
nodes = (
"349 582 LINE",
"286 616 LINE",
"396 795 LINE",
"483 749 LINE"
);
}
);
width = 512;
}
);
leftKerningGroup = c;
rightKerningGroup = e;
unicode = 00E9;
},
